<?xml version="1.0" encoding="utf-8"?>
<!-- Generator: Adobe Illustrator 19.1.0, SVG Export Plug-In . SVG Version: 6.00 Build 0)  -->
<svg version="1.1" id="homunculus_svg" xmlns="http://www.w3.org/2000/svg" xmlns:xlink="http://www.w3.org/1999/xlink" x="0px"
	 y="0px" viewBox="-211 61 536 440" style="enable-background:new -211 61 536 440;" xml:space="preserve">
<style type="text/css">
	.st0{fill:#FFFFFF;stroke:#939598;stroke-miterlimit:10;}
	.st1{fill:#FFFFFF;stroke:#939598;stroke-width:1.4102;stroke-miterlimit:10;}
	.st2{fill:#FFFFFF;stroke:#939598;stroke-width:0.8987;stroke-miterlimit:10;}
	.st3{fill:#EDF8E9;stroke:#939598;stroke-width:0.8987;stroke-miterlimit:10;}
	.st4{fill:#BAE4B3;stroke:#939598;stroke-width:0.8987;stroke-miterlimit:10;}
	.st5{fill:#74C476;stroke:#939598;stroke-width:0.8987;stroke-miterlimit:10;}
	.st6{fill:#31A354;stroke:#939598;stroke-width:0.8987;stroke-miterlimit:10;}
	.st7{fill:#006D2C;stroke:#939598;stroke-width:0.8987;stroke-miterlimit:10;}
	.st8{font-family:'ArialMT';}
	.st9{font-size:12.9619px;}
</style>
<g id="bone">
	<g>
		<path class="st0" d="M-24.4,194.4c-3.2-0.5-6.6,1.7-7.1,5.6c-0.6,3.9,0.8,7.5,3.6,8.7c2.8,1.2,2.5,1.2,3.6,4.5
			c1.8,5.9,3.2,12,4.7,18.1c1.7,7.1,4.7,14.2,5.8,21.3c0.6,3.5,0.7,6.5,0,9.4c-0.7,2.8-0.6,2.8-1.4,5.7c-0.7,2.8-1.3,4.1,0.7,5.8
			c2,1.7,3.9,1.8,7.1-0.5c3.4-2.4,10.3-0.9,9.5-6.5c-0.8-5.4-5.7-8.4-7.6-13.4c-2.2-5.9-3.1-12.1-4.3-18.2c-2.1-11-6.7-23-6.2-34.3
			c0.2-5-0.7-7-3.7-6.2c-2.9,0.7-2.5,3.1-3.6,1.6C-24.4,194.4-24.4,194.4-24.4,194.4C-27.5,193.8-24.4,194.4-24.4,194.4z"/>
		<path class="st0" d="M0,272.3c0.6,3.4,1.3,0.1,2.4,3.7c0.8,2.8-2,5.4-4.3,6.3c-3.7,1.4-6.2,5.3-9.4,7.6
			c-6.8,4.9-12.1,11.6-18,17.5c-1-3.6,1.5-7,0.3-10.2c0,0,0.6,0,4.7-2.6c5.9-3.8,9.5-9,14.1-14c1.6-1.8,1.8-4.3,3.2-5.9
			C-5.5,273-2.1,272.8,0,272.3C0.6,275.7,0,272.3,0,272.3z"/>
		<path class="st0" d="M-11.4,277c-4.9,0-3.3-4.8-8-2.4c-4.2,2.2-7.4,7.3-11.1,10.4l1.4,6.8c2.8-2.2,5.6-4.4,8.2-6.9
			c2.7-2.6,4.3-3.8,7.9-4.8C-11.4,279.6-9.5,278.3-11.4,277C-12.1,277-11.4,277-11.4,277z"/>
		<path class="st0" d="M-47.2,176.4c6.7,0.1,12.4,2.3,18.3,5.4c1.5,0.8,3.2,2.1,4.9,2.3c1.1,0.2,5.2-2.4,5.8-3.4
			c0.2-0.5-0.1-1-1.5-1.7c-5.7-2.7-11.2-5.8-17.5-6.7c-2.5-0.4-15.4-3.2-17-1C-54.9,172.3-48.2,176-47.2,176.4L-47.2,176.4z"/>
		<path class="st0" d="M-16.2,181.5c5.1,1.8,3.8,10.4,1.6,13.7c-1.2-3-4.1-3.1-6.8-2c-1.7,0.7-1.6-0.6-3.1-0.9
			c-2.2-0.5-5,0.7-6.8,1.8c-3.6,2.1-2.3,11.4-0.4,13.8c1.8,2.3,5.4,3.5,5.4,3.5c-0.7,0.8-3.6,5.5-4.5,4.5c-1.8-1.9-2.2-5.7-2.8-8
			c-1-3.8-2-7.8-3.6-11.4c-0.4-0.8-5.5-8.9-2.7-8.5c3,0.4,5.8,3,8.9,2c4.2-1.5,5.3-1.6,9.6,0c2.7,1,2.5-3.7,0.8-4.3
			C-24.6,184-17.6,181.9-16.2,181.5C-13.4,182.5-16.2,181.5-16.2,181.5z"/>
	</g>
	<g>
		<g>
			<path class="st0" d="M262.6,133.5l11.2-0.7l1.1,2.1c2,2,5.4-1.3,5.9,1.7c0.6,3.9-5.4,1.7-5.1,2.8c0.4,1.6-0.1,1.8-0.1,1.8
				l-11.4,1.9C263.6,139.8,263.1,136.6,262.6,133.5L262.6,133.5z"/>
			<path class="st0" d="M264.6,144.5l11.2-2.1c0,0,0.7,0.6,2.1,0.3c1.4-0.3,2.3,0.1,2.3,1.1c-0.1,1.7-5.2,2.6-0.9,5l-13.2,4
				c0,0,0.1-1.7-0.5-2.9c-0.6-1.2,1.4-1.6,1-2.4c-0.4-0.9-1.1-0.7-1.8-1.3C264.1,145.5,264.6,144.5,264.6,144.5L264.6,144.5z"/>
			<path class="st0" d="M267.3,153.6c1.9-0.5,10.6-4.4,12.2-3.2c0.8,0.6,1.4,0.2,1.9,1c0.5,0.9-0.7,1.8-0.8,2.3
				c-0.1,0.6,0.1,1.7,0.1,1.7l-11.3,3.8L267.3,153.6L267.3,153.6z"/>
			<path class="st0" d="M270.1,160.6l11.4-4.1c0.7,3.9,4.8-0.6,6.1,2.1c0.6,1.2,0.6,2.1-1.3,2.5c-1.9,0.4-3.9-0.4-2.2,2.8
				c-3.3,1-6.7,2-10,3C271.6,167.6,270.8,162.5,270.1,160.6L270.1,160.6z"/>
			<path class="st0" d="M273.3,168.5c2.4-0.5,9.2-3.4,11.3-2.1c1.6,1.1,3.1,1.8,5,0.8c1.2-0.7,4.6,0.6,2.9,1.7
				c-1.4,0.9-6.9,1.2-4.9,3.4l-11.7,2.6L273.3,168.5L273.3,168.5z"/>
			<path class="st0" d="M277.1,176c2.9-0.5,5.8-1,8.7-1.5c1.1-0.2,1.6-1.2,2.7-0.1c1,1,6.8,1.9,6.2,3.1c-0.7,1.5-4.7,2-6.1,3.7
				l-10.4,1.3l-1.9-5.8L277.1,176L277.1,176z"/>
			<path class="st0" d="M279.3,184.3l10.9-1.7c0,0-0.6-0.1,0,0.8c1.2,1.7,4.9-3.2,6.1,0.2c1,2.7-3.9,2.1-4.4,5.3l-11,1.8
				L279.3,184.3L279.3,184.3z"/>
			<path class="st0" d="M281.5,192.4l11-1.9c1.9,1.3,7.1-0.3,7.3,2c0.3,4.5-5,1.4-5.1,4.5l-11.1,1.4L281.5,192.4L281.5,192.4z"/>
			<path class="st0" d="M285.5,210.5l12.8-1.8c-1,4.4,4.3-0.4,5.2,1.3c2.3,4.1-5.9,3.2-3.7,6.3l-14.1,0.7L285.5,210.5L285.5,210.5z"
				/>
			<path class="st0" d="M283.6,200.1l11.8-1.6c0,0,0.6,0.7,1.2,1.9c0.9,2,3.3-0.6,4.6,0c1.2,0.5-2.6,3.4-2.2,4.7
				c0.6,1.9-0.4,1.6-0.4,1.6l-13,2.2L283.6,200.1L283.6,200.1z"/>
			<path class="st0" d="M282.5,382.8c-0.2,2,5-1.5,5-1.5l-2.2-1.6L282.5,382.8C282.3,384.8,282.5,382.8,282.5,382.8z"/>
			<polygon class="st0" points="286.3,379 288.7,380.5 291,377.3 287.3,376.2 			"/>
			<polygon class="st0" points="288,375 291.9,376.3 295.2,372.7 288.7,371.3 			"/>
			<polygon class="st0" points="290.2,369.8 296.2,371.4 298.2,365.2 290.5,365.1 			"/>
			<path class="st0" d="M290.5,362.8l8.2-0.2v-6l-8.5,1C290.3,359.3,290.5,361.1,290.5,362.8L290.5,362.8z"/>
			<path class="st0" d="M289.5,356.8c2.5-0.5,11.2-0.9,10.5-4.8c-1.1-6.4-8.5-3.5-12.1-2.2L289.5,356.8L289.5,356.8z"/>
			<path class="st0" d="M287.4,348.9c2-1.1,4.4-2.9,6.7-3.1c2.5-0.3,6.6,2.2,5.8-1.4c-2.2-9.6-12.3-6-17.3-0.8L287.4,348.9
				L287.4,348.9z"/>
			<path class="st0" d="M280,341.3c3.7-2.3,8.1-5.9,12.7-5.2c5.3,0.8,0.6-3.2-2-3.8c-3.4-0.8-7.9-2.3-11.4-1.4l-7.8,7.4L280,341.3
				L280,341.3z"/>
			<path class="st0" d="M267.5,336c0.2-0.7,12.1-7.4,12.1-7.4c1.8-0.1,4.5,0,6-1.1c2.6-1.8,6.6,3.5,8-0.1c1-2.5-0.6-6-3.6-5
				c-3.7,1.2-6.3-1.5-9.4-3.4c-4.5,1.4-9.1,3.1-13.8,3.8c-1,0.2-2.3-0.7-3.2-0.3c-1.8,0.7,0.3,4.8,0.7,5.7
				C265.5,331.1,262.9,334.9,267.5,336C267.7,335.3,267.5,336,267.5,336z"/>
			<path class="st0" d="M262.4,319c5.8-1.8,11.9-2.5,18-2.7c2.9-0.1,6.5,2.5,9,1.9c5.3-1.2,1-7-2.3-7.6c-1.9-0.4-3.8-0.5-5.4-1.6
				c-0.6-0.4-1.9-2.7-2.5-2.8c-2.8-0.4-5.9,0.1-8.7,0.3c-1.3,0.1-8.2,0.2-8.7,0.9C259.6,309.9,262.3,315.9,262.4,319L262.4,319z"/>
			<path class="st0" d="M261.4,303.1c3.4,0.1,6.7,0.1,10.1-0.2c2.7-0.2,8.1-1.8,10.5-0.2c2.7,1.8,5.3,5.2,8.3,1.8
				c3.3-3.8-5.8-5.4-7.7-6.6c-2.3-1.5-2.9-5.8-4-6.1c-2.2-0.6-4.8,0.3-7,0c-1.7-0.2-3.4,0.4-5.2,0.3c-1.5-0.1-2.5-1.2-4-1.4
				c-2.6-0.4,0.6,3.8,0.7,4.4C264,297.9,261.1,300.4,261.4,303.1L261.4,303.1z"/>
			<path class="st0" d="M263.2,286.1c0.3,3.1,9.3,2,11.5,2.5c3.6,0.8,10.2,7.4,13.2,6c6.7-3,1.2-4.4-2.4-6.8c-3-2-4.1-4.8-4.5-8.2
				c-4.7-1.7-10-2.7-14.9-3.6c-1.8-0.3-1.4,7.6-3,9.4C263.2,285.7,263.2,285.9,263.2,286.1C263.4,288.6,263.2,286.1,263.2,286.1z"/>
			<path class="st0" d="M266.4,273.3c7,3.1,13.8,1,18.3,8.2c1.7,2.8,4.6,5.5,7,1.8c2.5-3.9-3-5.1-4.8-7.2c-2-2.3-2.6-4-1.7-6.7
				c1-2.8-5.6-3-7.4-3.7c-2.2-0.8-6.9-3.7-9.3-2.2c-0.7,0.5-1.9,8-2.1,9.4L266.4,273.3L266.4,273.3L266.4,273.3z"/>
			<path class="st0" d="M270.6,260c0.3,1.8,6.7,2.3,8,2.9c2.4,1.2,4.7,1.7,7,2.9c1.1,2,2.3,5.7,4.4,6.9c2.8,1.6,5.1,0.1,5.2-3.4
				c0-2.5-6.2-5.1-7.8-6.7c-1.5-1.5,0.2-4.2,1-5.7c-3.6-1.2-7.3-2-10.7-3.6C271.6,250.6,273.6,255.9,270.6,260
				C270.7,260.8,270.6,260,270.6,260z"/>
			<path class="st0" d="M277.7,240.5c-0.2,1.6-3,7.3-2.5,8.3c0.7,1.4,6.8,4,8.3,4.3c2.8,0.5,4.8-0.9,5.9,3c0.4,1.6,4.4,6.7,6.2,3.4
				c3.2-5.8-4.5-7.4-5.3-11.4c-0.8-4.2,1.4-3.3-3.5-5.1c-2.5-1-6.6-3.5-9.1-2.7"/>
			<path class="st0" d="M282.3,229.5c-0.4,1.6-3.4,7.7-2.4,9c0.9,1.2,7.3,3,8.8,3.1c0.9,0,2.4-0.3,2.6-0.8c0.2-0.5,3.1-0.1,3.9,0.7
				c0.7,0.8,1.1,2.7,2.2,3.3c1.2,0.6,3.7,0.3,4.4-1.7c0.7-1.9-1.1-3.9-3.3-4.5c-2.2-0.6-3.4-2-3.8-3c-0.4-1,0.1-3.6,0-3.7
				c-1.5-0.8-4-1-5.6-1.3c-1.7-0.4-4.1-1.9-5.7-1.9c-1,0-1.1,0.5-1.1,0.5"/>
			<path class="st0" d="M285.3,219.3c0.2,1.4-1.1,6.8-0.3,7.6c1.2,1.2,10.7,3.5,11.5,1.4c0.2-0.4,5.4,2.4,5.8,2.6
				c1.1,0.4,3,0.1,3.4-1.6c0.4-1.5-1.5-4.5-3.9-4.9c-2-0.3-1.6,0-2-0.9c-0.4-0.9,0.7-4.3,0.6-4.3c-0.1,0-7.5,0.5-8.6,0.5
				c-1.1,0-4.7-1.2-5.6-1.1c-0.9,0.1-0.9,0.6-0.9,0.6"/>
		</g>
		<path class="st0" d="M250.4,428.4c1.9-13.1,4.5-26.6,4.7-39.9c0-2.2-1.5-2.5-1.3-4.9c0.4-3.8-0.1-7.1-1-10.8
			c-1-3.7,0.5-8.8,3.6-11.1c3.9-2.8,14.2-1.5,13,4.8c-1.3,6.3,2.2,12.3-2.2,18.3c-1.1,1.5-2.6,1.5-3.2,3.6
			c-1.3,4.5-1.2,9.5-1.5,14.2c-0.5,8.6-1,17.2-1.1,25.8L250.4,428.4L250.4,428.4L250.4,428.4z"/>
		<path class="st0" d="M264.8,392.3c2.7,5.8,12.4,2.2,12.7-3.3c0.2-3.2-3.2-8.3-1-11.2c3.4-4.5,3.7-4.5,2-10.3
			c-1.5-5.2-10-15.2,1-16.2c3.3-0.3,5.2,2.2,8.7,0.1c3.8-2.3,6-6.3,7.3-10.4c2.9-9.2-3.1-17.9-12.5-19.5c-3.5-0.6-8.6-0.9-11.6,1.5
			c-3.2,2.6-4.7,6.5-9.1,7.6c-4.2,1.1-8.7,1.1-12.7,3.1c-2.2,1.1-8.5,5.7-7.9,8.8c0.7,3.3,6.1,1.5,8.2,2.5c3.9,1.8,3,8.4,2.8,11.8
			c-0.2,3.7-3.4,11.4-7.4,15.9c-0.5,0.5,6.7,8.4,7.9,6.9c1-1.2-2.6-6.9-2.1-9.3c0.2-1.1,0.5-4.1,0.8-5.2c0.5-1.8,2.1-4.1,3-4.8
			c6.4-5.5,18.4,0.5,15.5,9.2c-1,2.8,0.7,4.5,0.9,7.2c0.2,2.6-1.2,5.5-2.5,7.7C266.7,387.7,264.8,387.6,264.8,392.3L264.8,392.3z"/>
	</g>
</g>
<path id="nervous_system" class="st0" d="M-80.1,128.4l2.6,50.2l-4.7,0.2l-2.6-50.3C-83.6,127.6-81.1,127.4-80.1,128.4z
	 M279.5,310.8c-0.2-27,7-38.6,11.7-50.9c4.7-12.3,10-23.7,7.3-53.3c-1.5-16-8.3-27-13.4-38.8c-5.8-13.4-9.1-20.1-13.3-35.1
	c-0.4-1.3-0.9-2.9-1.4-4.3c-1.8-1.4-3.9-2.3-3.9-2.3s2.3,8.4,4.5,14.2c2.2,5.7,5.4,16.6,7.4,21.6c2.8,6.9,13.4,23.9,16.6,44.8
	c4.2,27.7-2.6,43.6-5.2,49.2c-2.6,5.6-12.9,28.1-13.4,47.1c-0.5,19,2.6,26.4,9,35.2c6.4,8.8,11.2,19.5,6.5,32.8
	c-1.1,3.1-3.9,7.5-4.5,8.8c0,0,13.7-9.5,7.3-30.7C290.2,334.4,279.8,337.8,279.5,310.8z"/>
<path id="brain" class="st0" d="M-59,100c0,10.9-2.6,25.3-9.5,25.3c-3.9,0-4,0.6-7.1-2.5c0,0-1.5,4-4.5,5.5l-4.7,0.2
	c-3.5-1.4-4.7-6-4.7-6c-3.1,3.2-4.1,2.8-8.1,2.8c-6.9,0-9.5-14.4-9.5-25.3s5.1-17.7,12.5-19.8c5-1.4,10-3.2,11.5,3
	c1.5-6.3,6.5-4.5,11.5-3C-64.6,82.3-59,89.1-59,100z M270.3,128.4c2.9,0.7,6.7,0.2,8.8-1c3.9-2.2,3.2-5.9,3.2-5.9s9-1.2,10.5-5.6
	c1.5-4.4,0.6-11.1-0.3-17.1s-5.7-12.8-11.6-16.2s-8-4.5-15.4-4.8c-7.4-0.3-18,3.1-24.5,8c-6.6,4.9-6.3,14.5-2.9,21.5
	c3.4,7,11.2,6.6,11.2,6.6s0.7-0.1,1.4,0.7c0.7,0.8-0.3,1.5-0.3,1.5s0,5.1,5,7c4.7,1.8,5.1-0.1,7.8-0.4c0.3,1.3,3.3,3.4,3.3,3.4
	S268.2,127.7,270.3,128.4z"/>
<path id="blood" class="st0" d="M-74.3,276.4c0,0-0.6,5.1,0,6.5c1,2.5,11.9,2.5,11.9,2.5l-0.3,4.1c0,0-6.9-1.9-10.7-0.7
	c-0.9,0.3-0.9,5.2-0.9,5.2l-8.2,0.4c0,0,1-4.7,0.4-5.5c-0.6-0.8-9.5-0.3-9.5-0.3l-0.3-3.1c0,0,7.1,0.2,9.8-1.4l0.3-6.5L-74.3,276.4
	L-74.3,276.4z M-53.6,170.8l-2.6,3.1c-2.3-1.9-5.4-2.5-11.3-2c-4.1,0.4-6.4,3-9.8,4.9c-3.3,1.9-7.1,1.9-10.2,4.5
	c-2.8,2.4-2.8,8-2.6,10l-3.7,0.4c0,0.1,0,0.2,0.1,0.3l-3.3,1c-0.2-0.6-0.3-1.2-0.4-2c-0.1-0.7,0.1-1.8,0.5-2.5
	c1.5-2.8,3.1-5,3.2-8.3c0-0.9-0.1-1.7-0.5-2.3c-0.4-0.7-1-1.3-1.7-1.8c-2.1-1.5-5-3-7.7-3.3l-0.1,0.3l-0.3-0.3
	c-0.9,0-1.8,0.1-2.6,0.5c-3.7,1.7-6.9,5.4-10.5,7.5c-4.3,2.4-9.8,3.8-13.7,6.8c-1,0.8-1.9,1.9-2.7,3c-5.6,8.4-8.7,19.3-11.4,29
	c-1.4,5.1-2.6,10.3-3.6,15.5c-1.2,5.9-3.4,12-4.1,18c-0.5,4.2,1.4,8.1,1,12.2c0,0.6-0.2,1.1-0.4,1.6l0.2,0.1c-0.3,0.8-1,3.3-0.4,4.8
	c0.6,1.3,1.3,2.6,1.5,4c2.1-1.3,4.2-1.8,5.8-3.8c1.6-1.7,1.6-6.9,1.9-9c1-7.1,1.7-14.3,2.6-21.4c1.4-11.2,1.9-26.2,8.5-35.9
	c0.4-0.6,0.9-1.2,1.6-1.8c0.7-0.6,1.5-1,2.3-1.3l0.8,2.9c-0.8,0.2-1.6,0.9-2.3,1.9c-3.6,5.2-4.7,12.5-5.9,18.6
	c-1.5,7.9-2.5,15.9-3.5,23.9c-0.9,7.2-1,15.4-3.6,22.2c-1.1,2.9-4.3,4-7,5.2c-0.5,0.2-0.9,0.5-1.2,0.9c-0.8,1-0.9,2.3-1.3,3.5
	l-0.1,0c-1.9,6.1,0.5,13-1.6,18.7l0,0c0.7,2.1,1,4.2,1,6.3c0,6.2-2.8,12.2-5.4,17.7c2.1-5.5,4.6-11.6,4.3-17.6
	c-0.1-1.6-0.4-3.2-0.9-4.6c-1.1,1.4-3,2.3-3.9,3.9c-1.2,2-1.6,5.1-1.7,7.4c-0.7,9.9-9.1,19.1-12.4,28.1c-0.2,1-0.3,2-0.1,3
	c0,0.6-0.3,1.1-0.6,1.5c-0.4,0.4-0.8,0.7-1.2,1c-1.8,1.2-3.8,1.4-5.7,2.4c-0.9,0.4-1.7,1.1-2.3,1.9c-1.7,2-4.1,5.3-4.4,8
	c-0.6,4.2-0.8,8-2.1,12.1c1.3-4.1,1.4-7.9,1.9-12.1c0.3-2.7,2.7-6.1,4.4-8.1c0.6-0.8,1.5-1.5,2.4-2c1.8-0.9,3.9-1.2,5.6-2.4
	c0.8-0.6,1.6-1.3,1.6-2.2c-0.2-1-0.2-2.1,0.1-3.1c2.1-6,5.6-12.4,8.5-18.1c3.7-7.4,3.9-11.9,0.9-19.7c-0.1,3.8-0.2,11.5-2.5,14.7
	c-2.2,3.3-6.2,3-9.2,5.2c-2.7,2-2.9,5.5-4,8.3c0.5,0.6,0.6,1.2,0.5,1.8c-0.2,2.6-1.9,6.1-2.7,8.6c-0.4,1.2-1.2,2.1-1.8,3.1
	c0.6-1,1.3-2,1.6-3.2c0.6-2.4,2.2-6.1,2.2-8.6c0-0.4-0.1-0.8-0.2-1.1c0,0,0,0.1-0.1,0.1c-0.6,1.1-1.5,1.9-2.3,2.7
	c-0.8,0.8-1.2,1.9-1.2,3.1c0,1.2-0.1,2.4-0.4,3.5c-0.4,1.1-0.9,2.1-1.7,3c-0.5,1-0.9,2.1-1.1,3.3c0.2-1.1,0.6-2.3,1.1-3.3
	c0.7-0.9,1.3-1.9,1.6-3c0.2-1.1,0.3-2.3,0.3-3.4c-0.1-1.2,0.4-2.4,1.2-3.3c0.8-0.9,1.6-1.7,2.1-2.7c1.6-2.8,1.3-6.1,3.5-8.7
	c-1,0.1-2,0-3-0.4c-0.6-0.3-1.1-0.5-1.7-0.9c-0.3-0.2-0.6-0.5-0.7-0.8c-0.7-2-1.1-6.5-0.5-8.5c-0.5,2.1,0.3,5.3,0.7,7.4
	c0.1,0.6,0.3,1.2,0.8,1.4c0.5,0.3,1.1,0.5,1.7,0.7c1.1,0.4,2.4,0.4,3.5,0.1l0,0.1c0,0,0.1-0.1,0.1-0.1c1.9-1.5,4.3-1.7,6.4-3
	c0.9-0.6,1.8-1.3,2.4-2.2c2.6-4,1.8-12.5,2.1-16.9l0.1,0c-1.3-2.5-3.3-4.8-4.2-7.5c-0.5,0.3-1,0.6-1.4,1.1c-1.3,1.3-1.7,3.4-2.8,4.9
	c-1.1,1.6-3,2.5-4.1,4.1c-1.5,2.1-3.5,5.1-3.7,7.7c0-2.6,1.7-5.9,3.2-8.1c1-1.6,2.8-2.6,3.8-4.2c1-1.7,1.3-3.7,2.6-5.3
	c0.6-0.7,1.3-1.3,2.1-1.7c0-0.4,0-0.9,0.1-1.3c0.6-2.6,1.4-6.6,2.7-9c3.2-5.9,10.3-8.7,12.9-15.1l0.2,0.1c0.2-0.4,0.3-0.8,0.3-1.2
	c0.5-5.6-1.9-10.4-0.4-16.4c1.5-6,2.7-11.9,3.9-18c2.7-13.7,6.3-29.6,14-41.5c0.9-1.3,1.9-2.6,3.3-3.7c3.5-2.9,8.2-4.1,12.1-6.2
	c4.5-2.4,8-6.6,12.6-8.7c1.1-0.5,2.3-0.8,3.5-0.8c0.3-0.7,0.8-1.6,1.6-3c1.7-3.2,4.2-3.3,5.5-3.3c0.2,0,0.4,0,0.5,0
	c0.1-0.3,0.2-1.1,0-3l4-0.4c0.3,3.2,0,5-1,6.2c-1.6,1.8-4.4,0.3-5.5,2.4c-0.4,0.8-0.7,1.4-1,1.9c2.1,0.7,4.3,1.8,6.2,3
	c1,0.7,2,1.6,2.7,2.9c0.3,0.6,0.5,1.2,0.7,1.8c2.4-2.5,5.6-4,8.8-5.2c6.3-2.4,11.1-4.7,10.6-10.1c-0.4-3.9,3.1-12.8,3.8-14.6
	l3.7,1.5c-1.1,2.8-2.1,5.7-2.9,8.7c-0.8,3.1-0.2,6.5-1.5,9.4c0,0,0.1,0,0.1,0C-61.8,167.3-57.3,167.6-53.6,170.8
	C-53.6,170.8-57.3,167.6-53.6,170.8z M-154.3,285.1c0.2-1.4,0.5-2.7,0.8-4.1l-0.1,0c0,0,0.5-1.7,1-3.7c0.6-2.4-1.6-4.5-1.7-6.9
	c-2.8,3.3-6.3,5.9-9.2,9c-1.3,1.5-2.4,3.1-2.7,5c-0.3,2.1-1.4,3.9-1.8,5.9c-0.7,3.3,3.1,7.4,4.4,10.2l0.2,0c0,0.1,0,0.2,0,0.3
	c1.3,2.9,2.8,6.2,3.3,9.4c0.2-1.6,0.4-3.4,1.2-4.8c0.9-1.8,3-2.7,4-4.5c0.6-1.1,0.8-2.3,0.8-3.6
	C-154.2,293.2-154.9,289.2-154.3,285.1C-154.2,283.7-154.7,287.9-154.3,285.1z M-101.1,170c-0.2-0.2-0.4-0.4-0.6-0.5l-0.2,0.3
	C-101.7,169.9-101.4,170-101.1,170C-101.3,169.8-101.4,170-101.1,170z M-84.4,400c-1.6-5.5-3.2-11-6.5-15.7c-2.5-3.6-5.3-6-4.3-10.6
	c0.1-0.7,0.3-1.4,0.4-2.3c0.5-4.5-4.4-4.8-4.7-8.8c-0.5-5.7,0.8-13.5,0.8-13.6l-3.9-0.6c-0.8,4.9-1.4,10-0.8,14.9
	c-0.6,0.1-1.2,0.2-1.7,0.4c-1,0.4-2.2,1.2-3,2.7c-0.7-0.1-1.5-0.3-2.1-0.6c-1-0.5-1.9-1.3-2.4-2.3c-1.3-2.3-1.4-5.2-2.2-7.7
	c-0.2-0.7-0.6-1.5-1.1-2c-3.3-3.8-6.7-6.1-9.1-11c1.9,5.1,5,7.8,8,11.9c0.4,0.5,0.6,1,0.7,1.6c0.1,0.6,0.2,1.3,0.3,1.9
	c-1.4,0.5-2.7,1.1-3.9,1.8c-1,0.6-1.8,1.8-2.8,2.2c-0.2,0.1-0.4,0.1-0.8,0c-0.2-0.1-0.4-0.1-0.7-0.2c-0.3-0.1-0.7,0-0.9,0.2
	c-0.5,0.4-0.6,0.8-0.8,1.2c-0.6,1.5-1,3.5-1.5,5c0-0.5,0.1-1,0.1-1.5c0,0.1-0.5,1.5-0.3,1.9c0,0.1,0.2,0.1,0.2,0
	c1.1-0.8,1.5-3.9,2.2-5c0.2-0.3,0.4-0.7,0.6-0.8c0.1,0,0.1,0,0.2,0c0.1,0,0.3,0.1,0.5,0.2c0.4,0.2,1,0.4,1.6,0.2
	c2.3-0.7,4.1-2.7,6.6-3.3c0.3,1.9,0.6,3.9,1.7,5.6c-1.8,1.2-3.5,2.7-4.7,4.5c-2.6,3.4-5.9,7.9-7.2,12c-0.7,2.3-1,4.6-1,6.9
	c0.3-2.3,0.9-4.5,1.9-6.5c1.8-3.7,5.4-7.7,8.2-10.8c1.4-1.6,3.1-2.9,5-3.8c0.9,0.6,1.9,1.1,2.9,1.3c-1.3,7.4,1,16.3,2,23.7
	c-1,1-1.9,2-2.7,3.1c-0.8,1.1-1.5,2.3-1.9,3.7c-0.2,1.4-0.1,2.7,0.1,4.1c0,5.2-2.5,9.8-2.3,15.3c0.1,1.3,0,2.6-0.8,3.7
	c0.8-1.1,1-2.5,1-3.7c0.1-5.6,2.8-9.9,3.3-15.2c-0.1-1.2-0.1-2.5,0.1-3.7c0.6-1.9,2.1-3.5,3.5-4.8c0.5,3.6,1,7.3,2.8,10.5
	c1.7,3.1,4.6,5.2,6,8.4c1.9,4.3,2.6,9.5,2.6,14.2h3c0-4.9-0.7-10-2.5-14.5c-1.3-3.4-3.8-5.4-5.7-8.3c-2.3-3.4-2.7-7.6-3.3-11.5
	c-1-7-1.8-13.8-2.4-20.9c-0.3-3.1,0.2-5.2,1.4-6.2c0.6-0.5,1.4-0.7,2.1-0.7c0.7,1.4,4,3.2,3.9,4.6c-0.1,0.7-0.2,1.3-0.4,2
	c-1.3,6.1,1.9,9.2,5.2,14c3.7,5.3,5,11.8,6.8,17.8c2.4,7.7,3.5,15.7,4.3,23.7h4C-79.8,418.6-81.7,409.4-84.4,400
	C-86,394.3-83.8,401.8-84.4,400z"/>
<g id="skin">
	<g>
		<path class="st0" d="M-62.1,141.8L-62.1,141.8c0-0.2,0-0.3,0-0.4C-62.1,141.5-62.1,141.7-62.1,141.8
			C-62.1,141.8-62.1,141.7-62.1,141.8z"/>
		<path class="st0" d="M-70.6,393.5c-0.2-2.9-0.5-5.8-0.7-8.8l0,0c-0.2-1-0.5-1.5-1.6-1.4c-1.1,0.1-1.3,0.7-1.3,1.6l0,0
			c1.3,14.4,1.4,28.9,0.5,43.4c0.3,0,3,0,3,0l0.2-26c0,0,2.1,4.1,5.6,9.5c3.9,6,5.1,16.5,5.1,16.5c0,0.1,2.7,0,3,0
			c-1.2-5.3-2.7-10.6-4.9-15.6C-64.4,406.3-69.8,400.7-70.6,393.5C-70.6,392.8-70.4,394.8-70.6,393.5z"/>
		<path class="st0" d="M-62.1,141.5C-62.2,141.3-62.2,141.3-62.1,141.5L-62.1,141.5z"/>
		<path class="st0" d="M4.7,221c-0.6-1.8-1.1-2.6-1.4-3.2c-2.1-3.5-0.6-11.9-1.1-16C1.3,195,0.2,186.7-4,181
			c-2.9-3.9-7.7-5.8-12.2-7.2c-2.6-0.8-11.6-2.7-13-4.9c-2.7-4.3-10.5-6-14.8-8c-4.2-1.9-11.9-4.8-13.5-9.5l-1.7-12.7l0,0
			c1.8-4.8,5.5-8,6.9-13.3c1.4-5.2-1.2-9.7-0.4-14.1c1.2-6,2.1-12.9,0.7-19c-2.5-10.7-12.2-18-22.5-20.3
			c-11.1-2.5-23.7,0.4-31.8,8.6c-8.5,8.7-8.2,21.6-6.6,32.9c-0.8,0.9-1.5,2.3-1.6,4.7c-0.1,2.2,0.3,4.8,1.1,7.5
			c1.5,4.9,5.7,7.6,7.1,11.8c1.1,3.5,2.7,6.8,4.7,9.8l0,0c0.3,1.2,0.8,2.3,1,3.3c0.6,3,0.8,4.3-0.5,5.8c-2.9,3.1-8.1,4.8-11.9,6.7
			c-4.7,2.3-9.2,4.8-13,8.4c-2.6,2.5-6.9,4.1-10.2,5.8c-4.5,2.4-9.8,4.5-12.6,9.1c-3.3,5.3-7.5,16.6-6.7,25.2
			c1.6,17.2-5.2,33.9-7,51c-0.4,3.7-4.4,7.6-6.4,10.6c-3.2,4.7-5.3,9.5-7.4,14.8c-4.2,10.5-8.7,19.1-10.3,30.6
			c-0.8,5.4-1.6,10.8-2.9,16.2c-1.4,6-4.9,11-7.1,16.7c-2.1,5.7-3,12.2-4.4,18c-0.9,3.7-2.9,9.1-1.5,12.9c1.4,3.9,2.3,7.7,3.2,11.7
			c0.3,1.3,0.9,2.1,1.5,2.6c0,6.6,2.5,13,4.4,19.2c0.2,0.6,1,2.4,4.7,1.5c2.2-0.6,2.6-3.4,2.4-5.7c1.1,1.7,1.9,2.7,3.1,3.3
			c1,0.4,1.8,0.4,2.6,0c1.2-0.7,1.6-2.1,1.7-3.2c0.3-1.7-0.2-3.6-1-5.2c0.1,0,0.1,0,0.2-0.1c0.9-0.3,1.5-1,1.9-2
			c0.5-1.4,0.2-3.2-0.7-4.6c-0.1-0.1-0.2-0.3-0.3-0.4c0.4-0.1,0.8-0.2,1.2-0.4c0.8-0.4,1.3-1.1,1.4-1.9c0.7-3.9,1.5-7.6,2.6-11.4
			c0.9-3.3,0.7-8.3,0.8-11.8c0.1-4.3-2.5-7.3-3.4-11.4c-0.8-3.9,1.9-10,3.8-12.9c1.1-1.7,2.2-3.3,3.5-4.9v-0.3
			c6.1-15.7,22.3-25.6,27.9-41.4c2.5-7.1,5.2-14.9,5.5-22.6c0.2-7,3.8-14.4,6.1-21c1.2,4.2,2.6,9.1,3.6,12.3c3,10-5.2,21.2-0.9,31.3
			c1.5,3.6-1.3,7.6-1.5,11.4c-0.3,6.5,0.8,13.1,0.4,19.7c-0.2,2.7-2.9,5.5-3.5,8.3c-1,4.8-1.2,9.6-2.2,14.4
			c-1.8,8.7-2.1,17.3-0.8,26.1c2.2,15.2,4.3,30.3,6.7,45.5h3c-2.3-14.6-4.3-29.3-6.4-43.9c-1.3-9.2-1.4-17.9,0.5-27
			c1-4.9,1.2-10,2.3-14.8c0.7-3,3.2-5.3,3.4-8.4c0.4-5.5-0.4-11.1-0.4-16.6c0-4.4,2.9-9.8,2-13.8c-1.1-5.1-1.2-9.2-0.8-14.5
			c0.5-6.3,3.1-12.2,1.2-18.5c-1.2-4.1-2.4-8.3-3.6-12.4c-0.6-2.1-0.8-7.4-2.9-8.5l-3.2-1.8c0.6,2,1.1,4,1.7,5.9
			c-1,7.8-6,14.9-7.4,22.6c-1.7,8.7-2.4,16.8-5.5,25.4c-3.3,9.3-11.1,17.1-17.2,24.5c-5.4,6.6-9.2,14.4-13.8,21.5
			c-1.9,3-5.3,10-4.3,15.2c0.8,3.8,3.4,6.8,3.3,10.8c0,3.3,0.2,8-0.7,11.1c-0.8,3-3.2,8.2-2.7,11.3c0,0.1,0,0.1,0,0.2
			c-0.1,0-0.4,0-0.7-0.2c-0.7-0.3-0.9-0.9-0.9-0.9l-0.3-1.1c-1.1,0.1-2.1-0.1-3.2-0.4c-1.6-0.5-3-2.5-4-3.8c1.5,1.1,3.2,3,5.1,3.3
			l1.8,0.3c-0.3-3.2,0.4-6.9,1.2-10c-0.2-1.2-0.6-2.9-1.6-3.8c-0.5-0.5-1.1-0.6-1.7-0.5c-2.1,0.5-3.5,5-3.5,5
			c-0.5,1.8-1.3,3.5-2.1,5.2l0.7,0.4l-1,2c-0.4,0.9-0.3,2.3,1,3.3c0.7,0.6,1.2,1.7,1.5,2.5c0.8,0.1,1.5,0.3,2.2,0.6
			c0.7,0.3,2.5,1.2,3.6,2.9c0.5,0.7,0.5,1.3,0.4,1.7c-0.2-0.3-0.6-0.7-1-1.1c-2.7-2.4-6.9-3.8-10.2-5.3c2.4,3.1,4.8,6.4,7.7,9
			c1.4,1.3,2.4,3.7,2.2,5.3c-0.1,0.4-0.1,0.7-0.2,0.9c-2.8-1.4-3.6-5.8-6.5-7.6l-3.6-2.3c1,2.8,2.1,5.6,2.6,8.5
			c0.3,1.7,0.1,3.3-0.1,3.8c-0.5,0.1-0.9,0.1-1.1,0.1c-1-3.1-2.3-5.9-2.8-9.1c-0.2-1.4-0.3-8.3-1.4-9.1l0.2-1.1l-0.9-0.6
			c0,0-0.7-0.4-0.9-1.4c-0.9-4.1-1.8-8.1-3.3-12.1c-1.2-3.3,1-8.8,1.8-12c1.4-5.8,2.2-12.3,4.5-17.8c2-4.7,4.7-9,6.2-13.9
			c1.7-5.5,2.5-11.3,3.3-16.9c1.6-11.1,5-19.8,9.6-29.9c2.2-4.7,3.6-9.5,6.5-13.9c2.7-4.2,7.8-8.9,8.3-14c1.8-17.3,8.6-34.1,7-51.5
			c-0.7-7.8,3.3-18.5,6.3-23.3c2.1-3.4,6.3-5.4,9.8-7.1c1.9-1,3.3-2.2,5.1-3.3c2.3-1.5,4.7-1.2,6.7-3.2c7.3-7.1,19-8.6,25.7-15.9
			c2.5-2.7,1.6-7.5,0.1-11.9c-3-3.9-4.7-8.4-5.8-14c-0.1,0-0.2,0.1-0.3,0.1c-3,0.9-5.2-6-5.8-7.8c-1.5-4.8-1.2-9.2,0.5-9.7
			c0.1,0,0.3-0.1,0.4,0c-1.7-8.9-2.7-21,2.6-28.9c5.3-8,15.2-12,24.5-12s19.2,4,24.5,12c5.5,8.2,3.9,19.9,1.3,28.9
			c0.2,0,0.4,0,0.6,0c1.7,0.5,2.1,4.8,0.9,9.7c-0.5,1.8-2.4,8.5-5.3,8c-0.3,1.6-1.5,4.2-2,5.7l0.5,3.4l0,0c0.2,1.8,0.8,7.9,1.7,10.6
			c1.3,3.8,4.5,5.5,8.1,7.5c7.5,4,15.1,7.4,22,12.2c2.8,1.9,8.3,3.1,11.6,4.1c4.3,1.4,9.4,2.8,12.2,6.6c3.8,5,4.7,12.6,5.5,18.6
			c0.7,5.1-1,13.5,1.6,17.8c0.3,0.5,0.7,1.1,1.1,2.6c2.5,8,3.2,17.1,3,25.4c-0.2,8.9-3.5,18.8-2.1,27.6c0.9,5.5-6.5,9.3-8.6,13.4
			c-2.9,5.6-7,11.2-11.7,15.4c-4,3.5-7.5,5.5-9.5,6.5c-1.1-5.9-0.5-10.2-0.5-16.1c0-4.9-1.5-9.5-2.9-14.1l0.4-1.3
			c0.7-2.5,7-12.7,10.3-12.7l1.6-0.5c-2.4-4.8-3.1-10.3-3.6-15.5l-3,0.1c0,0,0,2.4-0.7,5.7c-1.2,5.8-5.7,10.9-7.7,16.6
			c-2.2,6.2-0.5,12,1.2,18.1c1.5,5.4-0.7,10.3-0.1,15.6c0.4,3.9,1.4,7.5,1.5,11.6c0.1,8.8-0.8,18.1,3.8,26c4.8,8,6.9,16.9,8.6,26
			c3.2,17.2,4,58.5,4,58.9h3c0-1.6-0.8-42-4-59.5c-1.7-9.4-4-18.7-8.9-27c-4.9-8.3-3.1-18.9-3.5-28.2l0.1,0c0.2-0.1,5.6-2,12.1-7.8
			c4.3-3.8,7.8-8.6,10.8-13.5c2.5-4.1,5.6-7.2,8.3-11.1c2.7-3.8,1.8-7.5,2.2-11.9c0.5-5.8,1.3-11.5,1.8-17.3
			C8.4,241.9,7.8,230.8,4.7,221C4.1,219.2,6.3,226.1,4.7,221z M-26.1,264.3c1-2,2-3.8,2.7-5.4c0.4,1.7,0.8,3.4,1.3,4.8
			c-3.4,2.2-5.9,5.7-8.1,9.1C-29.2,270.2-27.6,267.1-26.1,264.3C-25.1,262.3-27.6,267.1-26.1,264.3z"/>
	</g>
	<g>
		<path class="st0" d="M288.3,428.4h-3.9c0-0.1,3.1-9,4.5-19.8c1.1-9-4.8-19.4,0.2-27.9c4.8-8.2,14.5-12.1,16.1-22.2
			c1-6.4,1.5-15.9-2-24.6c-2.1-5.3-8.5-8.2-9.6-13.9c-2.1-11.1-2.3-28.4,4-40.9c5.9-11.8,14.7-24.3,14.7-37.9v-2.6h0.1
			c0.7-7.3,5.1-14,5.1-21.4c0-4.5-1-9.1-1.9-13.5c-2.2-11-4.8-24.3-11.6-33.6c-4.9-6.7-11.4-11.9-17-17.9c-1.4-1.5-2-2.3-2.9-6.4
			c-0.8-4.1,0.9-7.2,2.5-9.9c3.6-6.4,8.1-13.1,9.5-20.3c1.9-9.6-0.5-20-6.4-27.8c-11.6-15.5-40.5-16.5-53.1-1.3
			c-4.3,5.3-5.7,12.3-4.1,21.1c0.3,0.8,1.4,3.6,1.2,5.9c-0.3,2.7-1.9,5.2-2.7,7.8c-0.3,1-2.8,6-2.5,6.7c0.5,1,3.1,1.2,3.9,1.2
			c0.5,0.1,1,0.4,1.3,0.8c1.2,1.6,0,4.2-0.1,5.9c0,0.2,0,0.4,0.1,0.5c0.2,0.2,0.5,0.2,0.6,0.2h5.8l-5.1,2.8
			c-0.2,0.1-0.6,0.5-0.4,1.1c0.1,0.1,0.5,0.3,0.8,0.4c0.7,0.3,2.4,1.1,2,3c-0.3,1.7-3,3-2.4,4.8c2,7.1,10.8-0.2,12.5,7.3
			c0.5,2.2,1.2,4.1,2.3,6c1.2,2.1,2.4,4.2,1.6,8.3c-1.4,7.2-7.8,14.4-14.5,21.9c-10.6,11.9-21.5,24.2-14.1,37.7
			c3.9,7.1-1.5,16.5,0.2,24.1c1.4,6.2,3.8,12.1,4.9,18.3c1.5,8-4.6,15.1-5.3,23c-0.6,7.6-1.7,15.1-2.8,22.6
			c-1,7.4,2.7,14.4,2.8,21.8c0.5,1.2,1.1,2.6,1.7,3.9c3.8,8.4,8.4,18.8,2.3,25c-1.8,1.8-2.7,4.2-2.6,6.9c0.1,3.6,2,7.3,4.9,10
			c3.2,2.8,2.3,6.6,1.2,11c-2.7,10.6-0.9,21.1,1.1,31.7h-3.7c-1.1-5.5-1.6-11.2-1.8-16.8c-0.2-4.7-0.1-9.2,1-13.8
			c0.6-2.7,2.8-7.5,0.2-9.8c-3.6-3.2-5.8-7.7-6-12.1c-0.1-3.5,1.1-6.7,3.4-9.1c4.7-4.7,0.7-13.7-2.9-21.7c-0.7-1.5-1.3-3-2-4.5
			c0-7.8-3.9-14.9-2.8-22.8c1-7.4,2.1-14.9,2.7-22.4c0.6-7.4,6.7-14.9,5.3-22.2c-1.2-6.2-3.5-12.1-4.9-18.2c-1.6-7,3.6-17,0.1-23.4
			c-8.5-15.3,3.7-29,14.4-41.2c6.4-7.2,12.5-14.1,13.8-20.5c0.6-3-0.6-4.9-2-7.5c-1.1-2-1.1-5.5-2.4-7.2c-0.6,0-1.2,0-1.8,0.1
			c-5.2,0.6-8.7-0.2-10.2-5.6c-0.7-2.5,0.7-4.2,1.7-5.4c0.1-0.1,0.3-0.3,0.4-0.5c0,0-0.1,0-0.1,0c-0.8-0.4-2-0.9-2.4-2.3
			c-0.3-1-0.2-1.9,0.1-2.6c-0.1-0.1-0.2-0.2-0.3-0.2c-0.5-0.5-1-1.3-1-2.6c0-1.3,0.3-2.5,0.5-3.8c-2.3-0.4-4.4-0.8-5.3-2.7
			c-1-1.9,0.1-3.5,0.9-4.7c1.7-2.6,3.6-8.4,3.9-11.5c0.2-1.6-0.5-3.4-1.1-4.8c-1.9-9.7-0.3-17.7,4.7-23.7
			c8.6-10.4,26.9-13.9,39.6-10.8c15.7,3.9,25.9,19.3,25.8,35c0,6.6-2.1,13.1-5,19c-2.5,5-8.8,11.6-7.7,17.5c0.7,3.4,1,3.7,2.1,4.9
			c5.7,6.1,12.2,11.4,17.2,18.2c7.5,10.1,10.3,24.8,12.6,36.9c1,5.4,2.1,11.1,1,16.6c-1.6,7.6-4.9,14.1-4.7,22h-0.1
			c-1.2,13.3-9.1,25-14.9,36.6c-5.9,11.9-5.7,28.4-3.7,39c1,5.2,7.5,8.4,9.5,13.4c3.7,9.3,3.2,19.4,2.2,26.2
			c-1.7,10.8-11.4,14.5-16.5,23.2c-4.5,7.7,1.2,18.4,0.2,26.7C290.4,420,288.4,428,288.3,428.4C288.3,428.4,288.4,428,288.3,428.4z"
			/>
	</g>
</g>
<path id="gall_bladder" class="st0" d="M-95.4,268.9c0,4.8-9.3,10.5-16,10.5s-7-6-8.4-10.5c-2.8-8.6,5.5-8.6,12.2-8.6
	C-100.8,260.3-95.4,264.1-95.4,268.9z"/>
<path id="spleen" class="st0" d="M-42.4,259.3c0,0,3.2-1.4,4.9,1.6c1.7,3,2.2,9.1,1.2,11.8c-1,2.7-2.6,7.1-2.7,9.3
	c-0.2,2.2-3.5,3.2-4.3,0.7c-0.8-2.6-1.4-8-2.8-10.3c-1.4-2.3,2.8-4.4,3.3-7.1C-42.2,262.6-42.4,259.3-42.4,259.3z"/>
<path id="muscle" class="st0" d="M-26.2,394.5c-1-3.3-3.2-4.8-7.3-9.5c-5.6-6.4-9.4-15.7-10.7-25.1c-1.2-8.6,1.9-19.4,1.9-19.4
	s0.2,0,0.5-0.1c-0.4,2.3-1.3,8.6-0.6,11.5c0.9,3.6,2.8,12.6,2.8,12.6L-41,352l3.4,11.4l-1.9-13.9l4.2,11.4l-2.7-15.6l5.2,11.1
	l-3.6-14.6l4.5,7.9l-2.8-10.3l3.4,3.3l-1.6-7.1l2.1,4.1V334c1.2,0.8,1.1,3.5,1.4,4.8c0.7,3.3,1.9,6.6,3.1,9.8
	c1.2,3.3,2.6,6.5,3.6,9.8c2.6,8.5,5.8,19.2,4.9,28l-2.7-7.6v8.4l-3.7-7.3l2.2,9.2l-3.9-6.2l1.6,7.4l-3.3-4.2
	C-27.1,388.9-26.6,391.7-26.2,394.5C-27.3,391.2-26.2,394.5-26.2,394.5z M-56.9,352.3c1.8,14.1-2.3,28.8,0.8,42.6
	c2.3,10.4,6.3,26.1,13.9,33.4H-25c0,0,1.2-12.3-1.9-24.4c-1.5-5.8-4.3-13.2-4.3-13.2l2.7,23.7l-6.3-26.9l2.9,26.9l-6.5-32.1
	l2.2,28.9l-6-35.2l1.2,27.6l-3.9-31.6l-0.9,26.1l-3.2-30.7v23.7l-3.7-41L-56.9,352.3L-56.9,352.3z M-25,399.9c0,0,3.8,10,3.3,28.4
	h6.2c0,0,0.4-12.9-2.6-20.2c-0.7-1.4-8-11.5-8.1-11.4C-26.5,397.5-25.4,399.4-25,399.9L-25,399.9z M-64.8,375.6
	c-6.9,5.7-6.6,18.6-3.2,26.2c2,4.5,5.2,8.6,7.3,13.1c2,4.4,3,9.1,5,13.5h7.9c-5-7.2-7.7-16.4-9.3-25l1.2,12
	c-2.8-8.4-3.9-17.5-4.5-26.3c-0.5,7.2-0.4,14,0.9,21.1c-2-10-3.3-19.5-2.8-29.7c-2.9,5.2-0.2,11.2-2.6,16.2
	c-2.4-5.4-2.9-14.3,1.4-19L-64.8,375.6L-64.8,375.6z"/>
<path id="pancreas" class="st0" d="M265.5,259.1c3.2,0.7-2.4,8.5-3,9.8c-0.5,1.1,0.5,1.7-0.8,2.8c-1,0.7,0.5,0.9,0.1,2.1
	c-0.6,1.8,0.1,5.2-1.5,6.5c0.5,1.2,0,3-0.9,3.7c0.4,5.1-9.1,2.9-6,0.6c-1.7-2.9,1.9-6.3,1.4-9.1c-0.3-1.5,2-6.9,3.2-7.6
	C255.5,266.7,264.1,259.9,265.5,259.1C267,259.5,265.5,259.1,265.5,259.1z"/>
<path id="urine" class="st0" d="M-59.5,355.7c-2,4.2-9.1,11.5-11.6,12.2c2.1,4.6,2.5,10,2.5,10.2c0.1,0.8-0.6,1.5-1.4,1.6
	c0,0-0.1,0-0.1,0c-0.8,0-1.4-0.6-1.5-1.4c0-0.1-0.6-7.1-3.4-11.3c-5.1-1.7-13.3-5.5-14.5-9.1c-2.4-6.9,7.2-8.9,16.1-8.9
	C-64.6,349-56.3,348.9-59.5,355.7z M233.9,358.1c2.6,3.8,10.3,9.3,10.3,9.3c1.3,1,1.4,2.4,0.2,3.2c-1.1,0.7-5.3,1-8.6,2.4
	c-2.9,1.3-4.4,3-4.4,3l0.9,0.6c0,0,3.4-2.1,7.7-2.8c4.6-0.7,5.5-1.4,6.5-2.5c1.6-1.7,1.9-2.6,5.4-3.2s5.8-2.2,6.5-4.7
	s1.5-11.3-0.8-13.3c-2.3-2-2.2-2.3-12.7-2.4c-10.4-0.1-12.8,2.4-13.3,4.3C231.7,352.1,231.7,355,233.9,358.1z"/>
<path id="saliva" class="st0" d="M-77.6,141.6c-0.7,1.9-2.8,2.6-5,2.6s-4.5-0.4-4.7-2.6c-0.1-1.8,1.2-2.1,2.3-0.9
	c0.5,0.6,1.5-1,2.4-0.9c1,0.1,2.2,0.9,3,0.5C-78.3,139.7-77.2,140.4-77.6,141.6z M-96,130.2c-0.8-1.3,0.4-3.6,0.1-5.4
	c-0.3-1.7-0.1-3.3-0.6-4.4c-0.5-1.2-0.5-2.9-3.1-2.2c-2.5,0.7-1.4,3.5-0.6,7.3c0.8,3.8,2.4,9.2,4,8.5
	C-94.9,133.6-95.4,131.2-96,130.2z M-68.1,135.1c1.7,0.8,2.9-4.5,3.4-8.2c0.6-3.7,1.5-6.4-1.1-7.4c-2.6-0.9-2.5,0.8-2.9,1.9
	c-0.4,1.1-0.2,2.7-0.3,4.4c-0.1,1.8,1.2,4.2,0.5,5.4C-69.1,132.2-69.4,134.5-68.1,135.1z M-94.2,137.5c-1.1,0.5,0.2,1.6,1.3,4.2
	c1.1,2.5,2.6,3.1,3.6,2.6c1.1-0.5,0.6-1.1-0.5-3.6C-90.9,138.1-93.1,137-94.2,137.5z M-75.4,140.6c-1.1,2.5-1.6,3.2-0.5,3.6
	c1.1,0.5,2.5-0.1,3.6-2.6c1.1-2.5,2.4-3.7,1.3-4.2C-72,137-74.3,138.1-75.4,140.6z M242,146.2c-1.3,0.5-4.4-1.7-4.6,0.4
	c-0.1,1,0.4,3.3,3,3.3c2.5,0,6.2-2.4,6.2-3.4C246.6,145.4,245,145,242,146.2z M249.7,145.4c-2.3,1-4,3.6-3.7,4.5
	c1.1,3.2,4.1,0,6.1,0.6c2.4,0.7,3.5-3.7,3.1-4.6C254,143.2,252,144.4,249.7,145.4z M254.6,126c-1.4,2.4-0.8,3.2,0.6,8.4
	c1.4,5-0.7,9.5,1.9,9.1c2.6-0.4,6.3-4.2,5.6-10.3c-0.6-5.3-0.8-13.5-5.7-8.2C256.8,125.2,255.2,124.9,254.6,126z"/>
<path id="lymph_nodes" class="st0" d="M-119.6,184.6c-0.1,0.7-0.4,1.3-0.7,1.8c-0.4,0.7-0.9,1.4-1.4,2c0,0.2,0,0.4,0,0.6
	c0,0.7-0.1,1.4-0.2,2c-0.2,1.4-0.5,2.7-1.1,4c-0.6,1.3-1.4,2.5-2.4,3.5l-0.4,0.3c-0.1,0.1-0.2,0.2-0.3,0.3c-0.2,0.2-0.3,0.4-0.4,0.7
	c-0.2,0.5-0.3,1-0.4,1.6c-0.2,2.4,0.5,4.9,1.2,7.4l0.2,1c0.1,0.4,0.1,0.7,0.2,1.1c0.1,0.7,0,1.4-0.1,2.1c-0.3,1.4-0.8,2.6-1.7,3.8
	l0-0.1c-0.4,0.6-0.7,1.3-1,1.9c0.7,0.7,0.8,2.3,0.1,4c-0.7,1.7-1.9,2.9-3,3.1c-0.2,0.6-0.3,1.3-0.3,1.9c0,0.4,0,0.7,0.1,1.1
	c0,0.2,0.1,0.3,0.2,0.5c0.1,0.2,0.2,0.3,0.3,0.5c0.3-0.4,0.6-0.7,1.1-0.8c1.1-0.1,2.1,1.4,2.3,3.3c0.2,1.9-0.5,3.5-1.6,3.6
	c0,0,0,0-0.1,0c-0.2,1.1-0.6,2.1-0.8,3.1c0.7,0.4,1.3,1.4,1.5,2.6c0.2,1.4-0.1,2.6-0.7,3c0.5,1.1,1.1,2.2,1.7,3.2
	c0.9,1.3,2.1,2.4,3.5,3.2c-1.4-0.8-2.7-1.8-3.6-3.1c-0.7-1-1.3-2.1-1.8-3.1c-0.1,0.1-0.2,0.1-0.4,0.1c-1,0.1-2-1.1-2.3-2.8
	c-0.3-1.7,0.3-3.2,1.3-3.3c0.1,0,0.3,0,0.4,0c0.2-1,0.6-2,0.7-3c-0.9-0.4-1.6-1.6-1.7-3.2c-0.1-0.8,0-1.5,0.2-2.1
	c-0.1-0.1-0.1-0.2-0.2-0.3c-0.1-0.1-0.2-0.3-0.4-0.5c-0.1-0.2-0.2-0.4-0.3-0.6c-0.1-0.4-0.2-0.9-0.2-1.3c0-0.7,0.1-1.4,0.2-2
	c-1-0.5-1.2-2.3-0.4-4.2c0.7-1.8,2.1-3.1,3.2-3.1c0.3-0.7,0.7-1.4,1-2l0,0l0-0.1c0.7-1,1.2-2.2,1.4-3.4c0.1-0.6,0.1-1.2,0-1.8
	c0-0.3-0.1-0.6-0.2-0.9l-0.3-0.9c-0.7-2.5-1.6-5.1-1.4-7.9c0.1-0.7,0.2-1.5,0.5-2.2c0.1-0.4,0.3-0.7,0.6-1c0.1-0.2,0.2-0.3,0.4-0.5
	l0.3-0.4c0.8-0.8,1.5-1.9,1.9-3c0.5-1.1,0.7-2.3,0.9-3.5c0,0,0,0,0-0.1c-1,1-2.1,2.1-3.1,3.1c-0.1,0.1-0.2,0.2-0.2,0.2
	c0.1,0.8,0,1.7-0.3,2.7c-0.7,2.4-2.2,4.1-3.4,3.8c-0.5-0.1-0.8-0.6-1.1-1.3c-1,1.3-1.9,2.8-2.2,4.3c0,0,0,0.1,0,0.1
	c0.1,0.3,0.2,0.6,0.3,0.9c0.6,2.2,0.3,4.2-0.8,4.5c-0.2,0-0.4,0-0.6-0.1c-0.1,0.3-0.2,0.6-0.4,0.9c-0.5,1-1.3,1.9-2.1,2.7
	c-0.3,0.3-0.7,0.6-1,1c0.1,0.5,0.1,1.1,0.1,1.8c-0.2,2-1.1,3.5-2.1,3.4c-0.2,0-0.3-0.1-0.5-0.2l-0.7,2.2c-0.3,1-0.6,2-0.8,3.1
	c-0.2,1-0.1,2.1,0.1,3.2c-0.3-1-0.4-2.1-0.3-3.2c0.1-1.1,0.3-2.1,0.5-3.2l0.6-2.8c-0.4-0.7-0.6-1.8-0.5-2.9c0.2-2,1.1-3.5,2.1-3.4
	c0.4,0,0.8,0.4,1,0.8c0.2-0.2,0.4-0.4,0.5-0.6c0.7-0.8,1.3-1.5,1.7-2.4c0.2-0.4,0.3-0.8,0.4-1.3c-0.5-0.6-0.9-1.5-1.2-2.5
	c-0.6-2.2-0.3-4.2,0.8-4.5c0.5-0.1,1,0.1,1.5,0.6c0.6-1.7,1.7-3.1,2.7-4.5c0.2-0.3,0.5-0.6,0.7-0.8c0-0.3,0.1-0.6,0.2-0.9
	c0.7-2.5,2.2-4.1,3.4-3.8c0.2,0,0.3,0.1,0.5,0.3c1.3-1.4,2.7-2.8,3.9-4.2c0.1-0.2,0.3-0.3,0.4-0.5c0-0.1,0-0.2,0-0.4l0.2,0
	c0.4-0.5,0.8-1,1-1.6c0.2-0.4,0.4-0.8,0.4-1.1c0-0.2,0-0.3,0-0.4c0-0.1,0-0.1,0-0.2c0,0,0,0,0-0.1l-0.1-0.2l2.2-1
	c0,0.1,0.1,0.2,0.2,0.5c0.1,0.2,0.1,0.4,0.1,0.6C-119.5,183.8-119.5,184.2-119.6,184.6z M-92.9,150.3c1.2-1.8,1.3-3.6,0.4-4.2
	c-0.5-0.3-1.1-0.2-1.8,0.2c0-0.6-0.1-1.2-0.3-1.7c-0.4-1.2-1-2.2-1.8-3.2c0.2-0.6,0.3-1.4,0.3-2.3c0-2.4-1-4.4-2.2-4.4
	c-1.2-0.1-2.2,1.8-2.2,4.2c0,2.4,1,4.4,2.2,4.4c0.2,0,0.4,0,0.6-0.1c0.5,0.6,1,1.3,1.3,2c0.2,0.5,0.3,1,0.4,1.5c0,0.4,0,0.8,0,1.2
	c-0.1,0.1-0.1,0.2-0.2,0.3c-1.1,1.8-1.3,3.6-0.4,4.2c0.2,0.1,0.3,0.1,0.5,0.1c0.2,1.3,0.7,2.5,1.3,3.5c0.1,0.2,0.3,0.5,0.4,0.7
	c-0.8,0.2-1.6,1.4-1.9,2.9c-0.4,1.8,0.1,3.5,1.1,3.7c0.7,0.2,1.5-0.5,2-1.7c0,0.4,0,0.9,0,1.3c0,2.5,0.4,5.1-0.8,7.3
	c0.7-1,1.1-2.3,1.3-3.5c0.1-1.3,0.2-2.5,0.2-3.8c0.1-1.2,0.2-2.5,0-3.8c-0.2-1.3-0.7-2.6-1.3-3.7c-0.6-1.1-0.9-2.2-1-3.3
	c0,0,0-0.1,0-0.1C-94.1,151.8-93.4,151.1-92.9,150.3z M-63.3,163.2c-0.5-1-0.9-2-1.4-3c0.2-0.6,0.2-1.3,0.1-2
	c-0.2-1.1-0.7-2-1.3-2.5c0.1-0.8,0.3-1.5,0.6-2.3c0.1-0.3,0.2-0.6,0.3-1c0.9-0.3,1.6-1.8,1.4-3.5c-0.2-1.9-1.2-3.4-2.3-3.3
	c-0.3,0-0.6,0.2-0.8,0.4c-0.3-0.5-0.5-0.8-0.6-1.2c-0.1-0.4-0.1-0.9,0-1.4c0.1-0.4,0.2-0.8,0.4-1.1c1-0.4,1.9-1.5,2.5-3
	c0.8-2,0.5-4-0.6-4.3c-1.2-0.3-2.8,1-3.6,3.1c-0.6,1.4-0.6,2.7-0.2,3.6c-0.2,0.5-0.3,1-0.4,1.5c-0.1,0.7,0,1.5,0.2,2.2
	c0.2,0.7,0.7,1.3,1.1,1.7c0.1,0.2,0.3,0.4,0.4,0.5c-0.1,0.5-0.1,1-0.1,1.6c0.1,1.4,0.7,2.5,1.4,3c-0.1,0.3-0.1,0.6-0.2,0.9
	c-0.2,0.7-0.4,1.5-0.5,2.3c0,0,0,0-0.1,0c-1,0.1-1.5,1.6-1.3,3.3c0.3,1.7,1.3,2.9,2.3,2.8c0.3,0,0.6-0.3,0.9-0.6
	c0.4,0.9,0.9,1.7,1.4,2.5c0.7,1,1.7,1.7,2.8,2.3C-61.8,165-62.7,164.3-63.3,163.2z M267.8,135.4c-1-0.6-3,0.3-4.3,2
	c-0.9,1.2-1.3,2.5-1.1,3.4c-0.3,0.4-0.6,0.8-0.8,1.3c-0.3,0.7-0.4,1.4-0.3,2.2c0,0.7,0.4,1.5,0.6,2c0.1,0.2,0.2,0.4,0.2,0.6
	c-0.2,0.4-0.4,1-0.5,1.5c-0.2,1.3,0,2.6,0.5,3.3c-0.1,0.3-0.3,0.5-0.5,0.8c-0.4,0.6-0.8,1.3-1.1,2.1c0,0,0,0-0.1,0
	c-1-0.1-1.9,1.1-2.1,2.8c-0.2,1.7,0.5,3.2,1.5,3.3c0.3,0,0.7-0.1,1-0.3c0.2,0.9,0.4,1.9,0.7,2.8c0.4,1.2,1.2,2.1,2.1,2.9
	c-0.8-0.9-1.5-1.9-1.8-3c-0.3-1.1-0.4-2.2-0.5-3.3c0.3-0.5,0.5-1.2,0.6-1.9c0.1-1.1-0.2-2.1-0.6-2.7c0.3-0.7,0.7-1.4,1.2-2
	c0.2-0.3,0.4-0.6,0.6-0.9c1,0,2-1.3,2.3-3.1c0.3-1.9-0.3-3.6-1.3-3.8c-0.3-0.1-0.6,0-0.9,0.2c-0.2-0.5-0.3-0.9-0.3-1.3
	c0-0.5,0.1-0.9,0.3-1.3c0.2-0.3,0.4-0.7,0.7-1c1-0.1,2.3-0.9,3.2-2.2C268.6,138,268.8,136.1,267.8,135.4z"/>
<path id="thyroid_gland" class="st0" d="M-73.3,163.4c-0.2,2.9-1.6,5.3-3,5.2c-0.3,0-0.6-0.1-0.8-0.3c0,0-2-0.7-3.6-0.5
	c-0.9,0.1-1.7,0.4-2.2,0.6c-0.2,0.6-0.6,0.9-1.1,1c-1.4,0.3-3.3-1.7-4.1-4.5c-0.9-2.8-0.4-5.3,1-5.6c1.4-0.3,3.1,1.5,4,4.1
	c0.5,0.2,1.1,0.2,1.9,0.1c1.2-0.1,2.1-0.4,2.7-0.7c0.3-2.7,1.6-4.9,3-4.9C-74.1,158.1-73.1,160.5-73.3,163.4z M253.6,160.3
	c-1.8,0.5-2.6,3.1-1.8,5.8c0.7,2.7,2.8,4.6,4.5,4.1c1.8-0.5,2.6-3.1,1.8-5.8C257.4,161.6,255.3,159.8,253.6,160.3z"/>
<path id="eye" class="st1" d="M-87.5,114.9c0,0-2.9,3.7-6.5,3.7c-3.6,0-6.5-3.7-6.5-3.7s2.9-3.7,6.5-3.7
	C-90.4,111.2-87.5,114.9-87.5,114.9z M-91.3,114.9c0-1.5-1.2-2.8-2.8-2.8c-1.5,0-2.8,1.2-2.8,2.8c0,1.5,1.2,2.8,2.8,2.8
	C-92.5,117.6-91.3,116.4-91.3,114.9z M-93.3,114.9c0,0.4-0.3,0.8-0.8,0.8c-0.4,0-0.8-0.3-0.8-0.8s0.3-0.8,0.8-0.8
	C-93.6,114.1-93.3,114.4-93.3,114.9z M-70.5,111.2c-3.6,0-6.5,3.7-6.5,3.7s2.9,3.7,6.5,3.7s6.5-3.7,6.5-3.7S-66.9,111.2-70.5,111.2z
	 M-67.7,114.9c0-1.5-1.2-2.8-2.8-2.8c-1.5,0-2.8,1.2-2.8,2.8c0,1.5,1.2,2.8,2.8,2.8S-67.7,116.4-67.7,114.9z M-69.7,114.9
	c0,0.4-0.3,0.8-0.8,0.8c-0.4,0-0.8-0.3-0.8-0.8s0.3-0.8,0.8-0.8S-69.7,114.4-69.7,114.9z M235.4,111.2c-3.6,0-3.6,7.4,0,7.4
	c3.6,0,6.5-3.7,6.5-3.7S239,111.2,235.4,111.2z M237.3,114.9c0-1.5-1.2-2.8-2.8-2.8c-1.5,0-2,1.2-2,2.8c0,1.5,0.4,2.8,2,2.8
	C236,117.6,237.3,116.4,237.3,114.9z M235.3,114.9c0,0.4-0.3,0.8-0.8,0.8c-0.4,0-0.8-0.3-0.8-0.8s0.3-0.8,0.8-0.8
	C234.9,114.1,235.3,114.4,235.3,114.9z"/>
<path id="kidney" class="st0" d="M-55.3,308.9c-8.9,0-9.5-6.7-5.2-12.8c1.3-1.8-2.1-4.4-2.3-6.8c-0.3-6.2,2.3-5.2,2.5-7.1
	c0.4-3.6-4.1-5.6-0.5-9.6c2.2-2.4,7.6-3.2,10.1-2.3c4.9,1.8,9.1,9.1,9.3,19.3C-41,299.6-48.9,308.9-55.3,308.9z M-99,307.9
	c8.9,0,9.5-6.7,5.2-12.8c-1.3-1.8,2.1-4.4,2.3-6.8c0.3-6.2-2.3-5.2-2.5-7.1c-0.4-3.6,4.1-5.6,0.5-9.6c-2.2-2.4-6.9-2.7-9.4-1.8
	c-4.9,1.8-9.8,8.6-10,18.8C-113.3,298.6-105.4,307.9-99,307.9z M265.5,310.4c2.9,0.2,7.7-4.7,8.7-8.6c1-3.9,4.2-7.8,3.8-11.8
	s-1.1-5.7-0.6-7.7s6.1-8,0.6-9.2c-5.4-1.2-11.7-1.2-12.4,4.3c-0.7,5.5-1.7,4.7-2.3,9.5s1.2,9.7,0,13.9c-1.2,4.1-1.5,6.8-0.1,8.5
	S265.5,310.4,265.5,310.4z"/>
<path id="adrenal_gland" class="st0" d="M272.9,266.7c1.5,0,1.9,1.6,3.7,3c1.5,1.1,3.5,0.9,3.8,2.7c0.4,1.8-0.7,1.2-4.9,0.6
	c-4.2-0.5-8.8,1.4-9.2,2.1c-0.4,0.8-2,0.7-1.4-2.1c0.5-2.8,3.5-2.5,4.7-4.6C270.6,266.7,272.9,266.7,272.9,266.7z"/>
<path id="bone_marrow" class="st0" d="M-22.1,204.3c3-1.2,3.4,1.5,4,4.7c0.7,3.7,2.6,14.1,3.6,17.9c1,3.8,3.7,17.4,5.5,24.1
	c0.7,2.6,2.5,8.1,3.8,10.4s1.9,8.8-1.1,6.5c-3-2.3-4.6-3.6-4.1-8.4c0.5-4.8-2.6-12.7-3.7-17.1c-1-4.2-2.6-11.4-3.9-17.1
	c-1.3-5.7-4.7-15.4-5.4-16.6C-24.2,207.5-25.2,205.4-22.1,204.3z M254.1,428.4l3.1,0.1c0,0,0.4-1.6,0.5-3.6s3.1-32.5,3.6-37
	c0.4-4.5-2.9-2.8-3.6,1.5c-0.6,4.2-3.6,37-3.6,37V428.4L254.1,428.4z"/>
<path id="stomach" class="st0" d="M257.1,258c0.5,5.3-1.1,10.6-2.6,14.1s-3.3,5.8-6.7,9.9c-3.4,4.1-12.4,3.6-14.3,2.9
	c-1.9-0.7-1.1-5.7,0-10.1s6.3-12.1,10.2-16.2s6.7-5.8,11.1-5.5C254.8,253,256.7,252.7,257.1,258z M-91.3,226.2l-1.8,3.1
	c0,0-1.3,7.1-0.5,11.9c0.8,4.8-5.7,9.9-11.1,17.3c-3.1,4.3-8,12.7-1.9,19.8c5.9,6.9,12.6,4.7,18.8,6c5.9,1.3,8.5-3.1,20.3-6.7
	c15-4.5,27.2-0.8,27.5-13.3c0.1-3.6,0.1-8.9-7.4-13.9c-7.4-4.9-23.4-4-31.6-4c-11.3,0-10-16.8-10-16.8L-91.3,226.2z"/>
<path id="liver" class="st0" d="M233.2,264.8c-2.5-1.3-5-13.2,0-23.7s12.6-16.5,20.1-16c7.5,0.5,10.9-0.6,15.1,5.7
	c4.2,6.3,6.7,14.3,1.6,17.5s-7.8,3.5-9.7-1.7c-1.8-5.2-3-5.5-2.7-3.2c0.3,2.3,4.4,4.2-1.1,7.2c-5.5,3.1-10,1.4-13.7,5.9
	C236.2,264.8,233.2,264.8,233.2,264.8z M-105.7,263c13.5-3.4,25.7-10.3,39-14.7c4.3-1.4,19.5-2,17.1-10.2
	c-2.8-9.3-16.2-12.1-24.2-13c-14.8-1.6-35.1-3.4-44.2,10.8C-124.9,246.7-121.9,267.1-105.7,263C-99.3,261.4-115,265.4-105.7,263z"/>
<g id="heart">
	
		<ellipse transform="matrix(-0.5173 0.8558 -0.8558 -0.5173 551.4432 113.7428)" class="st0" cx="243.6" cy="212.4" rx="19.7" ry="11.3"/>
	<path class="st0" d="M-97.1,192.9c0,0.2-1.8,2.9,0.3,11.1c1.1,4.2-0.6,9.5,3.3,12.7c4.3,3.6,5,8.6,14.8,11.6
		c8.9,2.8,12.3,2.7,15.5-1.4c3.5-4.5,0.5-9.4-1.7-14.8c-1-2.6-6.2-6.9-5.6-13c0.6-6.1-4.7-6.6-6.7-8.1c-2-1.5-2-10.7,0.6-14.5
		l-7.5,2.8c-1.2,3-2.4,4.4-3,8.6c-0.2,1.4-0.8,2.2-4,2.4C-95.8,190.5-97.1,192.9-97.1,192.9z"/>
</g>
<g id="lung">
	<path class="st0" d="M270.2,169c-5.5,1.3-7.7,5.7-11.5,8c-3.8,2.4-7.9,7.7-11,12.8c-3.1,5.1-7.5,14.5-9.5,20.5s-5,10.6-5.1,15.4
		s-2.2,13.2,0,16.2s12.4,11.6,16.9,11.4s16.5,5.9,22.7,5.2s6-8.9,11.5-11.5c5.5-2.6,4.5-7.4,5.1-14.1c0.6-6.6,3-23.4-1.2-42.4
		C283.9,171.6,270.2,169,270.2,169z"/>
	<g>
		<path class="st0" d="M-93.6,216.6c-3.9-3.2-2.2-8.5-3.3-12.7c-2-8.2-0.3-10.9-0.3-11.1c0,0,0.9-1.6,3.9-2.3
			c-2.4-12.7-8.3-22.5-21.9-8.4c-10.8,11.2-13.7,56.8-5.8,70.5c-0.6-1,2-14.6,8.6-20.3c6.6-5.7,16.3-7.1,19.8-14.6
			C-92.8,217.3-93.2,216.9-93.6,216.6z"/>
		<path class="st0" d="M-32.2,228.4c0.9-8.8-0.4-20.3-4-28.5c-7-16.1-12.8-36.2-35.5-26.8c-3.7,1.8-5.2,7.9-5.8,17.5
			c0.1,0.1,0.1,0.2,0.2,0.2c2,1.5,7.3,2,6.7,8.1c-0.6,6.1,4.6,10.4,5.6,13c2.1,5.4,5.2,10.2,1.7,14.8c-0.8,1-1.5,1.7-2.4,2.2
			c12.9,9.5,27.9,26,29.3,29.5C-25.9,257-32.8,233.9-32.2,228.4z"/>
	</g>
</g>
<path id="intestine" class="st0" d="M268.7,346.7c0-2.5-0.8-3.7-0.8-3.7s0.8-0.6,0.6-2.6c-0.2-2-1.8-2.7-1.8-2.7s2.2-0.8,0.9-2.7
	c-1.3-1.9-2.5-2.4-2.5-2.4c0.7-1.1,1.3-2.5,0.6-3.9c-1.3-2.6-2.4-2.9-2.4-2.9s0.9-2.7,0.6-3.9c-0.3-1.3-1.4-2.2-1.4-2.2
	s0.3-3.7-0.5-4.4c-0.9-0.7-1.7-2.1-1.7-2.1s1.2-2.4,0.9-3.9c-0.3-1.4-1.2-2.4-1.2-2.4s1.3-2.2,0.3-3.6c-1-1.4-2-3-2-3s1.4-1.7-0.3-4
	c-1.7-2.3-2.9-2.7-2.9-2.7s-0.7-4.6-2.5-5.3c-1.8-0.7-2.4-0.6-2.4-0.6c-3-3.7-9.4-1.6-13.3-0.2c-2.6,0.9-6.4,4.7-6.8,7.5
	c0,0-1.6,0.8-2.1,2.6c-0.5,1.8-0.2,3.1-0.2,3.1s-0.6-0.3-1.5,1.3c-0.9,1.6-0.8,3.5-0.8,3.5l-1.2,2.3c0,3.8,1.7,7.2,4.4,7
	c2.7-0.2,3.2-0.4,4.6-0.1c0.6,0.1,1.7-0.6,2.7-1.6c-0.1,0.4-0.2,0.8-0.3,1.2c-0.3,1.1-5.7,1.4-6.8,2.4c-3,3,3.4,3.5,4.6,3.6
	c1,0,2.5-0.2,3.8-0.8c-2.1,1.8-3,4.9-1.4,6c2,1.3,3.7-1,4.1-0.9c-1.3,1.3-1.8,3.4-1.6,5c0.1,0.7,0.3,1.3,0.6,1.8
	c-0.7-0.3-1.5-0.4-2.2-0.4c0.2-2.3-2.4-4.2-2.5-6c-0.4-5.7-7.8-4.5-4.5,1.3c0.8,1.4-2.9,5.9-1.9,9c0.4,1.1,1.2,2,2.2,2.4
	c0.1,0.1,0.3,0.1,0.4,0.1c-0.3,0.4-0.6,0.9-0.7,1.5c-0.1,0.6-0.2,1.7,0.8,3c2.1,2.8,6.6,2.9,9.2,1.2c0.4-0.3,1-0.3,1.3-0.3
	c0.6,0.8,1.5,1.3,2.5,1.3c0.1,0,0.3,0,0.4,0c1.7-0.2,3-1.9,3.6-2.9c0.1-0.2,0.2-0.3,0.2-0.5c1.3,0,2.4-0.7,3.1-1.8
	c1.5-2.8-0.4-7.4-1.1-8.4c-1.2-1.8-3.5-2.2-5.6-2.5c1.7-0.2,3.5,0,5.2-0.6c0.2-0.1,0.5-0.2,0.9-0.5c1,1.3,2.1,1.6,2.1,1.6
	s-2.2,1.1-1.6,2.1c1.7,2.9,1.5,7.9,3.7,10.1c0,0-2.2,0-1.7,1.3c0.4,1.3,1.5,2.1,1.1,2.5c-0.4,0.4-2.2,1.2-1.5,2.7
	c0.9,2.1,1.1,4.5,2.2,6.1c1.3,1.9,4.5,5.6,6.9,5.4c3.4-0.3,5.2-1.4,6.1-3.5c0.9-2,0.9-4-0.5-5.7
	C266.6,349.6,268.8,349.1,268.7,346.7C268.7,344.2,268.8,349.1,268.7,346.7z M236.8,338.6c0.1-0.3,0.3-0.6,0.3-0.9
	c0.2-0.7,0.1-1.4-0.1-1.9c1.2,0.4,2.3,1.1,3.4,1.7C239.2,337.5,237.9,337.9,236.8,338.6C236.9,338.4,237.9,337.9,236.8,338.6z
	 M242.3,310.7c-0.2,0.3-0.5,0.6-0.8,0.8c0.3-0.8,0.5-1.3,0.7-1.6c0.1,0.1,0.2,0.3,0.2,0.4C242.4,310.4,242.4,310.5,242.3,310.7
	C242,311,242.4,310.5,242.3,310.7z M245.5,333.5c0.2,0.3,0.3,0.9,0.5,1.4c-1.1-0.6-2.1-1.2-3.1-1.9
	C243.5,333.1,244.9,333.3,245.5,333.5C245.6,333.9,244.9,333.3,245.5,333.5z M245.4,322.6c-0.4,0-0.8,0-1.3,0.1
	c0.7-0.5,1.4-1,2.1-1.5c0.1,0.4,0.2,0.9,0.3,1.4C246.2,322.6,245.8,322.6,245.4,322.6C245,322.7,245.8,322.6,245.4,322.6z
	 M242.6,317.5c1.1-1.2,2.4-2.1,3.4-3.3c1.3-1.5,1.7-3.4,1.2-5.3c-0.6-2.1-2.3-3.8-4.3-4.4c-1-0.3-2-0.1-3,0.4
	c-0.2,0.1-0.3,0.2-0.5,0.3c0.6-2.7,1.4-5.4,2.7-5.6c1.8-0.2,3.5,1.2,4,1.6c0.4,0.3,1.1-0.4,1.2-0.5c-0.2,0.2-1.4,1.6-0.9,2.8
	c0.5,1.3,1.7,2.1,1.7,2.1s-1.8,1.3-1,2.6c0.8,1.2,2.2,2.6,2.2,2.6s-2.2-0.5-1.6,1.7c0.5,2.2,2.5,4.3,2.5,4.3s-0.3,0.1-0.7,0.3
	c-0.4-0.4-0.8-0.8-1.2-1C246.3,315,244.3,316.3,242.6,317.5C243,317.1,244.3,316.3,242.6,317.5z M-32.1,319.5
	c-0.6-4.7,1.1-10-0.2-14.6c-0.5-2-1.6-3.7-2.5-5.5c-1.8-3.7-6.7-7-10.8-7.4c-0.7-0.1-1.3-0.1-1.9,0c-0.5-0.2-1-0.4-1.5-0.5
	c-1.7-0.4-3.4-0.2-4.9,0.5c-0.2,0-0.5-0.1-0.7-0.1c-1.1-0.1-2.2,0-3.3,0.4c-0.8-0.3-1.7-0.5-2.6-0.6c-1.4-0.2-2.5,0-3.5,0.2
	c-0.9-0.3-1.9-0.6-3-0.8c-1-0.1-2-0.2-2.8-0.1c-1-0.7-2.2-1.3-3.5-1.6c-3.1-0.7-8.5,0.1-11.7,0.7c-0.6,0.1-1.1,0.3-1.6,0.5
	c-0.9-0.3-1.9-0.4-3.1-0.5c-2.2,0-4.8-0.3-6.9,0c-1.6,0.2-3,0.8-4.3,1.6c-0.2-0.1-0.3-0.1-0.5-0.2c-3.5-1-10.9-1.3-14.6-0.5
	c0.6-0.2,1.2-0.5,1.7-0.7c1.3-0.4,2-1.8,1.6-3.2c-0.4-1.3-1.8-2-3.2-1.6c-1.9,0.6-6.3,2.3-7.7,5c-0.5,1-0.6,2.1-0.2,3.1
	c0.3,0.9,0.9,1.5,1.6,2c-0.9,2-0.9,4.1-0.5,5.8c-0.7,1.8-0.4,4.4,1.4,5.7c1.1,0.8,1.4,1.1,1.4,1.3c0,1.3-0.5,1.4-0.1,2.6
	c0,0-0.1,0-0.1,0c-3.1-1.1-4.7,3.7-1.7,4.7c1.2,0.4,2.6,1.2,3.1,1.7c-0.5,2.4-4.9,1.5-5.7,4.9c-0.1,0.4-0.2,0.8-0.4,1.2
	c-1,2.5,0.1,6.3,2.1,7.6c1.4,1,3.2,0.8,4.4-0.4c0.8-0.7,1.6-1.3,2.4-2c-0.3,0.3-0.6,0.6-0.9,0.9c-1.6,1.9-3.8,6.4-2.6,10
	c0.4,1.3,1.3,2.3,2.5,2.7c1.2,0.4,2.4,0.4,3.5,0c-0.1,0.2-0.1,0.4-0.1,0.6c0,1.4,1.1,2.5,2.5,2.5c1.1,0,2.1-0.4,2.8-1.2
	c0.2-0.2,0.3-0.4,0.4-0.6c0.5,0.8,1.3,1.5,2.4,1.7c0.1,0.9,0.4,2.4,1.8,3.3c1.6,1,3.4,0.7,4.7,0.3c0.8-0.2,1.5-0.8,1.9-1.6
	c0.6-1.4,0.2-2.9-0.7-5c0.3,0.1,0.7,0.2,1.1,0.3c1.3,0.1,2.3-0.3,3.1-0.6c-0.3,1.7-0.7,3.4-0.5,5.2c0.3,2.7,1.9,3.6,2.7,3.9
	c1.8,0.6,3.7-0.3,5.1-1.4c-0.2,2.4,0,5.1,1.2,6.6c2.2,2.8,5.9,1.2,8.7,0.9c0.9-0.1,3.3-0.3,4-2.3c0.1-0.2,0.1-0.4,0.1-0.6
	c0.8,0.8,1.6,1.1,2.3,1.1c2.7,0.3,4.6-2.4,6.4-5c1.3-1.9,3.3-3.4,3.7-5.9c0.1,1.2,0.7,1.9,1.3,2.3c2.1,1.4,4.5-0.2,7.1-2
	c0.7-0.5,1.4-0.9,1.8-1.2c2.8-1.5,2.3-4.2,2.1-5.4c-0.1-0.9-0.2-1.1,0-1.2c0.2-0.2,0.3-0.4,0.5-0.6c0.7,0.6,1.6,1,2.6,1.2
	c4.4,0.8,5-2.7,7.7-4.8C-31,328.9-31.4,325.6-32.1,319.5C-32.1,319.5-31.4,325.6-32.1,319.5z M-61.3,304.6c1.3,1.4,3.2,2,5.2,1.6
	c1-0.2,1.9-0.6,2.7-1.3c0.3,0,0.6,0,0.9,0c0.8-0.1,1.6-0.3,2.3-0.6c0.8,0.3,1.7,0.4,2.6,0.4c-0.7,0.1-1.3,0.3-1.9,0.8
	c-0.9,0.8-1.3,1.9-1.6,3.1c-1.5-2.4-5.3-2.4-7-2.2c-1.4,0.1-2.4,1.3-2.3,2.7c0,0.2,0.1,0.5,0.2,0.7c-1.4-0.7-3.1-1-4-2.5
	c-0.2-0.3-0.2-0.5-0.2-0.5c0,0.1-0.1,0.4-0.2,0.5l-0.1,0l-0.9-2.8C-64.2,305.1-62.7,305.1-61.3,304.6C-60,306-62.7,305.1-61.3,304.6
	z M-65.1,316.4c-0.2-0.2-0.3-0.3-0.4-0.4c0.7-0.6,1.3-1.4,1.7-2.2c0.5,0.2,1.1,0.3,1.5,0.7c0.8,0.8,1.8,3.5,0.9,5.4
	c-1.5,3.2-0.9,5.5-1.4,8.6C-65.7,326.7-62.2,319.4-65.1,316.4C-65.3,316.2-63.1,318.5-65.1,316.4z M-55.9,311.5
	c-0.4,1.1-0.8,2.1-0.7,3.4c-0.4-1.4-1.1-2.6-1.7-3.5C-57.5,311.5-56.7,311.5-55.9,311.5C-55.9,311.5-56.4,311.4-55.9,311.5z
	 M-72.4,304.1c1.6,0.2,3.1-0.2,4.3-1.1c0.2,0.1,0.3,0.1,0.5,0.2c-0.6,0.4-1.3,1.1-1.6,2.1c-0.4,1-0.6,2.6,0.7,4.7
	c0.2,0.4,0.5,0.7,0.7,1c-0.8,0.6-1.7,1.8-2.3,2.5c0.5-1.6,0.7-3.8-1.2-5.4c-1.9-1.6-3.6-1.6-4.7-1.3c-1.2,0.3-2.9,1.2-4,4
	c-0.5,1.2-0.9,1.9-1.1,2.4c-0.6-0.6-1.2-1.3-1.7-2c0.5-0.4,1.1-0.8,1.7-1.2c2.3-1.5,5.3-3.4,4.7-6.7c0-0.2-0.1-0.4-0.2-0.6
	c0.3-0.1,0.5-0.2,0.8-0.3C-74.8,303.3-73.7,303.9-72.4,304.1C-70.8,304.3-73.7,303.9-72.4,304.1z M-82.2,323.3
	c-0.1,3.5-1.7,6-0.5,9.7c-0.8,0-1.6,0.4-2.1,1.1c-0.1,0.1-0.3,0.4-0.5,0.5c-1.1-4.8,4.2-9.2,2.4-14.4c-0.3-0.9-0.6-1.8-1-2.7
	c1.4,1.2,2.7,1.2,3.6,1.1c3.6-0.7,3.6-4.5,5.5-6.7c-0.5,2.3-0.7,5.1-1.5,7.2c-1.5-1.2-3.1-0.6-3.6-0.3
	C-82,319.8-82.1,322.1-82.2,323.3C-82.2,323.9-82.1,322.1-82.2,323.3z M-94,320.6c-0.4,0.3-0.9,0.6-1.4,1c-1.6,1.3-1.6,2.8-1.1,4.1
	c0,0-0.1-0.1-0.1-0.1c-2.9-1.7-5.2,0.5-6.3,1.6c-0.2,0.2-0.4,0.4-0.6,0.6c-1-0.8-1.3-1.4-1.4-1.7c0-0.3,0.3-0.7,0.5-0.9
	c2.1-2.1,5.4-1.4,7.2-4.2l0.1-0.2c1.4-2.2,3.2-4.9-0.6-8.1c-2-1.7-4.2-2.4-6.1-1.9c1-1,1.7-2.5,1.9-4c0-0.3,0-0.6,0-0.9
	c1.1,2.7,3.9,5.5,6.1,7.4c0.5,0.4,1.9,1.6,3.7,1.2c0.1,0,0.1,0,0.1,0C-94.4,316.5-94.3,319-94,320.6C-94.4,320.8-94.3,319-94,320.6z
	 M-114.4,306c0.4,0.3,0.7,0.6,0.8,0.8c0.3,0.8,0.7,1.6,1.2,2.3c-0.8-0.1-1.6-0.2-2.4-0.3c0-0.9-0.2-1.8-0.6-2.5
	C-115,306.3-114.7,306.1-114.4,306C-114,306.3-114.7,306.1-114.4,306z M-106.9,305.7c0.1,0.1,0.1,0.3,0.1,0.5c0,0.4-0.2,0.8-0.4,1
	c-0.5-0.3-1.3-1.1-1.6-1.9c0-0.1-0.1-0.2-0.1-0.3c0,0,0,0,0.1,0c0.6,0.3,1.2,0.4,1.8,0.5C-107,305.6-107,305.6-106.9,305.7
	C-106.9,305.7-107,305.6-106.9,305.7z M-106.6,314.4C-106.6,314.4-106.6,314.5-106.6,314.4c-0.3-0.7-0.7-1.4-1.2-2.2
	c0.7,0.1,1.4,0.1,2.1-0.1C-106.3,312.8-106.6,313.5-106.6,314.4C-106.6,314.4-106.6,313.5-106.6,314.4z M-103.5,319.2
	c0.8-1,1.4-2.2,1.7-3.3c0.5,0.3,0.9,0.6,1.3,1c-0.3,0.5-0.6,0.9-0.9,1.4C-101.9,318.9-102.9,319-103.5,319.2
	C-102.7,318.2-103.4,319.1-103.5,319.2z M-90.9,324.6c0.8-0.5,2.8-1.7,2-4.5c-0.3-1-0.3-1.3,0-1.6c0.5,0.8,1,2.4,1.3,3.2
	c0.7,2.2-1,5.3-1.7,7.3c0-0.2,0-0.4-0.1-0.6c-0.2-1.4-1.1-2.5-1.9-3.5C-91.2,324.8-91,324.7-90.9,324.6
	C-90.2,324.2-91,324.7-90.9,324.6z M-90.3,313.5c0.9-1,1.3-2.3,1.8-3.5c1.3-2.8-0.2-5.2-1.5-6.8c0.3-0.1,0.5-0.3,0.8-0.5
	c0.3,0.2,0.5,0.4,0.8,0.5c0.1,1.5,0.5,3.1,2,3.7c0.3,0.1,0.5,0.2,0.8,0.2c0,0-0.1,0.1-0.1,0.1c-1.3,1-2.1,2.2-2.2,3.5
	c-0.1,1,0.2,1.9,0.7,2.8c-0.1,0-0.1-0.1-0.2-0.1C-88.4,313.1-89.4,313.1-90.3,313.5C-89.7,312.8-89.4,313.1-90.3,313.5z
	 M-77.9,327.1c0.3-0.7,0.5-1.3,0.6-1.9c1,0.3,1.9,0.1,2.4-0.1c2.9-1.2,4.5-6.2,4.1-8.8c0,0,0-0.1,0-0.1c0.1,1.7,1.4,3.1,2,3.7
	c1,1,0.2,3.5,0.1,4.6c-0.6-0.5-1.6-1-2.9-0.9c-1.1,0.1-2.1,0.8-2.6,1.9c-1,1.7-0.7,3.9-1.6,5.6c-0.7,0.3-1.3,0.8-1.8,1.2
	C-78.5,330.3-78.3,328.1-77.9,327.1C-77.6,326.4-78.3,328.1-77.9,327.1z M-96.5,303.4c0.1-0.1,0.2-0.2,0.3-0.3
	c0.6,1.3,3.2,3.4,3.1,4.8c-0.1,0.2-0.2,0.5-0.3,0.7c-1.3-1.3-3.1-2.9-3.8-4.6C-96.9,303.8-96.7,303.6-96.5,303.4
	C-96.4,303.3-96.7,303.6-96.5,303.4z M-115.1,313.8c3,0.3,3.8,1.8,4.4,4.6c0.1,0.2,0.1,0.4,0.2,0.6c-1.1,0.2-2.4,0.4-3.6,1
	c0.4-0.8,0.6-1.6,0.6-2.5c0.1-1.5-0.7-2.7-1.8-3.7C-115.2,313.8-115.2,313.8-115.1,313.8C-114.5,313.9-115.2,313.8-115.1,313.8z
	 M-117.2,323.3c-0.3,0.6-1.9,2-2.8,2.7c0-0.7,0.2-1.4,0.6-2.1c0.8-0.1,1.6-0.3,2.3-0.7C-117.2,323.3-117.2,323.3-117.2,323.3
	C-117.5,324-117.2,323.3-117.2,323.3z M-115.4,328.7c1.4-1.2,2.5-2.4,2.9-3.8c0-0.1,0.2-0.3,0.9-0.5c-0.1,0.4-0.3,0.8-0.4,1.2
	C-112.4,326.9-114.4,327.9-115.4,328.7C-114,327.5-115,328.4-115.4,328.7z M-110.5,332c-1.9,1.2-2.2,3.2-2.1,5.1
	c-0.7,0.1-1.3,0.3-1.9,0.6c-0.1-1.4,0.9-3.6,1.8-4.6c1.1-1.3,2.8-2.2,4.1-3.5c0.5,0.8,1.2,1.5,2.1,2.2c-0.1,0-0.1-0.1-0.2-0.1
	C-107.5,331.3-108.8,331-110.5,332C-112.3,333.2-108.8,331-110.5,332z M-104.5,334c-0.1,0.1-0.1,0.2-0.2,0.3c-0.3-0.8-0.6-1.5-1.2-2
	c0.8,0.5,1.5,0.7,2.2,0.7C-103.9,333.3-104.2,333.6-104.5,334C-104.6,334.1-104.2,333.6-104.5,334z M-100.9,332.1
	c0.7-0.5,1.3-1.1,1.9-1.7c0.2,1.1,0.5,2.2,0.8,3.2C-98.9,332.8-99.8,332.2-100.9,332.1C-100.3,331.7-99.8,332.2-100.9,332.1z
	 M-95.5,337.6c-0.4-0.7-0.9-1.4-1.3-2.1c0.4,0.4,0.9,0.7,1.5,1c0.7,0.3,1.4,0.4,1.9,0.4C-94.1,337.1-94.8,337.4-95.5,337.6
	C-95.8,337.3-95.4,337.6-95.5,337.6z M-88.4,344.5c-0.1,0.2-0.2,0.5-0.3,0.8c0.1-0.5,0.2-1,0.3-1.5c0.4-1.9,1-4.7-1.5-6.2
	c-0.9-0.6-1.8-0.7-2.6-0.7c0.6-0.1,1.1-0.4,1.4-0.6c0.3-0.2,0.6-0.5,0.9-0.9c0.2,1.2,0.7,2.3,1.7,3.3c0.8,0.8,2,1.3,3.1,1.3
	C-87.2,341-87.9,343.1-88.4,344.5C-88.5,344.7-87.9,343.1-88.4,344.5z M-78.4,346.4c-0.8,0.7-2.5,2.5-1.1,5.3c0.2,0.3,0.4,0.7,0.6,1
	c-0.6,0.1-1.3,0.2-1.9,0.3c-0.7-3.1,1.1-5.6,1.4-8.6c0.4,0.5,0.9,1.1,1.5,1.5C-78,346.1-78.2,346.3-78.4,346.4
	C-79.1,347.2-78.2,346.3-78.4,346.4z M-73.9,350.6c-0.2-0.2-0.6-0.5-0.8-0.8c0.2-0.2,0.5-0.5,0.8-0.8c0.1,0.6,0.2,1.2,0.4,1.9
	C-73.6,350.8-73.8,350.7-73.9,350.6C-74.1,350.4-73.8,350.7-73.9,350.6z M-71.7,342.9c-0.4,0.5-0.8,1.1-1.2,1.6
	c-0.2-0.6-0.6-1.1-0.9-1.5C-73,343-72.3,343-71.7,342.9C-71.6,342.8-71.6,342.9-71.7,342.9C-72.1,343.4-71.6,342.9-71.7,342.9z
	 M-64.9,344.8c-1.6,1.4-2.5,3.3-3.8,4.9c-0.6-1.8-0.2-2.3,0.9-3.7c1.1-1.4,2-2.9,2.7-4.5c0,0.1,0.1,0.2,0.1,0.3
	C-63.9,344-64.5,344.5-64.9,344.8C-65.6,345.5-64.5,344.5-64.9,344.8z M-64.8,334.7c-0.6-0.6-1.8-1.4-3.8-0.8
	c-2.6,0.8-3.7,2.6-4.4,3.7c-0.1,0.1-0.2,0.3-0.2,0.4c-0.3,0-0.7,0-1.1,0c-1.7,0-3.7-0.1-5,1.3c-0.4,0.4-0.6,0.8-0.8,1.3
	c-0.1-0.2-0.2-0.3-0.4-0.5c-0.7-0.7-1.6-1.1-2.5-1.1c1.3-0.8,2.1-1.9,2.3-2.2c0,0,0-0.1,0.1-0.1c0.7,0.7,1.5,1.2,2.4,1.2
	c1.5,0.1,2.6-0.8,3.6-1.7c0.2-0.2,0.5-0.5,0.6-0.6c2.5-0.9,3.2-3.8,3.7-6.2c0.1-0.5,0.3-1.4,0.4-1.6c-0.1,0.2-0.4,0.5-1,0.7
	c-0.5,0.1-0.9-0.1-1-0.1l-0.1-0.1l3-2.8c-0.3,4,1.6,6.8,5.3,8c0,0,0,0,0.1,0C-64,333.8-64.4,334.2-64.8,334.7
	C-65.3,334.1-64.4,334.2-64.8,334.7z M-59,339.3c0,1.4-0.2,2.7-0.4,4.1c-0.1-1.9-1.4-3.6-1.3-5.5c0.6-0.2,1.2-0.4,1.8-0.7
	C-59,338-59,338.7-59,339.3C-58.9,340.4-59,338.7-59,339.3z M-55.4,321.4c-0.1,0.3-0.3,0.6-0.5,0.9c-1.1,2.1-2.4,4.7-1,6.9
	c0.2,0.3,0.5,0.6,0.8,0.9c-0.9,0-1.6,0.2-2.3,0.7c0.6-1.6,0.8-3.5,0.2-4.7c-0.2-3.5,2.6-6.1,1.9-9.9c0.3,0.8,1,1.5,2.1,2
	c0.6,0.3,1.2,0.5,1.8,0.6C-53.7,319.1-54.8,320.1-55.4,321.4C-55.5,321.7-54.8,320.1-55.4,321.4z M-51,334.1c-1.6,2-1.3,4-1,5.3
	c0,0.1,0,0.2,0.1,0.3c-0.7,0.4-1.3,0.8-2,1.3c0.1-2.9,2.3-7.8-0.2-10c0,0,0,0,0,0c1.3,0.2,2.7,0,3.9-0.4
	C-49.6,332.4-49.7,332.5-51,334.1C-52.6,336-49.7,332.5-51,334.1z M-49.2,325.2c-0.9,0.1-1.8,0.3-2.7,0.5c0.4-0.8,0.7-1.5,1.1-2.3
	c0.1,0,0.2,0,0.3,0C-50,324-49.6,324.6-49.2,325.2C-49.2,325.2-49.2,325.2-49.2,325.2C-49.8,325.2-49.2,325.2-49.2,325.2z
	 M-49.6,318.6c0.3-0.1,0.6-0.2,0.9-0.4c1.3-0.7,2.2-2.1,2.3-3.8c0.1-1.4,0.1-2.8,0.2-4.1c0.5,0.5,1,1.3,0.9,2.7
	c-0.1,1-0.4,2-0.6,2.9c-0.5,1.8-1,3.7,0.3,5.2c0.3,0.4,0.7,0.6,1.2,0.8c-0.8,0.1-1.1-0.1-1.2-0.3C-46.5,320-48,318.9-49.6,318.6
	C-49.3,318.5-48,318.9-49.6,318.6z"/>
<g id="Legend_1_" transform="translate(200,50)">
	<rect x="-394.7" y="411.9" class="st2" width="15.9" height="15.9"/>
	<rect x="-374.2" y="411.9" class="st3" width="15.9" height="15.9"/>
	<rect x="-353.8" y="411.9" class="st4" width="15.9" height="15.9"/>
	<rect x="-333.3" y="411.9" class="st5" width="15.9" height="15.9"/>
	<rect x="-312.9" y="411.9" class="st6" width="15.9" height="15.9"/>
	<rect x="-292.6" y="411.9" class="st7" width="15.9" height="15.9"/>
	<text transform="matrix(1 0 0 1 -390.369 441.865)" class="st8 st9">0</text>
	<text transform="matrix(1 0 0 1 -370.0087 441.865)" class="st8 st9">1</text>
	<text transform="matrix(1 0 0 1 -349.6474 441.865)" class="st8 st9">2</text>
	<text transform="matrix(1 0 0 1 -329.2866 441.865)" class="st8 st9">3</text>
	<text transform="matrix(1 0 0 1 -308.9252 441.865)" class="st8 st9">4</text>
	<text transform="matrix(1 0 0 1 -288.6449 441.865)" class="st8 st9">5</text>
	<text transform="matrix(1 0 0 1 -394.3725 406.201)" class="st8 st9">Confidence</text>
</g>
</svg>
