<?xml version="1.0" encoding="utf-8"?>
<!-- Generator: Adobe Illustrator 19.1.0, SVG Export Plug-In . SVG Version: 6.00 Build 0)  -->
<svg version="1.1" id="homunculus_svg" xmlns="http://www.w3.org/2000/svg" xmlns:xlink="http://www.w3.org/1999/xlink" x="0px"
	 y="0px" viewBox="-211 61 536 440" style="enable-background:new -211 61 536 440;" xml:space="preserve">
<style type="text/css">
	.st0{fill:#FFFFFF;stroke:#939598;stroke-miterlimit:10;}
	.st1{fill:#FFFFFF;stroke:#939598;stroke-width:1.4102;stroke-miterlimit:10;}
	.st2{fill:#FFFFFF;}
	.st3{fill:#4D4D4D;}
	.st4{fill:#F2F2F2;}
	.st5{fill:#CCCCCC;}
	.st6{fill:#999999;}
	.st7{fill:#666666;}
	.st8{fill:#333333;}
	.st9{font-family:'ArialMT';}
	.st10{font-size:12.9619px;}
	.st11{fill:#00FF00;}
	.st12{fill:#0000FF;}
	.st13{fill:#FF0000;}
</style>
<g id="bone">
	<g>
		<path class="st0" d="M-22.4,193.9c-3.2-0.5-6.6,1.7-7.1,5.6c-0.6,3.9,0.8,7.5,3.6,8.7s2.5,1.2,3.6,4.5c1.8,5.9,3.2,12,4.7,18.1
			c1.7,7.1,4.7,14.2,5.8,21.3c0.6,3.5,0.7,6.5,0,9.4c-0.7,2.8-0.6,2.8-1.4,5.7c-0.7,2.8-1.3,4.1,0.7,5.8c2,1.7,3.9,1.8,7.1-0.5
			c3.4-2.4,10.3-0.9,9.5-6.5c-0.8-5.4-5.7-8.4-7.6-13.4c-2.2-5.9-3.1-12.1-4.3-18.2c-2.1-11-6.7-23-6.2-34.3c0.2-5-0.7-7-3.7-6.2
			c-2.9,0.7-2.5,3.1-3.6,1.6C-22.4,193.9-22.4,193.9-22.4,193.9C-25.5,193.3-22.4,193.9-22.4,193.9z"/>
		<path class="st0" d="M2,271.8c0.6,3.4,1.3,0.1,2.4,3.7c0.8,2.8-2,5.4-4.3,6.3c-3.7,1.4-6.2,5.3-9.4,7.6
			c-6.8,4.9-12.1,11.6-18,17.5c-1-3.6,1.5-7,0.3-10.2c0,0,0.6,0,4.7-2.6c5.9-3.8,9.5-9,14.1-14c1.6-1.8,1.8-4.3,3.2-5.9
			C-3.5,272.5-0.1,272.3,2,271.8C2.6,275.2,2,271.8,2,271.8z"/>
		<path class="st0" d="M-9.4,276.5c-4.9,0-3.3-4.8-8-2.4c-4.2,2.2-7.4,7.3-11.1,10.4l1.4,6.8c2.8-2.2,5.6-4.4,8.2-6.9
			c2.7-2.6,4.3-3.8,7.9-4.8C-9.4,279.1-7.5,277.8-9.4,276.5C-10.1,276.5-9.4,276.5-9.4,276.5z"/>
		<path class="st0" d="M-45.2,175.9c6.7,0.1,12.4,2.3,18.3,5.4c1.5,0.8,3.2,2.1,4.9,2.3c1.1,0.2,5.2-2.4,5.8-3.4
			c0.2-0.5-0.1-1-1.5-1.7c-5.7-2.7-11.2-5.8-17.5-6.7c-2.5-0.4-15.4-3.2-17-1C-52.9,171.8-46.2,175.5-45.2,175.9L-45.2,175.9z"/>
		<path class="st0" d="M-14.2,181c5.1,1.8,3.8,10.4,1.6,13.7c-1.2-3-4.1-3.1-6.8-2c-1.7,0.7-1.6-0.6-3.1-0.9c-2.2-0.5-5,0.7-6.8,1.8
			c-3.6,2.1-2.3,11.4-0.4,13.8c1.8,2.3,5.4,3.5,5.4,3.5c-0.7,0.8-3.6,5.5-4.5,4.5c-1.8-1.9-2.2-5.7-2.8-8c-1-3.8-2-7.8-3.6-11.4
			c-0.4-0.8-5.5-8.9-2.7-8.5c3,0.4,5.8,3,8.9,2c4.2-1.5,5.3-1.6,9.6,0c2.7,1,2.5-3.7,0.8-4.3C-22.6,183.5-15.6,181.4-14.2,181
			C-11.4,182-14.2,181-14.2,181z"/>
	</g>
	<g>
		<g>
			<path class="st0" d="M264.6,133l11.2-0.7l1.1,2.1c2,2,5.4-1.3,5.9,1.7c0.6,3.9-5.4,1.7-5.1,2.8c0.4,1.6-0.1,1.8-0.1,1.8
				l-11.4,1.9C265.6,139.3,265.1,136.1,264.6,133L264.6,133z"/>
			<path class="st0" d="M266.6,144l11.2-2.1c0,0,0.7,0.6,2.1,0.3c1.4-0.3,2.3,0.1,2.3,1.1c-0.1,1.7-5.2,2.6-0.9,5l-13.2,4
				c0,0,0.1-1.7-0.5-2.9c-0.6-1.2,1.4-1.6,1-2.4c-0.4-0.9-1.1-0.7-1.8-1.3C266.1,145,266.6,144,266.6,144L266.6,144z"/>
			<path class="st0" d="M269.3,153.1c1.9-0.5,10.6-4.4,12.2-3.2c0.8,0.6,1.4,0.2,1.9,1c0.5,0.9-0.7,1.8-0.8,2.3
				c-0.1,0.6,0.1,1.7,0.1,1.7l-11.3,3.8L269.3,153.1L269.3,153.1z"/>
			<path class="st0" d="M272.1,160.1l11.4-4.1c0.7,3.9,4.8-0.6,6.1,2.1c0.6,1.2,0.6,2.1-1.3,2.5c-1.9,0.4-3.9-0.4-2.2,2.8
				c-3.3,1-6.7,2-10,3C273.6,167.1,272.8,162,272.1,160.1L272.1,160.1z"/>
			<path class="st0" d="M275.3,168c2.4-0.5,9.2-3.4,11.3-2.1c1.6,1.1,3.1,1.8,5,0.8c1.2-0.7,4.6,0.6,2.9,1.7
				c-1.4,0.9-6.9,1.2-4.9,3.4l-11.7,2.6L275.3,168L275.3,168z"/>
			<path class="st0" d="M279.1,175.5c2.9-0.5,5.8-1,8.7-1.5c1.1-0.2,1.6-1.2,2.7-0.1c1,1,6.8,1.9,6.2,3.1c-0.7,1.5-4.7,2-6.1,3.7
				l-10.4,1.3l-1.9-5.8L279.1,175.5L279.1,175.5z"/>
			<path class="st0" d="M281.3,183.8l10.9-1.7c0,0-0.6-0.1,0,0.8c1.2,1.7,4.9-3.2,6.1,0.2c1,2.7-3.9,2.1-4.4,5.3l-11,1.8
				L281.3,183.8L281.3,183.8z"/>
			<path class="st0" d="M283.5,191.9l11-1.9c1.9,1.3,7.1-0.3,7.3,2c0.3,4.5-5,1.4-5.1,4.5l-11.1,1.4L283.5,191.9L283.5,191.9z"/>
			<path class="st0" d="M287.5,210l12.8-1.8c-1,4.4,4.3-0.4,5.2,1.3c2.3,4.1-5.9,3.2-3.7,6.3l-14.1,0.7L287.5,210L287.5,210z"/>
			<path class="st0" d="M285.6,199.6l11.8-1.6c0,0,0.6,0.7,1.2,1.9c0.9,2,3.3-0.6,4.6,0c1.2,0.5-2.6,3.4-2.2,4.7
				c0.6,1.9-0.4,1.6-0.4,1.6l-13,2.2L285.6,199.6L285.6,199.6z"/>
			<path class="st0" d="M284.5,382.3c-0.2,2,5-1.5,5-1.5l-2.2-1.6L284.5,382.3C284.3,384.3,284.5,382.3,284.5,382.3z"/>
			<polygon class="st0" points="288.3,378.5 290.7,380 293,376.8 289.3,375.7 			"/>
			<polygon class="st0" points="290,374.5 293.9,375.8 297.2,372.2 290.7,370.8 			"/>
			<polygon class="st0" points="292.2,369.3 298.2,370.9 300.2,364.7 292.5,364.6 			"/>
			<path class="st0" d="M292.5,362.3l8.2-0.2v-6l-8.5,1C292.3,358.8,292.5,360.6,292.5,362.3L292.5,362.3z"/>
			<path class="st0" d="M291.5,356.3c2.5-0.5,11.2-0.9,10.5-4.8c-1.1-6.4-8.5-3.5-12.1-2.2L291.5,356.3L291.5,356.3z"/>
			<path class="st0" d="M289.4,348.4c2-1.1,4.4-2.9,6.7-3.1c2.5-0.3,6.6,2.2,5.8-1.4c-2.2-9.6-12.3-6-17.3-0.8L289.4,348.4
				L289.4,348.4z"/>
			<path class="st0" d="M282,340.8c3.7-2.3,8.1-5.9,12.7-5.2c5.3,0.8,0.6-3.2-2-3.8c-3.4-0.8-7.9-2.3-11.4-1.4l-7.8,7.4L282,340.8
				L282,340.8z"/>
			<path class="st0" d="M269.5,335.5c0.2-0.7,12.1-7.4,12.1-7.4c1.8-0.1,4.5,0,6-1.1c2.6-1.8,6.6,3.5,8-0.1c1-2.5-0.6-6-3.6-5
				c-3.7,1.2-6.3-1.5-9.4-3.4c-4.5,1.4-9.1,3.1-13.8,3.8c-1,0.2-2.3-0.7-3.2-0.3c-1.8,0.7,0.3,4.8,0.7,5.7
				C267.5,330.6,264.9,334.4,269.5,335.5C269.7,334.8,269.5,335.5,269.5,335.5z"/>
			<path class="st0" d="M264.4,318.5c5.8-1.8,11.9-2.5,18-2.7c2.9-0.1,6.5,2.5,9,1.9c5.3-1.2,1-7-2.3-7.6c-1.9-0.4-3.8-0.5-5.4-1.6
				c-0.6-0.4-1.9-2.7-2.5-2.8c-2.8-0.4-5.9,0.1-8.7,0.3c-1.3,0.1-8.2,0.2-8.7,0.9C261.6,309.4,264.3,315.4,264.4,318.5L264.4,318.5z
				"/>
			<path class="st0" d="M263.4,302.6c3.4,0.1,6.7,0.1,10.1-0.2c2.7-0.2,8.1-1.8,10.5-0.2c2.7,1.8,5.3,5.2,8.3,1.8
				c3.3-3.8-5.8-5.4-7.7-6.6c-2.3-1.5-2.9-5.8-4-6.1c-2.2-0.6-4.8,0.3-7,0c-1.7-0.2-3.4,0.4-5.2,0.3c-1.5-0.1-2.5-1.2-4-1.4
				c-2.6-0.4,0.6,3.8,0.7,4.4C266,297.4,263.1,299.9,263.4,302.6L263.4,302.6z"/>
			<path class="st0" d="M265.2,285.6c0.3,3.1,9.3,2,11.5,2.5c3.6,0.8,10.2,7.4,13.2,6c6.7-3,1.2-4.4-2.4-6.8c-3-2-4.1-4.8-4.5-8.2
				c-4.7-1.7-10-2.7-14.9-3.6c-1.8-0.3-1.4,7.6-3,9.4C265.2,285.2,265.2,285.4,265.2,285.6C265.4,288.1,265.2,285.6,265.2,285.6z"/>
			<path class="st0" d="M268.4,272.8c7,3.1,13.8,1,18.3,8.2c1.7,2.8,4.6,5.5,7,1.8c2.5-3.9-3-5.1-4.8-7.2c-2-2.3-2.6-4-1.7-6.7
				c1-2.8-5.6-3-7.4-3.7c-2.2-0.8-6.9-3.7-9.3-2.2c-0.7,0.5-1.9,8-2.1,9.4V272.8L268.4,272.8L268.4,272.8z"/>
			<path class="st0" d="M272.6,259.5c0.3,1.8,6.7,2.3,8,2.9c2.4,1.2,4.7,1.7,7,2.9c1.1,2,2.3,5.7,4.4,6.9c2.8,1.6,5.1,0.1,5.2-3.4
				c0-2.5-6.2-5.1-7.8-6.7c-1.5-1.5,0.2-4.2,1-5.7c-3.6-1.2-7.3-2-10.7-3.6C273.6,250.1,275.6,255.4,272.6,259.5
				C272.7,260.3,272.6,259.5,272.6,259.5z"/>
			<path class="st0" d="M279.7,240c-0.2,1.6-3,7.3-2.5,8.3c0.7,1.4,6.8,4,8.3,4.3c2.8,0.5,4.8-0.9,5.9,3c0.4,1.6,4.4,6.7,6.2,3.4
				c3.2-5.8-4.5-7.4-5.3-11.4c-0.8-4.2,1.4-3.3-3.5-5.1c-2.5-1-6.6-3.5-9.1-2.7"/>
			<path class="st0" d="M284.3,229c-0.4,1.6-3.4,7.7-2.4,9c0.9,1.2,7.3,3,8.8,3.1c0.9,0,2.4-0.3,2.6-0.8s3.1-0.1,3.9,0.7
				c0.7,0.8,1.1,2.7,2.2,3.3c1.2,0.6,3.7,0.3,4.4-1.7c0.7-1.9-1.1-3.9-3.3-4.5c-2.2-0.6-3.4-2-3.8-3c-0.4-1,0.1-3.6,0-3.7
				c-1.5-0.8-4-1-5.6-1.3c-1.7-0.4-4.1-1.9-5.7-1.9c-1,0-1.1,0.5-1.1,0.5"/>
			<path class="st0" d="M287.3,218.8c0.2,1.4-1.1,6.8-0.3,7.6c1.2,1.2,10.7,3.5,11.5,1.4c0.2-0.4,5.4,2.4,5.8,2.6
				c1.1,0.4,3,0.1,3.4-1.6c0.4-1.5-1.5-4.5-3.9-4.9c-2-0.3-1.6,0-2-0.9c-0.4-0.9,0.7-4.3,0.6-4.3c-0.1,0-7.5,0.5-8.6,0.5
				c-1.1,0-4.7-1.2-5.6-1.1C287.3,218.2,287.3,218.7,287.3,218.8"/>
		</g>
		<path class="st0" d="M252.4,427.9c1.9-13.1,4.5-26.6,4.7-39.9c0-2.2-1.5-2.5-1.3-4.9c0.4-3.8-0.1-7.1-1-10.8
			c-1-3.7,0.5-8.8,3.6-11.1c3.9-2.8,14.2-1.5,13,4.8c-1.3,6.3,2.2,12.3-2.2,18.3c-1.1,1.5-2.6,1.5-3.2,3.6
			c-1.3,4.5-1.2,9.5-1.5,14.2c-0.5,8.6-1,17.2-1.1,25.8H252.4L252.4,427.9L252.4,427.9z"/>
		<path class="st0" d="M266.8,391.8c2.7,5.8,12.4,2.2,12.7-3.3c0.2-3.2-3.2-8.3-1-11.2c3.4-4.5,3.7-4.5,2-10.3
			c-1.5-5.2-10-15.2,1-16.2c3.3-0.3,5.2,2.2,8.7,0.1c3.8-2.3,6-6.3,7.3-10.4c2.9-9.2-3.1-17.9-12.5-19.5c-3.5-0.6-8.6-0.9-11.6,1.5
			c-3.2,2.6-4.7,6.5-9.1,7.6c-4.2,1.1-8.7,1.1-12.7,3.1c-2.2,1.1-8.5,5.7-7.9,8.8c0.7,3.3,6.1,1.5,8.2,2.5c3.9,1.8,3,8.4,2.8,11.8
			c-0.2,3.7-3.4,11.4-7.4,15.9c-0.5,0.5,6.7,8.4,7.9,6.9c1-1.2-2.6-6.9-2.1-9.3c0.2-1.1,0.5-4.1,0.8-5.2c0.5-1.8,2.1-4.1,3-4.8
			c6.4-5.5,18.4,0.5,15.5,9.2c-1,2.8,0.7,4.5,0.9,7.2c0.2,2.6-1.2,5.5-2.5,7.7C268.7,387.2,266.8,387.1,266.8,391.8L266.8,391.8z"/>
	</g>
</g>
<path id="nervous_system" class="st0" d="M-78.1,127.9l2.6,50.2l-4.7,0.2l-2.6-50.3C-81.6,127.1-79.1,126.9-78.1,127.9z
	 M281.5,310.3c-0.2-27,7-38.6,11.7-50.9s10-23.7,7.3-53.3c-1.5-16-8.3-27-13.4-38.8c-5.8-13.4-9.1-20.1-13.3-35.1
	c-0.4-1.3-0.9-2.9-1.4-4.3c-1.8-1.4-3.9-2.3-3.9-2.3s2.3,8.4,4.5,14.2c2.2,5.7,5.4,16.6,7.4,21.6c2.8,6.9,13.4,23.9,16.6,44.8
	c4.2,27.7-2.6,43.6-5.2,49.2c-2.6,5.6-12.9,28.1-13.4,47.1s2.6,26.4,9,35.2c6.4,8.8,11.2,19.5,6.5,32.8c-1.1,3.1-3.9,7.5-4.5,8.8
	c0,0,13.7-9.5,7.3-30.7C292.2,333.9,281.8,337.3,281.5,310.3z"/>
<path id="brain" class="st0" d="M-57,99.5c0,10.9-2.6,25.3-9.5,25.3c-3.9,0-4,0.6-7.1-2.5c0,0-1.5,4-4.5,5.5l-4.7,0.2
	c-3.5-1.4-4.7-6-4.7-6c-3.1,3.2-4.1,2.8-8.1,2.8c-6.9,0-9.5-14.4-9.5-25.3c0-10.9,5.1-17.7,12.5-19.8c5-1.4,10-3.2,11.5,3
	c1.5-6.3,6.5-4.5,11.5-3C-62.6,81.8-57,88.6-57,99.5z M272.3,127.9c2.9,0.7,6.7,0.2,8.8-1c3.9-2.2,3.2-5.9,3.2-5.9s9-1.2,10.5-5.6
	c1.5-4.4,0.6-11.1-0.3-17.1c-0.9-6-5.7-12.8-11.6-16.2c-5.9-3.4-8-4.5-15.4-4.8c-7.4-0.3-18,3.1-24.5,8c-6.6,4.9-6.3,14.5-2.9,21.5
	c3.4,7,11.2,6.6,11.2,6.6s0.7-0.1,1.4,0.7c0.7,0.8-0.3,1.5-0.3,1.5s0,5.1,5,7c4.7,1.8,5.1-0.1,7.8-0.4c0.3,1.3,3.3,3.4,3.3,3.4
	S270.2,127.2,272.3,127.9z"/>
<path id="blood" class="st0" d="M-72.3,275.9c0,0-0.6,5.1,0,6.5c1,2.5,11.9,2.5,11.9,2.5l-0.3,4.1c0,0-6.9-1.9-10.7-0.7
	c-0.9,0.3-0.9,5.2-0.9,5.2l-8.2,0.4c0,0,1-4.7,0.4-5.5s-9.5-0.3-9.5-0.3l-0.3-3.1c0,0,7.1,0.2,9.8-1.4l0.3-6.5L-72.3,275.9
	L-72.3,275.9z M-51.6,170.3l-2.6,3.1c-2.3-1.9-5.4-2.5-11.3-2c-4.1,0.4-6.4,3-9.8,4.9c-3.3,1.9-7.1,1.9-10.2,4.5
	c-2.8,2.4-2.8,8-2.6,10l-3.7,0.4c0,0.1,0,0.2,0.1,0.3l-3.3,1c-0.2-0.6-0.3-1.2-0.4-2c-0.1-0.7,0.1-1.8,0.5-2.5
	c1.5-2.8,3.1-5,3.2-8.3c0-0.9-0.1-1.7-0.5-2.3c-0.4-0.7-1-1.3-1.7-1.8c-2.1-1.5-5-3-7.7-3.3l-0.1,0.3l-0.3-0.3
	c-0.9,0-1.8,0.1-2.6,0.5c-3.7,1.7-6.9,5.4-10.5,7.5c-4.3,2.4-9.8,3.8-13.7,6.8c-1,0.8-1.9,1.9-2.7,3c-5.6,8.4-8.7,19.3-11.4,29
	c-1.4,5.1-2.6,10.3-3.6,15.5c-1.2,5.9-3.4,12-4.1,18c-0.5,4.2,1.4,8.1,1,12.2c0,0.6-0.2,1.1-0.4,1.6l0.2,0.1c-0.3,0.8-1,3.3-0.4,4.8
	c0.6,1.3,1.3,2.6,1.5,4c2.1-1.3,4.2-1.8,5.8-3.8c1.6-1.7,1.6-6.9,1.9-9c1-7.1,1.7-14.3,2.6-21.4c1.4-11.2,1.9-26.2,8.5-35.9
	c0.4-0.6,0.9-1.2,1.6-1.8c0.7-0.6,1.5-1,2.3-1.3l0.8,2.9c-0.8,0.2-1.6,0.9-2.3,1.9c-3.6,5.2-4.7,12.5-5.9,18.6
	c-1.5,7.9-2.5,15.9-3.5,23.9c-0.9,7.2-1,15.4-3.6,22.2c-1.1,2.9-4.3,4-7,5.2c-0.5,0.2-0.9,0.5-1.2,0.9c-0.8,1-0.9,2.3-1.3,3.5h-0.1
	c-1.9,6.1,0.5,13-1.6,18.7l0,0c0.7,2.1,1,4.2,1,6.3c0,6.2-2.8,12.2-5.4,17.7c2.1-5.5,4.6-11.6,4.3-17.6c-0.1-1.6-0.4-3.2-0.9-4.6
	c-1.1,1.4-3,2.3-3.9,3.9c-1.2,2-1.6,5.1-1.7,7.4c-0.7,9.9-9.1,19.1-12.4,28.1c-0.2,1-0.3,2-0.1,3c0,0.6-0.3,1.1-0.6,1.5
	c-0.4,0.4-0.8,0.7-1.2,1c-1.8,1.2-3.8,1.4-5.7,2.4c-0.9,0.4-1.7,1.1-2.3,1.9c-1.7,2-4.1,5.3-4.4,8c-0.6,4.2-0.8,8-2.1,12.1
	c1.3-4.1,1.4-7.9,1.9-12.1c0.3-2.7,2.7-6.1,4.4-8.1c0.6-0.8,1.5-1.5,2.4-2c1.8-0.9,3.9-1.2,5.6-2.4c0.8-0.6,1.6-1.3,1.6-2.2
	c-0.2-1-0.2-2.1,0.1-3.1c2.1-6,5.6-12.4,8.5-18.1c3.7-7.4,3.9-11.9,0.9-19.7c-0.1,3.8-0.2,11.5-2.5,14.7c-2.2,3.3-6.2,3-9.2,5.2
	c-2.7,2-2.9,5.5-4,8.3c0.5,0.6,0.6,1.2,0.5,1.8c-0.2,2.6-1.9,6.1-2.7,8.6c-0.4,1.2-1.2,2.1-1.8,3.1c0.6-1,1.3-2,1.6-3.2
	c0.6-2.4,2.2-6.1,2.2-8.6c0-0.4-0.1-0.8-0.2-1.1c0,0,0,0.1-0.1,0.1c-0.6,1.1-1.5,1.9-2.3,2.7c-0.8,0.8-1.2,1.9-1.2,3.1
	s-0.1,2.4-0.4,3.5c-0.4,1.1-0.9,2.1-1.7,3c-0.5,1-0.9,2.1-1.1,3.3c0.2-1.1,0.6-2.3,1.1-3.3c0.7-0.9,1.3-1.9,1.6-3
	c0.2-1.1,0.3-2.3,0.3-3.4c-0.1-1.2,0.4-2.4,1.2-3.3s1.6-1.7,2.1-2.7c1.6-2.8,1.3-6.1,3.5-8.7c-1,0.1-2,0-3-0.4
	c-0.6-0.3-1.1-0.5-1.7-0.9c-0.3-0.2-0.6-0.5-0.7-0.8c-0.7-2-1.1-6.5-0.5-8.5c-0.5,2.1,0.3,5.3,0.7,7.4c0.1,0.6,0.3,1.2,0.8,1.4
	c0.5,0.3,1.1,0.5,1.7,0.7c1.1,0.4,2.4,0.4,3.5,0.1v0.1l0.1-0.1c1.9-1.5,4.3-1.7,6.4-3c0.9-0.6,1.8-1.3,2.4-2.2
	c2.6-4,1.8-12.5,2.1-16.9h0.1c-1.3-2.5-3.3-4.8-4.2-7.5c-0.5,0.3-1,0.6-1.4,1.1c-1.3,1.3-1.7,3.4-2.8,4.9c-1.1,1.6-3,2.5-4.1,4.1
	c-1.5,2.1-3.5,5.1-3.7,7.7c0-2.6,1.7-5.9,3.2-8.1c1-1.6,2.8-2.6,3.8-4.2c1-1.7,1.3-3.7,2.6-5.3c0.6-0.7,1.3-1.3,2.1-1.7
	c0-0.4,0-0.9,0.1-1.3c0.6-2.6,1.4-6.6,2.7-9c3.2-5.9,10.3-8.7,12.9-15.1l0.2,0.1c0.2-0.4,0.3-0.8,0.3-1.2c0.5-5.6-1.9-10.4-0.4-16.4
	s2.7-11.9,3.9-18c2.7-13.7,6.3-29.6,14-41.5c0.9-1.3,1.9-2.6,3.3-3.7c3.5-2.9,8.2-4.1,12.1-6.2c4.5-2.4,8-6.6,12.6-8.7
	c1.1-0.5,2.3-0.8,3.5-0.8c0.3-0.7,0.8-1.6,1.6-3c1.7-3.2,4.2-3.3,5.5-3.3c0.2,0,0.4,0,0.5,0c0.1-0.3,0.2-1.1,0-3l4-0.4
	c0.3,3.2,0,5-1,6.2c-1.6,1.8-4.4,0.3-5.5,2.4c-0.4,0.8-0.7,1.4-1,1.9c2.1,0.7,4.3,1.8,6.2,3c1,0.7,2,1.6,2.7,2.9
	c0.3,0.6,0.5,1.2,0.7,1.8c2.4-2.5,5.6-4,8.8-5.2c6.3-2.4,11.1-4.7,10.6-10.1c-0.4-3.9,3.1-12.8,3.8-14.6l3.7,1.5
	c-1.1,2.8-2.1,5.7-2.9,8.7c-0.8,3.1-0.2,6.5-1.5,9.4h0.1C-59.8,166.8-55.3,167.1-51.6,170.3C-51.6,170.3-55.3,167.1-51.6,170.3z
	 M-152.3,284.6c0.2-1.4,0.5-2.7,0.8-4.1h-0.1c0,0,0.5-1.7,1-3.7c0.6-2.4-1.6-4.5-1.7-6.9c-2.8,3.3-6.3,5.9-9.2,9
	c-1.3,1.5-2.4,3.1-2.7,5c-0.3,2.1-1.4,3.9-1.8,5.9c-0.7,3.3,3.1,7.4,4.4,10.2h0.2c0,0.1,0,0.2,0,0.3c1.3,2.9,2.8,6.2,3.3,9.4
	c0.2-1.6,0.4-3.4,1.2-4.8c0.9-1.8,3-2.7,4-4.5c0.6-1.1,0.8-2.3,0.8-3.6C-152.2,292.7-152.9,288.7-152.3,284.6
	C-152.2,283.2-152.7,287.4-152.3,284.6z M-99.1,169.5c-0.2-0.2-0.4-0.4-0.6-0.5l-0.2,0.3C-99.7,169.4-99.4,169.5-99.1,169.5
	C-99.3,169.3-99.4,169.5-99.1,169.5z M-82.4,399.5c-1.6-5.5-3.2-11-6.5-15.7c-2.5-3.6-5.3-6-4.3-10.6c0.1-0.7,0.3-1.4,0.4-2.3
	c0.5-4.5-4.4-4.8-4.7-8.8c-0.5-5.7,0.8-13.5,0.8-13.6l-3.9-0.6c-0.8,4.9-1.4,10-0.8,14.9c-0.6,0.1-1.2,0.2-1.7,0.4
	c-1,0.4-2.2,1.2-3,2.7c-0.7-0.1-1.5-0.3-2.1-0.6c-1-0.5-1.9-1.3-2.4-2.3c-1.3-2.3-1.4-5.2-2.2-7.7c-0.2-0.7-0.6-1.5-1.1-2
	c-3.3-3.8-6.7-6.1-9.1-11c1.9,5.1,5,7.8,8,11.9c0.4,0.5,0.6,1,0.7,1.6s0.2,1.3,0.3,1.9c-1.4,0.5-2.7,1.1-3.9,1.8
	c-1,0.6-1.8,1.8-2.8,2.2c-0.2,0.1-0.4,0.1-0.8,0c-0.2-0.1-0.4-0.1-0.7-0.2c-0.3-0.1-0.7,0-0.9,0.2c-0.5,0.4-0.6,0.8-0.8,1.2
	c-0.6,1.5-1,3.5-1.5,5c0-0.5,0.1-1,0.1-1.5c0,0.1-0.5,1.5-0.3,1.9c0,0.1,0.2,0.1,0.2,0c1.1-0.8,1.5-3.9,2.2-5
	c0.2-0.3,0.4-0.7,0.6-0.8c0.1,0,0.1,0,0.2,0s0.3,0.1,0.5,0.2c0.4,0.2,1,0.4,1.6,0.2c2.3-0.7,4.1-2.7,6.6-3.3
	c0.3,1.9,0.6,3.9,1.7,5.6c-1.8,1.2-3.5,2.7-4.7,4.5c-2.6,3.4-5.9,7.9-7.2,12c-0.7,2.3-1,4.6-1,6.9c0.3-2.3,0.9-4.5,1.9-6.5
	c1.8-3.7,5.4-7.7,8.2-10.8c1.4-1.6,3.1-2.9,5-3.8c0.9,0.6,1.9,1.1,2.9,1.3c-1.3,7.4,1,16.3,2,23.7c-1,1-1.9,2-2.7,3.1
	c-0.8,1.1-1.5,2.3-1.9,3.7c-0.2,1.4-0.1,2.7,0.1,4.1c0,5.2-2.5,9.8-2.3,15.3c0.1,1.3,0,2.6-0.8,3.7c0.8-1.1,1-2.5,1-3.7
	c0.1-5.6,2.8-9.9,3.3-15.2c-0.1-1.2-0.1-2.5,0.1-3.7c0.6-1.9,2.1-3.5,3.5-4.8c0.5,3.6,1,7.3,2.8,10.5c1.7,3.1,4.6,5.2,6,8.4
	c1.9,4.3,2.6,9.5,2.6,14.2h3c0-4.9-0.7-10-2.5-14.5c-1.3-3.4-3.8-5.4-5.7-8.3c-2.3-3.4-2.7-7.6-3.3-11.5c-1-7-1.8-13.8-2.4-20.9
	c-0.3-3.1,0.2-5.2,1.4-6.2c0.6-0.5,1.4-0.7,2.1-0.7c0.7,1.4,4,3.2,3.9,4.6c-0.1,0.7-0.2,1.3-0.4,2c-1.3,6.1,1.9,9.2,5.2,14
	c3.7,5.3,5,11.8,6.8,17.8c2.4,7.7,3.5,15.7,4.3,23.7h4C-77.8,418.1-79.7,408.9-82.4,399.5C-84,393.8-81.8,401.3-82.4,399.5z"/>
<g id="skin">
	<g>
		<path class="st0" d="M-60.1,141.3L-60.1,141.3c0-0.2,0-0.3,0-0.4C-60.1,141-60.1,141.2-60.1,141.3
			C-60.1,141.3-60.1,141.2-60.1,141.3z"/>
		<path class="st0" d="M-68.6,393c-0.2-2.9-0.5-5.8-0.7-8.8l0,0c-0.2-1-0.5-1.5-1.6-1.4s-1.3,0.7-1.3,1.6l0,0
			c1.3,14.4,1.4,28.9,0.5,43.4c0.3,0,3,0,3,0l0.2-26c0,0,2.1,4.1,5.6,9.5c3.9,6,5.1,16.5,5.1,16.5c0,0.1,2.7,0,3,0
			c-1.2-5.3-2.7-10.6-4.9-15.6C-62.4,405.8-67.8,400.2-68.6,393C-68.6,392.3-68.4,394.3-68.6,393z"/>
		<path class="st0" d="M-60.1,141C-60.2,140.8-60.2,140.8-60.1,141L-60.1,141z"/>
		<path class="st0" d="M6.7,220.5c-0.6-1.8-1.1-2.6-1.4-3.2c-2.1-3.5-0.6-11.9-1.1-16c-0.9-6.8-2-15.1-6.2-20.8
			c-2.9-3.9-7.7-5.8-12.2-7.2c-2.6-0.8-11.6-2.7-13-4.9c-2.7-4.3-10.5-6-14.8-8c-4.2-1.9-11.9-4.8-13.5-9.5l-1.7-12.7l0,0
			c1.8-4.8,5.5-8,6.9-13.3c1.4-5.2-1.2-9.7-0.4-14.1c1.2-6,2.1-12.9,0.7-19c-2.5-10.7-12.2-18-22.5-20.3
			c-11.1-2.5-23.7,0.4-31.8,8.6c-8.5,8.7-8.2,21.6-6.6,32.9c-0.8,0.9-1.5,2.3-1.6,4.7c-0.1,2.2,0.3,4.8,1.1,7.5
			c1.5,4.9,5.7,7.6,7.1,11.8c1.1,3.5,2.7,6.8,4.7,9.8l0,0c0.3,1.2,0.8,2.3,1,3.3c0.6,3,0.8,4.3-0.5,5.8c-2.9,3.1-8.1,4.8-11.9,6.7
			c-4.7,2.3-9.2,4.8-13,8.4c-2.6,2.5-6.9,4.1-10.2,5.8c-4.5,2.4-9.8,4.5-12.6,9.1c-3.3,5.3-7.5,16.6-6.7,25.2
			c1.6,17.2-5.2,33.9-7,51c-0.4,3.7-4.4,7.6-6.4,10.6c-3.2,4.7-5.3,9.5-7.4,14.8c-4.2,10.5-8.7,19.1-10.3,30.6
			c-0.8,5.4-1.6,10.8-2.9,16.2c-1.4,6-4.9,11-7.1,16.7c-2.1,5.7-3,12.2-4.4,18c-0.9,3.7-2.9,9.1-1.5,12.9c1.4,3.9,2.3,7.7,3.2,11.7
			c0.3,1.3,0.9,2.1,1.5,2.6c0,6.6,2.5,13,4.4,19.2c0.2,0.6,1,2.4,4.7,1.5c2.2-0.6,2.6-3.4,2.4-5.7c1.1,1.7,1.9,2.7,3.1,3.3
			c1,0.4,1.8,0.4,2.6,0c1.2-0.7,1.6-2.1,1.7-3.2c0.3-1.7-0.2-3.6-1-5.2c0.1,0,0.1,0,0.2-0.1c0.9-0.3,1.5-1,1.9-2
			c0.5-1.4,0.2-3.2-0.7-4.6c-0.1-0.1-0.2-0.3-0.3-0.4c0.4-0.1,0.8-0.2,1.2-0.4c0.8-0.4,1.3-1.1,1.4-1.9c0.7-3.9,1.5-7.6,2.6-11.4
			c0.9-3.3,0.7-8.3,0.8-11.8c0.1-4.3-2.5-7.3-3.4-11.4c-0.8-3.9,1.9-10,3.8-12.9c1.1-1.7,2.2-3.3,3.5-4.9V344
			c6.1-15.7,22.3-25.6,27.9-41.4c2.5-7.1,5.2-14.9,5.5-22.6c0.2-7,3.8-14.4,6.1-21c1.2,4.2,2.6,9.1,3.6,12.3c3,10-5.2,21.2-0.9,31.3
			c1.5,3.6-1.3,7.6-1.5,11.4c-0.3,6.5,0.8,13.1,0.4,19.7c-0.2,2.7-2.9,5.5-3.5,8.3c-1,4.8-1.2,9.6-2.2,14.4
			c-1.8,8.7-2.1,17.3-0.8,26.1c2.2,15.2,4.3,30.3,6.7,45.5h3c-2.3-14.6-4.3-29.3-6.4-43.9c-1.3-9.2-1.4-17.9,0.5-27
			c1-4.9,1.2-10,2.3-14.8c0.7-3,3.2-5.3,3.4-8.4c0.4-5.5-0.4-11.1-0.4-16.6c0-4.4,2.9-9.8,2-13.8c-1.1-5.1-1.2-9.2-0.8-14.5
			c0.5-6.3,3.1-12.2,1.2-18.5c-1.2-4.1-2.4-8.3-3.6-12.4c-0.6-2.1-0.8-7.4-2.9-8.5l-3.2-1.8c0.6,2,1.1,4,1.7,5.9
			c-1,7.8-6,14.9-7.4,22.6c-1.7,8.7-2.4,16.8-5.5,25.4c-3.3,9.3-11.1,17.1-17.2,24.5c-5.4,6.6-9.2,14.4-13.8,21.5
			c-1.9,3-5.3,10-4.3,15.2c0.8,3.8,3.4,6.8,3.3,10.8c0,3.3,0.2,8-0.7,11.1c-0.8,3-3.2,8.2-2.7,11.3c0,0.1,0,0.1,0,0.2
			c-0.1,0-0.4,0-0.7-0.2c-0.7-0.3-0.9-0.9-0.9-0.9l-0.3-1.1c-1.1,0.1-2.1-0.1-3.2-0.4c-1.6-0.5-3-2.5-4-3.8c1.5,1.1,3.2,3,5.1,3.3
			l1.8,0.3c-0.3-3.2,0.4-6.9,1.2-10c-0.2-1.2-0.6-2.9-1.6-3.8c-0.5-0.5-1.1-0.6-1.7-0.5c-2.1,0.5-3.5,5-3.5,5
			c-0.5,1.8-1.3,3.5-2.1,5.2l0.7,0.4l-1,2c-0.4,0.9-0.3,2.3,1,3.3c0.7,0.6,1.2,1.7,1.5,2.5c0.8,0.1,1.5,0.3,2.2,0.6
			c0.7,0.3,2.5,1.2,3.6,2.9c0.5,0.7,0.5,1.3,0.4,1.7c-0.2-0.3-0.6-0.7-1-1.1c-2.7-2.4-6.9-3.8-10.2-5.3c2.4,3.1,4.8,6.4,7.7,9
			c1.4,1.3,2.4,3.7,2.2,5.3c-0.1,0.4-0.1,0.7-0.2,0.9c-2.8-1.4-3.6-5.8-6.5-7.6l-3.6-2.3c1,2.8,2.1,5.6,2.6,8.5
			c0.3,1.7,0.1,3.3-0.1,3.8c-0.5,0.1-0.9,0.1-1.1,0.1c-1-3.1-2.3-5.9-2.8-9.1c-0.2-1.4-0.3-8.3-1.4-9.1l0.2-1.1l-0.9-0.6
			c0,0-0.7-0.4-0.9-1.4c-0.9-4.1-1.8-8.1-3.3-12.1c-1.2-3.3,1-8.8,1.8-12c1.4-5.8,2.2-12.3,4.5-17.8c2-4.7,4.7-9,6.2-13.9
			c1.7-5.5,2.5-11.3,3.3-16.9c1.6-11.1,5-19.8,9.6-29.9c2.2-4.7,3.6-9.5,6.5-13.9c2.7-4.2,7.8-8.9,8.3-14c1.8-17.3,8.6-34.1,7-51.5
			c-0.7-7.8,3.3-18.5,6.3-23.3c2.1-3.4,6.3-5.4,9.8-7.1c1.9-1,3.3-2.2,5.1-3.3c2.3-1.5,4.7-1.2,6.7-3.2c7.3-7.1,19-8.6,25.7-15.9
			c2.5-2.7,1.6-7.5,0.1-11.9c-3-3.9-4.7-8.4-5.8-14c-0.1,0-0.2,0.1-0.3,0.1c-3,0.9-5.2-6-5.8-7.8c-1.5-4.8-1.2-9.2,0.5-9.7
			c0.1,0,0.3-0.1,0.4,0c-1.7-8.9-2.7-21,2.6-28.9c5.3-8,15.2-12,24.5-12s19.2,4,24.5,12c5.5,8.2,3.9,19.9,1.3,28.9
			c0.2,0,0.4,0,0.6,0c1.7,0.5,2.1,4.8,0.9,9.7c-0.5,1.8-2.4,8.5-5.3,8c-0.3,1.6-1.5,4.2-2,5.7l0.5,3.4l0,0c0.2,1.8,0.8,7.9,1.7,10.6
			c1.3,3.8,4.5,5.5,8.1,7.5c7.5,4,15.1,7.4,22,12.2c2.8,1.9,8.3,3.1,11.6,4.1c4.3,1.4,9.4,2.8,12.2,6.6c3.8,5,4.7,12.6,5.5,18.6
			c0.7,5.1-1,13.5,1.6,17.8c0.3,0.5,0.7,1.1,1.1,2.6c2.5,8,3.2,17.1,3,25.4c-0.2,8.9-3.5,18.8-2.1,27.6c0.9,5.5-6.5,9.3-8.6,13.4
			c-2.9,5.6-7,11.2-11.7,15.4c-4,3.5-7.5,5.5-9.5,6.5c-1.1-5.9-0.5-10.2-0.5-16.1c0-4.9-1.5-9.5-2.9-14.1l0.4-1.3
			c0.7-2.5,7-12.7,10.3-12.7l1.6-0.5c-2.4-4.8-3.1-10.3-3.6-15.5l-3,0.1c0,0,0,2.4-0.7,5.7c-1.2,5.8-5.7,10.9-7.7,16.6
			c-2.2,6.2-0.5,12,1.2,18.1c1.5,5.4-0.7,10.3-0.1,15.6c0.4,3.9,1.4,7.5,1.5,11.6c0.1,8.8-0.8,18.1,3.8,26c4.8,8,6.9,16.9,8.6,26
			c3.2,17.2,4,58.5,4,58.9h3c0-1.6-0.8-42-4-59.5c-1.7-9.4-4-18.7-8.9-27s-3.1-18.9-3.5-28.2h0.1c0.2-0.1,5.6-2,12.1-7.8
			c4.3-3.8,7.8-8.6,10.8-13.5c2.5-4.1,5.6-7.2,8.3-11.1c2.7-3.8,1.8-7.5,2.2-11.9c0.5-5.8,1.3-11.5,1.8-17.3
			C10.4,241.4,9.8,230.3,6.7,220.5C6.1,218.7,8.3,225.6,6.7,220.5z M-24.1,263.8c1-2,2-3.8,2.7-5.4c0.4,1.7,0.8,3.4,1.3,4.8
			c-3.4,2.2-5.9,5.7-8.1,9.1C-27.2,269.7-25.6,266.6-24.1,263.8C-23.1,261.8-25.6,266.6-24.1,263.8z"/>
	</g>
	<g>
		<path class="st0" d="M290.3,427.9h-3.9c0-0.1,3.1-9,4.5-19.8c1.1-9-4.8-19.4,0.2-27.9c4.8-8.2,14.5-12.1,16.1-22.2
			c1-6.4,1.5-15.9-2-24.6c-2.1-5.3-8.5-8.2-9.6-13.9c-2.1-11.1-2.3-28.4,4-40.9c5.9-11.8,14.7-24.3,14.7-37.9v-2.6h0.1
			c0.7-7.3,5.1-14,5.1-21.4c0-4.5-1-9.1-1.9-13.5c-2.2-11-4.8-24.3-11.6-33.6c-4.9-6.7-11.4-11.9-17-17.9c-1.4-1.5-2-2.3-2.9-6.4
			c-0.8-4.1,0.9-7.2,2.5-9.9c3.6-6.4,8.1-13.1,9.5-20.3c1.9-9.6-0.5-20-6.4-27.8c-11.6-15.5-40.5-16.5-53.1-1.3
			c-4.3,5.3-5.7,12.3-4.1,21.1c0.3,0.8,1.4,3.6,1.2,5.9c-0.3,2.7-1.9,5.2-2.7,7.8c-0.3,1-2.8,6-2.5,6.7c0.5,1,3.1,1.2,3.9,1.2
			c0.5,0.1,1,0.4,1.3,0.8c1.2,1.6,0,4.2-0.1,5.9c0,0.2,0,0.4,0.1,0.5c0.2,0.2,0.5,0.2,0.6,0.2h5.8l-5.1,2.8
			c-0.2,0.1-0.6,0.5-0.4,1.1c0.1,0.1,0.5,0.3,0.8,0.4c0.7,0.3,2.4,1.1,2,3c-0.3,1.7-3,3-2.4,4.8c2,7.1,10.8-0.2,12.5,7.3
			c0.5,2.2,1.2,4.1,2.3,6c1.2,2.1,2.4,4.2,1.6,8.3c-1.4,7.2-7.8,14.4-14.5,21.9c-10.6,11.9-21.5,24.2-14.1,37.7
			c3.9,7.1-1.5,16.5,0.2,24.1c1.4,6.2,3.8,12.1,4.9,18.3c1.5,8-4.6,15.1-5.3,23c-0.6,7.6-1.7,15.1-2.8,22.6
			c-1,7.4,2.7,14.4,2.8,21.8c0.5,1.2,1.1,2.6,1.7,3.9c3.8,8.4,8.4,18.8,2.3,25c-1.8,1.8-2.7,4.2-2.6,6.9c0.1,3.6,2,7.3,4.9,10
			c3.2,2.8,2.3,6.6,1.2,11c-2.7,10.6-0.9,21.1,1.1,31.7h-3.7c-1.1-5.5-1.6-11.2-1.8-16.8c-0.2-4.7-0.1-9.2,1-13.8
			c0.6-2.7,2.8-7.5,0.2-9.8c-3.6-3.2-5.8-7.7-6-12.1c-0.1-3.5,1.1-6.7,3.4-9.1c4.7-4.7,0.7-13.7-2.9-21.7c-0.7-1.5-1.3-3-2-4.5
			c0-7.8-3.9-14.9-2.8-22.8c1-7.4,2.1-14.9,2.7-22.4c0.6-7.4,6.7-14.9,5.3-22.2c-1.2-6.2-3.5-12.1-4.9-18.2c-1.6-7,3.6-17,0.1-23.4
			c-8.5-15.3,3.7-29,14.4-41.2c6.4-7.2,12.5-14.1,13.8-20.5c0.6-3-0.6-4.9-2-7.5c-1.1-2-1.1-5.5-2.4-7.2c-0.6,0-1.2,0-1.8,0.1
			c-5.2,0.6-8.7-0.2-10.2-5.6c-0.7-2.5,0.7-4.2,1.7-5.4c0.1-0.1,0.3-0.3,0.4-0.5h-0.1c-0.8-0.4-2-0.9-2.4-2.3
			c-0.3-1-0.2-1.9,0.1-2.6c-0.1-0.1-0.2-0.2-0.3-0.2c-0.5-0.5-1-1.3-1-2.6s0.3-2.5,0.5-3.8c-2.3-0.4-4.4-0.8-5.3-2.7
			c-1-1.9,0.1-3.5,0.9-4.7c1.7-2.6,3.6-8.4,3.9-11.5c0.2-1.6-0.5-3.4-1.1-4.8c-1.9-9.7-0.3-17.7,4.7-23.7
			c8.6-10.4,26.9-13.9,39.6-10.8c15.7,3.9,25.9,19.3,25.8,35c0,6.6-2.1,13.1-5,19c-2.5,5-8.8,11.6-7.7,17.5c0.7,3.4,1,3.7,2.1,4.9
			c5.7,6.1,12.2,11.4,17.2,18.2c7.5,10.1,10.3,24.8,12.6,36.9c1,5.4,2.1,11.1,1,16.6c-1.6,7.6-4.9,14.1-4.7,22h-0.1
			c-1.2,13.3-9.1,25-14.9,36.6c-5.9,11.9-5.7,28.4-3.7,39c1,5.2,7.5,8.4,9.5,13.4c3.7,9.3,3.2,19.4,2.2,26.2
			c-1.7,10.8-11.4,14.5-16.5,23.2c-4.5,7.7,1.2,18.4,0.2,26.7C292.4,419.5,290.4,427.5,290.3,427.9
			C290.3,427.9,290.4,427.5,290.3,427.9z"/>
	</g>
</g>
<path id="gall_bladder" class="st0" d="M-93.4,268.4c0,4.8-9.3,10.5-16,10.5s-7-6-8.4-10.5c-2.8-8.6,5.5-8.6,12.2-8.6
	C-98.8,259.8-93.4,263.6-93.4,268.4z"/>
<path id="spleen" class="st0" d="M-40.4,258.8c0,0,3.2-1.4,4.9,1.6s2.2,9.1,1.2,11.8c-1,2.7-2.6,7.1-2.7,9.3
	c-0.2,2.2-3.5,3.2-4.3,0.7c-0.8-2.6-1.4-8-2.8-10.3c-1.4-2.3,2.8-4.4,3.3-7.1C-40.2,262.1-40.4,258.8-40.4,258.8z"/>
<path id="muscle" class="st0" d="M-24.2,394c-1-3.3-3.2-4.8-7.3-9.5c-5.6-6.4-9.4-15.7-10.7-25.1c-1.2-8.6,1.9-19.4,1.9-19.4
	s0.2,0,0.5-0.1c-0.4,2.3-1.3,8.6-0.6,11.5c0.9,3.6,2.8,12.6,2.8,12.6l-1.4-12.5l3.4,11.4l-1.9-13.9l4.2,11.4l-2.7-15.6l5.2,11.1
	l-3.6-14.6l4.5,7.9l-2.8-10.3l3.4,3.3l-1.6-7.1l2.1,4.1v-5.7c1.2,0.8,1.1,3.5,1.4,4.8c0.7,3.3,1.9,6.6,3.1,9.8
	c1.2,3.3,2.6,6.5,3.6,9.8c2.6,8.5,5.8,19.2,4.9,28l-2.7-7.6v8.4l-3.7-7.3l2.2,9.2l-3.9-6.2l1.6,7.4l-3.3-4.2
	C-25.1,388.4-24.6,391.2-24.2,394C-25.3,390.7-24.2,394-24.2,394z M-54.9,351.8c1.8,14.1-2.3,28.8,0.8,42.6
	c2.3,10.4,6.3,26.1,13.9,33.4H-23c0,0,1.2-12.3-1.9-24.4c-1.5-5.8-4.3-13.2-4.3-13.2l2.7,23.7l-6.3-26.9l2.9,26.9l-6.5-32.1
	l2.2,28.9l-6-35.2l1.2,27.6l-3.9-31.6l-0.9,26.1l-3.2-30.7v23.7l-3.7-41L-54.9,351.8L-54.9,351.8z M-23,399.4c0,0,3.8,10,3.3,28.4
	h6.2c0,0,0.4-12.9-2.6-20.2c-0.7-1.4-8-11.5-8.1-11.4C-24.5,397-23.4,398.9-23,399.4L-23,399.4z M-62.8,375.1
	c-6.9,5.7-6.6,18.6-3.2,26.2c2,4.5,5.2,8.6,7.3,13.1c2,4.4,3,9.1,5,13.5h7.9c-5-7.2-7.7-16.4-9.3-25l1.2,12
	c-2.8-8.4-3.9-17.5-4.5-26.3c-0.5,7.2-0.4,14,0.9,21.1c-2-10-3.3-19.5-2.8-29.7c-2.9,5.2-0.2,11.2-2.6,16.2
	c-2.4-5.4-2.9-14.3,1.4-19L-62.8,375.1L-62.8,375.1z"/>
<path id="pancreas" class="st0" d="M267.5,258.6c3.2,0.7-2.4,8.5-3,9.8c-0.5,1.1,0.5,1.7-0.8,2.8c-1,0.7,0.5,0.9,0.1,2.1
	c-0.6,1.8,0.1,5.2-1.5,6.5c0.5,1.2,0,3-0.9,3.7c0.4,5.1-9.1,2.9-6,0.6c-1.7-2.9,1.9-6.3,1.4-9.1c-0.3-1.5,2-6.9,3.2-7.6
	C257.5,266.2,266.1,259.4,267.5,258.6C269,259,267.5,258.6,267.5,258.6z"/>
<path id="urine" class="st0" d="M-57.5,355.2c-2,4.2-9.1,11.5-11.6,12.2c2.1,4.6,2.5,10,2.5,10.2c0.1,0.8-0.6,1.5-1.4,1.6h-0.1
	c-0.8,0-1.4-0.6-1.5-1.4c0-0.1-0.6-7.1-3.4-11.3c-5.1-1.7-13.3-5.5-14.5-9.1c-2.4-6.9,7.2-8.9,16.1-8.9
	C-62.6,348.5-54.3,348.4-57.5,355.2z M235.9,357.6c2.6,3.8,10.3,9.3,10.3,9.3c1.3,1,1.4,2.4,0.2,3.2c-1.1,0.7-5.3,1-8.6,2.4
	c-2.9,1.3-4.4,3-4.4,3l0.9,0.6c0,0,3.4-2.1,7.7-2.8c4.6-0.7,5.5-1.4,6.5-2.5c1.6-1.7,1.9-2.6,5.4-3.2s5.8-2.2,6.5-4.7
	c0.7-2.5,1.5-11.3-0.8-13.3c-2.3-2-2.2-2.3-12.7-2.4c-10.4-0.1-12.8,2.4-13.3,4.3C233.7,351.6,233.7,354.5,235.9,357.6z"/>
<path id="saliva" class="st0" d="M-75.6,141.1c-0.7,1.9-2.8,2.6-5,2.6s-4.5-0.4-4.7-2.6c-0.1-1.8,1.2-2.1,2.3-0.9
	c0.5,0.6,1.5-1,2.4-0.9c1,0.1,2.2,0.9,3,0.5C-76.3,139.2-75.2,139.9-75.6,141.1z M-94,129.7c-0.8-1.3,0.4-3.6,0.1-5.4
	c-0.3-1.7-0.1-3.3-0.6-4.4c-0.5-1.2-0.5-2.9-3.1-2.2c-2.5,0.7-1.4,3.5-0.6,7.3s2.4,9.2,4,8.5C-92.9,133.1-93.4,130.7-94,129.7z
	 M-66.1,134.6c1.7,0.8,2.9-4.5,3.4-8.2c0.6-3.7,1.5-6.4-1.1-7.4c-2.6-0.9-2.5,0.8-2.9,1.9c-0.4,1.1-0.2,2.7-0.3,4.4
	c-0.1,1.8,1.2,4.2,0.5,5.4C-67.1,131.7-67.4,134-66.1,134.6z M-92.2,137c-1.1,0.5,0.2,1.6,1.3,4.2c1.1,2.5,2.6,3.1,3.6,2.6
	c1.1-0.5,0.6-1.1-0.5-3.6C-88.9,137.6-91.1,136.5-92.2,137z M-73.4,140.1c-1.1,2.5-1.6,3.2-0.5,3.6c1.1,0.5,2.5-0.1,3.6-2.6
	s2.4-3.7,1.3-4.2C-70,136.5-72.3,137.6-73.4,140.1z M244,145.7c-1.3,0.5-4.4-1.7-4.6,0.4c-0.1,1,0.4,3.3,3,3.3
	c2.5,0,6.2-2.4,6.2-3.4C248.6,144.9,247,144.5,244,145.7z M251.7,144.9c-2.3,1-4,3.6-3.7,4.5c1.1,3.2,4.1,0,6.1,0.6
	c2.4,0.7,3.5-3.7,3.1-4.6C256,142.7,254,143.9,251.7,144.9z M256.6,125.5c-1.4,2.4-0.8,3.2,0.6,8.4c1.4,5-0.7,9.5,1.9,9.1
	c2.6-0.4,6.3-4.2,5.6-10.3c-0.6-5.3-0.8-13.5-5.7-8.2C258.8,124.7,257.2,124.4,256.6,125.5z"/>
<path id="lymph_nodes" class="st0" d="M-117.6,184.1c-0.1,0.7-0.4,1.3-0.7,1.8c-0.4,0.7-0.9,1.4-1.4,2c0,0.2,0,0.4,0,0.6
	c0,0.7-0.1,1.4-0.2,2c-0.2,1.4-0.5,2.7-1.1,4s-1.4,2.5-2.4,3.5l-0.4,0.3c-0.1,0.1-0.2,0.2-0.3,0.3c-0.2,0.2-0.3,0.4-0.4,0.7
	c-0.2,0.5-0.3,1-0.4,1.6c-0.2,2.4,0.5,4.9,1.2,7.4l0.2,1c0.1,0.4,0.1,0.7,0.2,1.1c0.1,0.7,0,1.4-0.1,2.1c-0.3,1.4-0.8,2.6-1.7,3.8
	v-0.1c-0.4,0.6-0.7,1.3-1,1.9c0.7,0.7,0.8,2.3,0.1,4s-1.9,2.9-3,3.1c-0.2,0.6-0.3,1.3-0.3,1.9c0,0.4,0,0.7,0.1,1.1
	c0,0.2,0.1,0.3,0.2,0.5c0.1,0.2,0.2,0.3,0.3,0.5c0.3-0.4,0.6-0.7,1.1-0.8c1.1-0.1,2.1,1.4,2.3,3.3c0.2,1.9-0.5,3.5-1.6,3.6
	c0,0,0,0-0.1,0c-0.2,1.1-0.6,2.1-0.8,3.1c0.7,0.4,1.3,1.4,1.5,2.6c0.2,1.4-0.1,2.6-0.7,3c0.5,1.1,1.1,2.2,1.7,3.2
	c0.9,1.3,2.1,2.4,3.5,3.2c-1.4-0.8-2.7-1.8-3.6-3.1c-0.7-1-1.3-2.1-1.8-3.1c-0.1,0.1-0.2,0.1-0.4,0.1c-1,0.1-2-1.1-2.3-2.8
	s0.3-3.2,1.3-3.3c0.1,0,0.3,0,0.4,0c0.2-1,0.6-2,0.7-3c-0.9-0.4-1.6-1.6-1.7-3.2c-0.1-0.8,0-1.5,0.2-2.1c-0.1-0.1-0.1-0.2-0.2-0.3
	c-0.1-0.1-0.2-0.3-0.4-0.5c-0.1-0.2-0.2-0.4-0.3-0.6c-0.1-0.4-0.2-0.9-0.2-1.3c0-0.7,0.1-1.4,0.2-2c-1-0.5-1.2-2.3-0.4-4.2
	c0.7-1.8,2.1-3.1,3.2-3.1c0.3-0.7,0.7-1.4,1-2l0,0v-0.1c0.7-1,1.2-2.2,1.4-3.4c0.1-0.6,0.1-1.2,0-1.8c0-0.3-0.1-0.6-0.2-0.9
	l-0.3-0.9c-0.7-2.5-1.6-5.1-1.4-7.9c0.1-0.7,0.2-1.5,0.5-2.2c0.1-0.4,0.3-0.7,0.6-1c0.1-0.2,0.2-0.3,0.4-0.5l0.3-0.4
	c0.8-0.8,1.5-1.9,1.9-3c0.5-1.1,0.7-2.3,0.9-3.5c0,0,0,0,0-0.1c-1,1-2.1,2.1-3.1,3.1c-0.1,0.1-0.2,0.2-0.2,0.2
	c0.1,0.8,0,1.7-0.3,2.7c-0.7,2.4-2.2,4.1-3.4,3.8c-0.5-0.1-0.8-0.6-1.1-1.3c-1,1.3-1.9,2.8-2.2,4.3v0.1c0.1,0.3,0.2,0.6,0.3,0.9
	c0.6,2.2,0.3,4.2-0.8,4.5c-0.2,0-0.4,0-0.6-0.1c-0.1,0.3-0.2,0.6-0.4,0.9c-0.5,1-1.3,1.9-2.1,2.7c-0.3,0.3-0.7,0.6-1,1
	c0.1,0.5,0.1,1.1,0.1,1.8c-0.2,2-1.1,3.5-2.1,3.4c-0.2,0-0.3-0.1-0.5-0.2l-0.7,2.2c-0.3,1-0.6,2-0.8,3.1c-0.2,1-0.1,2.1,0.1,3.2
	c-0.3-1-0.4-2.1-0.3-3.2c0.1-1.1,0.3-2.1,0.5-3.2l0.6-2.8c-0.4-0.7-0.6-1.8-0.5-2.9c0.2-2,1.1-3.5,2.1-3.4c0.4,0,0.8,0.4,1,0.8
	c0.2-0.2,0.4-0.4,0.5-0.6c0.7-0.8,1.3-1.5,1.7-2.4c0.2-0.4,0.3-0.8,0.4-1.3c-0.5-0.6-0.9-1.5-1.2-2.5c-0.6-2.2-0.3-4.2,0.8-4.5
	c0.5-0.1,1,0.1,1.5,0.6c0.6-1.7,1.7-3.1,2.7-4.5c0.2-0.3,0.5-0.6,0.7-0.8c0-0.3,0.1-0.6,0.2-0.9c0.7-2.5,2.2-4.1,3.4-3.8
	c0.2,0,0.3,0.1,0.5,0.3c1.3-1.4,2.7-2.8,3.9-4.2c0.1-0.2,0.3-0.3,0.4-0.5c0-0.1,0-0.2,0-0.4h0.2c0.4-0.5,0.8-1,1-1.6
	c0.2-0.4,0.4-0.8,0.4-1.1c0-0.2,0-0.3,0-0.4c0-0.1,0-0.1,0-0.2c0,0,0,0,0-0.1l-0.1-0.2l2.2-1c0,0.1,0.1,0.2,0.2,0.5
	c0.1,0.2,0.1,0.4,0.1,0.6C-117.5,183.3-117.5,183.7-117.6,184.1z M-90.9,149.8c1.2-1.8,1.3-3.6,0.4-4.2c-0.5-0.3-1.1-0.2-1.8,0.2
	c0-0.6-0.1-1.2-0.3-1.7c-0.4-1.2-1-2.2-1.8-3.2c0.2-0.6,0.3-1.4,0.3-2.3c0-2.4-1-4.4-2.2-4.4c-1.2-0.1-2.2,1.8-2.2,4.2
	s1,4.4,2.2,4.4c0.2,0,0.4,0,0.6-0.1c0.5,0.6,1,1.3,1.3,2c0.2,0.5,0.3,1,0.4,1.5c0,0.4,0,0.8,0,1.2c-0.1,0.1-0.1,0.2-0.2,0.3
	c-1.1,1.8-1.3,3.6-0.4,4.2c0.2,0.1,0.3,0.1,0.5,0.1c0.2,1.3,0.7,2.5,1.3,3.5c0.1,0.2,0.3,0.5,0.4,0.7c-0.8,0.2-1.6,1.4-1.9,2.9
	c-0.4,1.8,0.1,3.5,1.1,3.7c0.7,0.2,1.5-0.5,2-1.7c0,0.4,0,0.9,0,1.3c0,2.5,0.4,5.1-0.8,7.3c0.7-1,1.1-2.3,1.3-3.5
	c0.1-1.3,0.2-2.5,0.2-3.8c0.1-1.2,0.2-2.5,0-3.8s-0.7-2.6-1.3-3.7c-0.6-1.1-0.9-2.2-1-3.3v-0.1C-92.1,151.3-91.4,150.6-90.9,149.8z
	 M-61.3,162.7c-0.5-1-0.9-2-1.4-3c0.2-0.6,0.2-1.3,0.1-2c-0.2-1.1-0.7-2-1.3-2.5c0.1-0.8,0.3-1.5,0.6-2.3c0.1-0.3,0.2-0.6,0.3-1
	c0.9-0.3,1.6-1.8,1.4-3.5c-0.2-1.9-1.2-3.4-2.3-3.3c-0.3,0-0.6,0.2-0.8,0.4c-0.3-0.5-0.5-0.8-0.6-1.2s-0.1-0.9,0-1.4
	c0.1-0.4,0.2-0.8,0.4-1.1c1-0.4,1.9-1.5,2.5-3c0.8-2,0.5-4-0.6-4.3c-1.2-0.3-2.8,1-3.6,3.1c-0.6,1.4-0.6,2.7-0.2,3.6
	c-0.2,0.5-0.3,1-0.4,1.5c-0.1,0.7,0,1.5,0.2,2.2s0.7,1.3,1.1,1.7c0.1,0.2,0.3,0.4,0.4,0.5c-0.1,0.5-0.1,1-0.1,1.6
	c0.1,1.4,0.7,2.5,1.4,3c-0.1,0.3-0.1,0.6-0.2,0.9c-0.2,0.7-0.4,1.5-0.5,2.3c0,0,0,0-0.1,0c-1,0.1-1.5,1.6-1.3,3.3
	c0.3,1.7,1.3,2.9,2.3,2.8c0.3,0,0.6-0.3,0.9-0.6c0.4,0.9,0.9,1.7,1.4,2.5c0.7,1,1.7,1.7,2.8,2.3C-59.8,164.5-60.7,163.8-61.3,162.7z
	 M269.8,134.9c-1-0.6-3,0.3-4.3,2c-0.9,1.2-1.3,2.5-1.1,3.4c-0.3,0.4-0.6,0.8-0.8,1.3c-0.3,0.7-0.4,1.4-0.3,2.2c0,0.7,0.4,1.5,0.6,2
	c0.1,0.2,0.2,0.4,0.2,0.6c-0.2,0.4-0.4,1-0.5,1.5c-0.2,1.3,0,2.6,0.5,3.3c-0.1,0.3-0.3,0.5-0.5,0.8c-0.4,0.6-0.8,1.3-1.1,2.1
	c0,0,0,0-0.1,0c-1-0.1-1.9,1.1-2.1,2.8s0.5,3.2,1.5,3.3c0.3,0,0.7-0.1,1-0.3c0.2,0.9,0.4,1.9,0.7,2.8c0.4,1.2,1.2,2.1,2.1,2.9
	c-0.8-0.9-1.5-1.9-1.8-3s-0.4-2.2-0.5-3.3c0.3-0.5,0.5-1.2,0.6-1.9c0.1-1.1-0.2-2.1-0.6-2.7c0.3-0.7,0.7-1.4,1.2-2
	c0.2-0.3,0.4-0.6,0.6-0.9c1,0,2-1.3,2.3-3.1c0.3-1.9-0.3-3.6-1.3-3.8c-0.3-0.1-0.6,0-0.9,0.2c-0.2-0.5-0.3-0.9-0.3-1.3
	c0-0.5,0.1-0.9,0.3-1.3c0.2-0.3,0.4-0.7,0.7-1c1-0.1,2.3-0.9,3.2-2.2C270.6,137.5,270.8,135.6,269.8,134.9z"/>
<path id="thyroid_gland" class="st0" d="M-71.3,162.9c-0.2,2.9-1.6,5.3-3,5.2c-0.3,0-0.6-0.1-0.8-0.3c0,0-2-0.7-3.6-0.5
	c-0.9,0.1-1.7,0.4-2.2,0.6c-0.2,0.6-0.6,0.9-1.1,1c-1.4,0.3-3.3-1.7-4.1-4.5c-0.9-2.8-0.4-5.3,1-5.6s3.1,1.5,4,4.1
	c0.5,0.2,1.1,0.2,1.9,0.1c1.2-0.1,2.1-0.4,2.7-0.7c0.3-2.7,1.6-4.9,3-4.9C-72.1,157.6-71.1,160-71.3,162.9z M255.6,159.8
	c-1.8,0.5-2.6,3.1-1.8,5.8c0.7,2.7,2.8,4.6,4.5,4.1c1.8-0.5,2.6-3.1,1.8-5.8C259.4,161.1,257.3,159.3,255.6,159.8z"/>
<path id="eye" class="st1" d="M-85.5,114.4c0,0-2.9,3.7-6.5,3.7s-6.5-3.7-6.5-3.7s2.9-3.7,6.5-3.7S-85.5,114.4-85.5,114.4z
	 M-89.3,114.4c0-1.5-1.2-2.8-2.8-2.8c-1.5,0-2.8,1.2-2.8,2.8c0,1.5,1.2,2.8,2.8,2.8C-90.5,117.1-89.3,115.9-89.3,114.4z
	 M-91.3,114.4c0,0.4-0.3,0.8-0.8,0.8c-0.4,0-0.8-0.3-0.8-0.8s0.3-0.8,0.8-0.8C-91.6,113.6-91.3,113.9-91.3,114.4z M-68.5,110.7
	c-3.6,0-6.5,3.7-6.5,3.7s2.9,3.7,6.5,3.7s6.5-3.7,6.5-3.7S-64.9,110.7-68.5,110.7z M-65.7,114.4c0-1.5-1.2-2.8-2.8-2.8
	c-1.5,0-2.8,1.2-2.8,2.8c0,1.5,1.2,2.8,2.8,2.8S-65.7,115.9-65.7,114.4z M-67.7,114.4c0,0.4-0.3,0.8-0.8,0.8c-0.4,0-0.8-0.3-0.8-0.8
	s0.3-0.8,0.8-0.8S-67.7,113.9-67.7,114.4z M237.4,110.7c-3.6,0-3.6,7.4,0,7.4s6.5-3.7,6.5-3.7S241,110.7,237.4,110.7z M239.3,114.4
	c0-1.5-1.2-2.8-2.8-2.8c-1.5,0-2,1.2-2,2.8c0,1.5,0.4,2.8,2,2.8C238,117.1,239.3,115.9,239.3,114.4z M237.3,114.4
	c0,0.4-0.3,0.8-0.8,0.8c-0.4,0-0.8-0.3-0.8-0.8s0.3-0.8,0.8-0.8C236.9,113.6,237.3,113.9,237.3,114.4z"/>
<path id="kidney" class="st0" d="M-53.3,308.4c-8.9,0-9.5-6.7-5.2-12.8c1.3-1.8-2.1-4.4-2.3-6.8c-0.3-6.2,2.3-5.2,2.5-7.1
	c0.4-3.6-4.1-5.6-0.5-9.6c2.2-2.4,7.6-3.2,10.1-2.3c4.9,1.8,9.1,9.1,9.3,19.3C-39,299.1-46.9,308.4-53.3,308.4z M-97,307.4
	c8.9,0,9.5-6.7,5.2-12.8c-1.3-1.8,2.1-4.4,2.3-6.8c0.3-6.2-2.3-5.2-2.5-7.1c-0.4-3.6,4.1-5.6,0.5-9.6c-2.2-2.4-6.9-2.7-9.4-1.8
	c-4.9,1.8-9.8,8.6-10,18.8C-111.3,298.1-103.4,307.4-97,307.4z M267.5,309.9c2.9,0.2,7.7-4.7,8.7-8.6s4.2-7.8,3.8-11.8
	s-1.1-5.7-0.6-7.7s6.1-8,0.6-9.2c-5.4-1.2-11.7-1.2-12.4,4.3s-1.7,4.7-2.3,9.5s1.2,9.7,0,13.9c-1.2,4.1-1.5,6.8-0.1,8.5
	C266.6,310.5,267.5,309.9,267.5,309.9z"/>
<path id="adrenal_gland" class="st0" d="M274.9,266.2c1.5,0,1.9,1.6,3.7,3c1.5,1.1,3.5,0.9,3.8,2.7c0.4,1.8-0.7,1.2-4.9,0.6
	c-4.2-0.5-8.8,1.4-9.2,2.1c-0.4,0.8-2,0.7-1.4-2.1c0.5-2.8,3.5-2.5,4.7-4.6C272.6,266.2,274.9,266.2,274.9,266.2z"/>
<path id="bone_marrow" class="st0" d="M-20.1,203.8c3-1.2,3.4,1.5,4,4.7c0.7,3.7,2.6,14.1,3.6,17.9c1,3.8,3.7,17.4,5.5,24.1
	c0.7,2.6,2.5,8.1,3.8,10.4s1.9,8.8-1.1,6.5s-4.6-3.6-4.1-8.4s-2.6-12.7-3.7-17.1c-1-4.2-2.6-11.4-3.9-17.1
	c-1.3-5.7-4.7-15.4-5.4-16.6C-22.2,207-23.2,204.9-20.1,203.8z M256.1,427.9l3.1,0.1c0,0,0.4-1.6,0.5-3.6c0.1-2,3.1-32.5,3.6-37
	c0.4-4.5-2.9-2.8-3.6,1.5c-0.6,4.2-3.6,37-3.6,37V427.9L256.1,427.9z"/>
<path id="stomach" class="st0" d="M259.1,257.5c0.5,5.3-1.1,10.6-2.6,14.1c-1.5,3.5-3.3,5.8-6.7,9.9s-12.4,3.6-14.3,2.9
	c-1.9-0.7-1.1-5.7,0-10.1s6.3-12.1,10.2-16.2c3.9-4.1,6.7-5.8,11.1-5.5C256.8,252.5,258.7,252.2,259.1,257.5z M-89.3,225.7l-1.8,3.1
	c0,0-1.3,7.1-0.5,11.9c0.8,4.8-5.7,9.9-11.1,17.3c-3.1,4.3-8,12.7-1.9,19.8c5.9,6.9,12.6,4.7,18.8,6c5.9,1.3,8.5-3.1,20.3-6.7
	c15-4.5,27.2-0.8,27.5-13.3c0.1-3.6,0.1-8.9-7.4-13.9c-7.4-4.9-23.4-4-31.6-4c-11.3,0-10-16.8-10-16.8L-89.3,225.7z"/>
<path id="liver" class="st0" d="M235.2,264.3c-2.5-1.3-5-13.2,0-23.7s12.6-16.5,20.1-16s10.9-0.6,15.1,5.7
	c4.2,6.3,6.7,14.3,1.6,17.5c-5.1,3.2-7.8,3.5-9.7-1.7c-1.8-5.2-3-5.5-2.7-3.2s4.4,4.2-1.1,7.2c-5.5,3.1-10,1.4-13.7,5.9
	C238.2,264.3,235.2,264.3,235.2,264.3z M-103.7,262.5c13.5-3.4,25.7-10.3,39-14.7c4.3-1.4,19.5-2,17.1-10.2
	c-2.8-9.3-16.2-12.1-24.2-13c-14.8-1.6-35.1-3.4-44.2,10.8C-122.9,246.2-119.9,266.6-103.7,262.5C-97.3,260.9-113,264.9-103.7,262.5
	z"/>
<g id="heart">
	
		<ellipse transform="matrix(0.8558 0.5173 -0.5173 0.8558 145.0095 -96.5305)" class="st0" cx="245.7" cy="211.8" rx="11.3" ry="19.7"/>
	<path class="st0" d="M-95.1,192.4c0,0.2-1.8,2.9,0.3,11.1c1.1,4.2-0.6,9.5,3.3,12.7c4.3,3.6,5,8.6,14.8,11.6
		c8.9,2.8,12.3,2.7,15.5-1.4c3.5-4.5,0.5-9.4-1.7-14.8c-1-2.6-6.2-6.9-5.6-13s-4.7-6.6-6.7-8.1s-2-10.7,0.6-14.5l-7.5,2.8
		c-1.2,3-2.4,4.4-3,8.6c-0.2,1.4-0.8,2.2-4,2.4C-93.8,190-95.1,192.4-95.1,192.4z"/>
</g>
<g id="lung">
	<path class="st0" d="M272.2,168.5c-5.5,1.3-7.7,5.7-11.5,8c-3.8,2.4-7.9,7.7-11,12.8s-7.5,14.5-9.5,20.5s-5,10.6-5.1,15.4
		s-2.2,13.2,0,16.2s12.4,11.6,16.9,11.4c4.5-0.2,16.5,5.9,22.7,5.2s6-8.9,11.5-11.5s4.5-7.4,5.1-14.1c0.6-6.6,3-23.4-1.2-42.4
		C285.9,171.1,272.2,168.5,272.2,168.5z"/>
	<g>
		<path class="st0" d="M-91.6,216.1c-3.9-3.2-2.2-8.5-3.3-12.7c-2-8.2-0.3-10.9-0.3-11.1c0,0,0.9-1.6,3.9-2.3
			c-2.4-12.7-8.3-22.5-21.9-8.4c-10.8,11.2-13.7,56.8-5.8,70.5c-0.6-1,2-14.6,8.6-20.3s16.3-7.1,19.8-14.6
			C-90.8,216.8-91.2,216.4-91.6,216.1z"/>
		<path class="st0" d="M-30.2,227.9c0.9-8.8-0.4-20.3-4-28.5c-7-16.1-12.8-36.2-35.5-26.8c-3.7,1.8-5.2,7.9-5.8,17.5
			c0.1,0.1,0.1,0.2,0.2,0.2c2,1.5,7.3,2,6.7,8.1c-0.6,6.1,4.6,10.4,5.6,13c2.1,5.4,5.2,10.2,1.7,14.8c-0.8,1-1.5,1.7-2.4,2.2
			c12.9,9.5,27.9,26,29.3,29.5C-23.9,256.5-30.8,233.4-30.2,227.9z"/>
	</g>
</g>
<path id="intestine" class="st0" d="M270.7,346.2c0-2.5-0.8-3.7-0.8-3.7s0.8-0.6,0.6-2.6s-1.8-2.7-1.8-2.7s2.2-0.8,0.9-2.7
	c-1.3-1.9-2.5-2.4-2.5-2.4c0.7-1.1,1.3-2.5,0.6-3.9c-1.3-2.6-2.4-2.9-2.4-2.9s0.9-2.7,0.6-3.9c-0.3-1.3-1.4-2.2-1.4-2.2
	s0.3-3.7-0.5-4.4c-0.9-0.7-1.7-2.1-1.7-2.1s1.2-2.4,0.9-3.9c-0.3-1.4-1.2-2.4-1.2-2.4s1.3-2.2,0.3-3.6s-2-3-2-3s1.4-1.7-0.3-4
	s-2.9-2.7-2.9-2.7s-0.7-4.6-2.5-5.3c-1.8-0.7-2.4-0.6-2.4-0.6c-3-3.7-9.4-1.6-13.3-0.2c-2.6,0.9-6.4,4.7-6.8,7.5
	c0,0-1.6,0.8-2.1,2.6c-0.5,1.8-0.2,3.1-0.2,3.1s-0.6-0.3-1.5,1.3c-0.9,1.6-0.8,3.5-0.8,3.5l-1.2,2.3c0,3.8,1.7,7.2,4.4,7
	s3.2-0.4,4.6-0.1c0.6,0.1,1.7-0.6,2.7-1.6c-0.1,0.4-0.2,0.8-0.3,1.2c-0.3,1.1-5.7,1.4-6.8,2.4c-3,3,3.4,3.5,4.6,3.6
	c1,0,2.5-0.2,3.8-0.8c-2.1,1.8-3,4.9-1.4,6c2,1.3,3.7-1,4.1-0.9c-1.3,1.3-1.8,3.4-1.6,5c0.1,0.7,0.3,1.3,0.6,1.8
	c-0.7-0.3-1.5-0.4-2.2-0.4c0.2-2.3-2.4-4.2-2.5-6c-0.4-5.7-7.8-4.5-4.5,1.3c0.8,1.4-2.9,5.9-1.9,9c0.4,1.1,1.2,2,2.2,2.4
	c0.1,0.1,0.3,0.1,0.4,0.1c-0.3,0.4-0.6,0.9-0.7,1.5c-0.1,0.6-0.2,1.7,0.8,3c2.1,2.8,6.6,2.9,9.2,1.2c0.4-0.3,1-0.3,1.3-0.3
	c0.6,0.8,1.5,1.3,2.5,1.3c0.1,0,0.3,0,0.4,0c1.7-0.2,3-1.9,3.6-2.9c0.1-0.2,0.2-0.3,0.2-0.5c1.3,0,2.4-0.7,3.1-1.8
	c1.5-2.8-0.4-7.4-1.1-8.4c-1.2-1.8-3.5-2.2-5.6-2.5c1.7-0.2,3.5,0,5.2-0.6c0.2-0.1,0.5-0.2,0.9-0.5c1,1.3,2.1,1.6,2.1,1.6
	s-2.2,1.1-1.6,2.1c1.7,2.9,1.5,7.9,3.7,10.1c0,0-2.2,0-1.7,1.3c0.4,1.3,1.5,2.1,1.1,2.5s-2.2,1.2-1.5,2.7c0.9,2.1,1.1,4.5,2.2,6.1
	c1.3,1.9,4.5,5.6,6.9,5.4c3.4-0.3,5.2-1.4,6.1-3.5c0.9-2,0.9-4-0.5-5.7C268.6,349.1,270.8,348.6,270.7,346.2
	C270.7,343.7,270.8,348.6,270.7,346.2z M238.8,338.1c0.1-0.3,0.3-0.6,0.3-0.9c0.2-0.7,0.1-1.4-0.1-1.9c1.2,0.4,2.3,1.1,3.4,1.7
	C241.2,337,239.9,337.4,238.8,338.1C238.9,337.9,239.9,337.4,238.8,338.1z M244.3,310.2c-0.2,0.3-0.5,0.6-0.8,0.8
	c0.3-0.8,0.5-1.3,0.7-1.6c0.1,0.1,0.2,0.3,0.2,0.4S244.4,310,244.3,310.2C244,310.5,244.4,310,244.3,310.2z M247.5,333
	c0.2,0.3,0.3,0.9,0.5,1.4c-1.1-0.6-2.1-1.2-3.1-1.9C245.5,332.6,246.9,332.8,247.5,333C247.6,333.4,246.9,332.8,247.5,333z
	 M247.4,322.1c-0.4,0-0.8,0-1.3,0.1c0.7-0.5,1.4-1,2.1-1.5c0.1,0.4,0.2,0.9,0.3,1.4C248.2,322.1,247.8,322.1,247.4,322.1
	C247,322.2,247.8,322.1,247.4,322.1z M244.6,317c1.1-1.2,2.4-2.1,3.4-3.3c1.3-1.5,1.7-3.4,1.2-5.3c-0.6-2.1-2.3-3.8-4.3-4.4
	c-1-0.3-2-0.1-3,0.4c-0.2,0.1-0.3,0.2-0.5,0.3c0.6-2.7,1.4-5.4,2.7-5.6c1.8-0.2,3.5,1.2,4,1.6c0.4,0.3,1.1-0.4,1.2-0.5
	c-0.2,0.2-1.4,1.6-0.9,2.8c0.5,1.3,1.7,2.1,1.7,2.1s-1.8,1.3-1,2.6c0.8,1.2,2.2,2.6,2.2,2.6s-2.2-0.5-1.6,1.7
	c0.5,2.2,2.5,4.3,2.5,4.3s-0.3,0.1-0.7,0.3c-0.4-0.4-0.8-0.8-1.2-1C248.3,314.5,246.3,315.8,244.6,317
	C245,316.6,246.3,315.8,244.6,317z M-30.1,319c-0.6-4.7,1.1-10-0.2-14.6c-0.5-2-1.6-3.7-2.5-5.5c-1.8-3.7-6.7-7-10.8-7.4
	c-0.7-0.1-1.3-0.1-1.9,0c-0.5-0.2-1-0.4-1.5-0.5c-1.7-0.4-3.4-0.2-4.9,0.5c-0.2,0-0.5-0.1-0.7-0.1c-1.1-0.1-2.2,0-3.3,0.4
	c-0.8-0.3-1.7-0.5-2.6-0.6c-1.4-0.2-2.5,0-3.5,0.2c-0.9-0.3-1.9-0.6-3-0.8c-1-0.1-2-0.2-2.8-0.1c-1-0.7-2.2-1.3-3.5-1.6
	c-3.1-0.7-8.5,0.1-11.7,0.7c-0.6,0.1-1.1,0.3-1.6,0.5c-0.9-0.3-1.9-0.4-3.1-0.5c-2.2,0-4.8-0.3-6.9,0c-1.6,0.2-3,0.8-4.3,1.6
	c-0.2-0.1-0.3-0.1-0.5-0.2c-3.5-1-10.9-1.3-14.6-0.5c0.6-0.2,1.2-0.5,1.7-0.7c1.3-0.4,2-1.8,1.6-3.2c-0.4-1.3-1.8-2-3.2-1.6
	c-1.9,0.6-6.3,2.3-7.7,5c-0.5,1-0.6,2.1-0.2,3.1c0.3,0.9,0.9,1.5,1.6,2c-0.9,2-0.9,4.1-0.5,5.8c-0.7,1.8-0.4,4.4,1.4,5.7
	c1.1,0.8,1.4,1.1,1.4,1.3c0,1.3-0.5,1.4-0.1,2.6h-0.1c-3.1-1.1-4.7,3.7-1.7,4.7c1.2,0.4,2.6,1.2,3.1,1.7c-0.5,2.4-4.9,1.5-5.7,4.9
	c-0.1,0.4-0.2,0.8-0.4,1.2c-1,2.5,0.1,6.3,2.1,7.6c1.4,1,3.2,0.8,4.4-0.4c0.8-0.7,1.6-1.3,2.4-2c-0.3,0.3-0.6,0.6-0.9,0.9
	c-1.6,1.9-3.8,6.4-2.6,10c0.4,1.3,1.3,2.3,2.5,2.7c1.2,0.4,2.4,0.4,3.5,0c-0.1,0.2-0.1,0.4-0.1,0.6c0,1.4,1.1,2.5,2.5,2.5
	c1.1,0,2.1-0.4,2.8-1.2c0.2-0.2,0.3-0.4,0.4-0.6c0.5,0.8,1.3,1.5,2.4,1.7c0.1,0.9,0.4,2.4,1.8,3.3c1.6,1,3.4,0.7,4.7,0.3
	c0.8-0.2,1.5-0.8,1.9-1.6c0.6-1.4,0.2-2.9-0.7-5c0.3,0.1,0.7,0.2,1.1,0.3c1.3,0.1,2.3-0.3,3.1-0.6c-0.3,1.7-0.7,3.4-0.5,5.2
	c0.3,2.7,1.9,3.6,2.7,3.9c1.8,0.6,3.7-0.3,5.1-1.4c-0.2,2.4,0,5.1,1.2,6.6c2.2,2.8,5.9,1.2,8.7,0.9c0.9-0.1,3.3-0.3,4-2.3
	c0.1-0.2,0.1-0.4,0.1-0.6c0.8,0.8,1.6,1.1,2.3,1.1c2.7,0.3,4.6-2.4,6.4-5c1.3-1.9,3.3-3.4,3.7-5.9c0.1,1.2,0.7,1.9,1.3,2.3
	c2.1,1.4,4.5-0.2,7.1-2c0.7-0.5,1.4-0.9,1.8-1.2c2.8-1.5,2.3-4.2,2.1-5.4c-0.1-0.9-0.2-1.1,0-1.2c0.2-0.2,0.3-0.4,0.5-0.6
	c0.7,0.6,1.6,1,2.6,1.2c4.4,0.8,5-2.7,7.7-4.8C-29,328.4-29.4,325.1-30.1,319C-30.1,319-29.4,325.1-30.1,319z M-59.3,304.1
	c1.3,1.4,3.2,2,5.2,1.6c1-0.2,1.9-0.6,2.7-1.3c0.3,0,0.6,0,0.9,0c0.8-0.1,1.6-0.3,2.3-0.6c0.8,0.3,1.7,0.4,2.6,0.4
	c-0.7,0.1-1.3,0.3-1.9,0.8c-0.9,0.8-1.3,1.9-1.6,3.1c-1.5-2.4-5.3-2.4-7-2.2c-1.4,0.1-2.4,1.3-2.3,2.7c0,0.2,0.1,0.5,0.2,0.7
	c-1.4-0.7-3.1-1-4-2.5c-0.2-0.3-0.2-0.5-0.2-0.5c0,0.1-0.1,0.4-0.2,0.5h-0.1l-0.9-2.8C-62.2,304.6-60.7,304.6-59.3,304.1
	C-58,305.5-60.7,304.6-59.3,304.1z M-63.1,315.9c-0.2-0.2-0.3-0.3-0.4-0.4c0.7-0.6,1.3-1.4,1.7-2.2c0.5,0.2,1.1,0.3,1.5,0.7
	c0.8,0.8,1.8,3.5,0.9,5.4c-1.5,3.2-0.9,5.5-1.4,8.6C-63.7,326.2-60.2,318.9-63.1,315.9C-63.3,315.7-61.1,318-63.1,315.9z M-53.9,311
	c-0.4,1.1-0.8,2.1-0.7,3.4c-0.4-1.4-1.1-2.6-1.7-3.5C-55.5,311-54.7,311-53.9,311C-53.9,311-54.4,310.9-53.9,311z M-70.4,303.6
	c1.6,0.2,3.1-0.2,4.3-1.1c0.2,0.1,0.3,0.1,0.5,0.2c-0.6,0.4-1.3,1.1-1.6,2.1c-0.4,1-0.6,2.6,0.7,4.7c0.2,0.4,0.5,0.7,0.7,1
	c-0.8,0.6-1.7,1.8-2.3,2.5c0.5-1.6,0.7-3.8-1.2-5.4c-1.9-1.6-3.6-1.6-4.7-1.3c-1.2,0.3-2.9,1.2-4,4c-0.5,1.2-0.9,1.9-1.1,2.4
	c-0.6-0.6-1.2-1.3-1.7-2c0.5-0.4,1.1-0.8,1.7-1.2c2.3-1.5,5.3-3.4,4.7-6.7c0-0.2-0.1-0.4-0.2-0.6c0.3-0.1,0.5-0.2,0.8-0.3
	C-72.8,302.8-71.7,303.4-70.4,303.6C-68.8,303.8-71.7,303.4-70.4,303.6z M-80.2,322.8c-0.1,3.5-1.7,6-0.5,9.7
	c-0.8,0-1.6,0.4-2.1,1.1c-0.1,0.1-0.3,0.4-0.5,0.5c-1.1-4.8,4.2-9.2,2.4-14.4c-0.3-0.9-0.6-1.8-1-2.7c1.4,1.2,2.7,1.2,3.6,1.1
	c3.6-0.7,3.6-4.5,5.5-6.7c-0.5,2.3-0.7,5.1-1.5,7.2c-1.5-1.2-3.1-0.6-3.6-0.3C-80,319.3-80.1,321.6-80.2,322.8
	C-80.2,323.4-80.1,321.6-80.2,322.8z M-92,320.1c-0.4,0.3-0.9,0.6-1.4,1c-1.6,1.3-1.6,2.8-1.1,4.1l-0.1-0.1
	c-2.9-1.7-5.2,0.5-6.3,1.6c-0.2,0.2-0.4,0.4-0.6,0.6c-1-0.8-1.3-1.4-1.4-1.7c0-0.3,0.3-0.7,0.5-0.9c2.1-2.1,5.4-1.4,7.2-4.2l0.1-0.2
	c1.4-2.2,3.2-4.9-0.6-8.1c-2-1.7-4.2-2.4-6.1-1.9c1-1,1.7-2.5,1.9-4c0-0.3,0-0.6,0-0.9c1.1,2.7,3.9,5.5,6.1,7.4
	c0.5,0.4,1.9,1.6,3.7,1.2c0.1,0,0.1,0,0.1,0C-92.4,316-92.3,318.5-92,320.1C-92.4,320.3-92.3,318.5-92,320.1z M-112.4,305.5
	c0.4,0.3,0.7,0.6,0.8,0.8c0.3,0.8,0.7,1.6,1.2,2.3c-0.8-0.1-1.6-0.2-2.4-0.3c0-0.9-0.2-1.8-0.6-2.5
	C-113,305.8-112.7,305.6-112.4,305.5C-112,305.8-112.7,305.6-112.4,305.5z M-104.9,305.2c0.1,0.1,0.1,0.3,0.1,0.5
	c0,0.4-0.2,0.8-0.4,1c-0.5-0.3-1.3-1.1-1.6-1.9c0-0.1-0.1-0.2-0.1-0.3c0,0,0,0,0.1,0c0.6,0.3,1.2,0.4,1.8,0.5
	C-105,305.1-105,305.1-104.9,305.2C-104.9,305.2-105,305.1-104.9,305.2z M-104.6,313.9C-104.6,313.9-104.6,314-104.6,313.9
	c-0.3-0.7-0.7-1.4-1.2-2.2c0.7,0.1,1.4,0.1,2.1-0.1C-104.3,312.3-104.6,313-104.6,313.9C-104.6,313.9-104.6,313-104.6,313.9z
	 M-101.5,318.7c0.8-1,1.4-2.2,1.7-3.3c0.5,0.3,0.9,0.6,1.3,1c-0.3,0.5-0.6,0.9-0.9,1.4C-99.9,318.4-100.9,318.5-101.5,318.7
	C-100.7,317.7-101.4,318.6-101.5,318.7z M-88.9,324.1c0.8-0.5,2.8-1.7,2-4.5c-0.3-1-0.3-1.3,0-1.6c0.5,0.8,1,2.4,1.3,3.2
	c0.7,2.2-1,5.3-1.7,7.3c0-0.2,0-0.4-0.1-0.6c-0.2-1.4-1.1-2.5-1.9-3.5C-89.2,324.3-89,324.2-88.9,324.1
	C-88.2,323.7-89,324.2-88.9,324.1z M-88.3,313c0.9-1,1.3-2.3,1.8-3.5c1.3-2.8-0.2-5.2-1.5-6.8c0.3-0.1,0.5-0.3,0.8-0.5
	c0.3,0.2,0.5,0.4,0.8,0.5c0.1,1.5,0.5,3.1,2,3.7c0.3,0.1,0.5,0.2,0.8,0.2l-0.1,0.1c-1.3,1-2.1,2.2-2.2,3.5c-0.1,1,0.2,1.9,0.7,2.8
	c-0.1,0-0.1-0.1-0.2-0.1C-86.4,312.6-87.4,312.6-88.3,313C-87.7,312.3-87.4,312.6-88.3,313z M-75.9,326.6c0.3-0.7,0.5-1.3,0.6-1.9
	c1,0.3,1.9,0.1,2.4-0.1c2.9-1.2,4.5-6.2,4.1-8.8v-0.1c0.1,1.7,1.4,3.1,2,3.7c1,1,0.2,3.5,0.1,4.6c-0.6-0.5-1.6-1-2.9-0.9
	c-1.1,0.1-2.1,0.8-2.6,1.9c-1,1.7-0.7,3.9-1.6,5.6c-0.7,0.3-1.3,0.8-1.8,1.2C-76.5,329.8-76.3,327.6-75.9,326.6
	C-75.6,325.9-76.3,327.6-75.9,326.6z M-94.5,302.9c0.1-0.1,0.2-0.2,0.3-0.3c0.6,1.3,3.2,3.4,3.1,4.8c-0.1,0.2-0.2,0.5-0.3,0.7
	c-1.3-1.3-3.1-2.9-3.8-4.6C-94.9,303.3-94.7,303.1-94.5,302.9C-94.4,302.8-94.7,303.1-94.5,302.9z M-113.1,313.3
	c3,0.3,3.8,1.8,4.4,4.6c0.1,0.2,0.1,0.4,0.2,0.6c-1.1,0.2-2.4,0.4-3.6,1c0.4-0.8,0.6-1.6,0.6-2.5c0.1-1.5-0.7-2.7-1.8-3.7
	C-113.2,313.3-113.2,313.3-113.1,313.3C-112.5,313.4-113.2,313.3-113.1,313.3z M-115.2,322.8c-0.3,0.6-1.9,2-2.8,2.7
	c0-0.7,0.2-1.4,0.6-2.1c0.8-0.1,1.6-0.3,2.3-0.7C-115.2,322.8-115.2,322.8-115.2,322.8C-115.5,323.5-115.2,322.8-115.2,322.8z
	 M-113.4,328.2c1.4-1.2,2.5-2.4,2.9-3.8c0-0.1,0.2-0.3,0.9-0.5c-0.1,0.4-0.3,0.8-0.4,1.2C-110.4,326.4-112.4,327.4-113.4,328.2
	C-112,327-113,327.9-113.4,328.2z M-108.5,331.5c-1.9,1.2-2.2,3.2-2.1,5.1c-0.7,0.1-1.3,0.3-1.9,0.6c-0.1-1.4,0.9-3.6,1.8-4.6
	c1.1-1.3,2.8-2.2,4.1-3.5c0.5,0.8,1.2,1.5,2.1,2.2c-0.1,0-0.1-0.1-0.2-0.1C-105.5,330.8-106.8,330.5-108.5,331.5
	C-110.3,332.7-106.8,330.5-108.5,331.5z M-102.5,333.5c-0.1,0.1-0.1,0.2-0.2,0.3c-0.3-0.8-0.6-1.5-1.2-2c0.8,0.5,1.5,0.7,2.2,0.7
	C-101.9,332.8-102.2,333.1-102.5,333.5C-102.6,333.6-102.2,333.1-102.5,333.5z M-98.9,331.6c0.7-0.5,1.3-1.1,1.9-1.7
	c0.2,1.1,0.5,2.2,0.8,3.2C-96.9,332.3-97.8,331.7-98.9,331.6C-98.3,331.2-97.8,331.7-98.9,331.6z M-93.5,337.1
	c-0.4-0.7-0.9-1.4-1.3-2.1c0.4,0.4,0.9,0.7,1.5,1c0.7,0.3,1.4,0.4,1.9,0.4C-92.1,336.6-92.8,336.9-93.5,337.1
	C-93.8,336.8-93.4,337.1-93.5,337.1z M-86.4,344c-0.1,0.2-0.2,0.5-0.3,0.8c0.1-0.5,0.2-1,0.3-1.5c0.4-1.9,1-4.7-1.5-6.2
	c-0.9-0.6-1.8-0.7-2.6-0.7c0.6-0.1,1.1-0.4,1.4-0.6s0.6-0.5,0.9-0.9c0.2,1.2,0.7,2.3,1.7,3.3c0.8,0.8,2,1.3,3.1,1.3
	C-85.2,340.5-85.9,342.6-86.4,344C-86.5,344.2-85.9,342.6-86.4,344z M-76.4,345.9c-0.8,0.7-2.5,2.5-1.1,5.3c0.2,0.3,0.4,0.7,0.6,1
	c-0.6,0.1-1.3,0.2-1.9,0.3c-0.7-3.1,1.1-5.6,1.4-8.6c0.4,0.5,0.9,1.1,1.5,1.5C-76,345.6-76.2,345.8-76.4,345.9
	C-77.1,346.7-76.2,345.8-76.4,345.9z M-71.9,350.1c-0.2-0.2-0.6-0.5-0.8-0.8c0.2-0.2,0.5-0.5,0.8-0.8c0.1,0.6,0.2,1.2,0.4,1.9
	C-71.6,350.3-71.8,350.2-71.9,350.1C-72.1,349.9-71.8,350.2-71.9,350.1z M-69.7,342.4c-0.4,0.5-0.8,1.1-1.2,1.6
	c-0.2-0.6-0.6-1.1-0.9-1.5C-71,342.5-70.3,342.5-69.7,342.4C-69.6,342.3-69.6,342.4-69.7,342.4C-70.1,342.9-69.6,342.4-69.7,342.4z
	 M-62.9,344.3c-1.6,1.4-2.5,3.3-3.8,4.9c-0.6-1.8-0.2-2.3,0.9-3.7c1.1-1.4,2-2.9,2.7-4.5c0,0.1,0.1,0.2,0.1,0.3
	C-61.9,343.5-62.5,344-62.9,344.3C-63.6,345-62.5,344-62.9,344.3z M-62.8,334.2c-0.6-0.6-1.8-1.4-3.8-0.8c-2.6,0.8-3.7,2.6-4.4,3.7
	c-0.1,0.1-0.2,0.3-0.2,0.4c-0.3,0-0.7,0-1.1,0c-1.7,0-3.7-0.1-5,1.3c-0.4,0.4-0.6,0.8-0.8,1.3c-0.1-0.2-0.2-0.3-0.4-0.5
	c-0.7-0.7-1.6-1.1-2.5-1.1c1.3-0.8,2.1-1.9,2.3-2.2c0,0,0-0.1,0.1-0.1c0.7,0.7,1.5,1.2,2.4,1.2c1.5,0.1,2.6-0.8,3.6-1.7
	c0.2-0.2,0.5-0.5,0.6-0.6c2.5-0.9,3.2-3.8,3.7-6.2c0.1-0.5,0.3-1.4,0.4-1.6c-0.1,0.2-0.4,0.5-1,0.7c-0.5,0.1-0.9-0.1-1-0.1l-0.1-0.1
	l3-2.8c-0.3,4,1.6,6.8,5.3,8c0,0,0,0,0.1,0C-62,333.3-62.4,333.7-62.8,334.2C-63.3,333.6-62.4,333.7-62.8,334.2z M-57,338.8
	c0,1.4-0.2,2.7-0.4,4.1c-0.1-1.9-1.4-3.6-1.3-5.5c0.6-0.2,1.2-0.4,1.8-0.7C-57,337.5-57,338.2-57,338.8
	C-56.9,339.9-57,338.2-57,338.8z M-53.4,320.9c-0.1,0.3-0.3,0.6-0.5,0.9c-1.1,2.1-2.4,4.7-1,6.9c0.2,0.3,0.5,0.6,0.8,0.9
	c-0.9,0-1.6,0.2-2.3,0.7c0.6-1.6,0.8-3.5,0.2-4.7c-0.2-3.5,2.6-6.1,1.9-9.9c0.3,0.8,1,1.5,2.1,2c0.6,0.3,1.2,0.5,1.8,0.6
	C-51.7,318.6-52.8,319.6-53.4,320.9C-53.5,321.2-52.8,319.6-53.4,320.9z M-49,333.6c-1.6,2-1.3,4-1,5.3c0,0.1,0,0.2,0.1,0.3
	c-0.7,0.4-1.3,0.8-2,1.3c0.1-2.9,2.3-7.8-0.2-10l0,0c1.3,0.2,2.7,0,3.9-0.4C-47.6,331.9-47.7,332-49,333.6
	C-50.6,335.5-47.7,332-49,333.6z M-47.2,324.7c-0.9,0.1-1.8,0.3-2.7,0.5c0.4-0.8,0.7-1.5,1.1-2.3c0.1,0,0.2,0,0.3,0
	C-48,323.5-47.6,324.1-47.2,324.7L-47.2,324.7C-47.8,324.7-47.2,324.7-47.2,324.7z M-47.6,318.1c0.3-0.1,0.6-0.2,0.9-0.4
	c1.3-0.7,2.2-2.1,2.3-3.8c0.1-1.4,0.1-2.8,0.2-4.1c0.5,0.5,1,1.3,0.9,2.7c-0.1,1-0.4,2-0.6,2.9c-0.5,1.8-1,3.7,0.3,5.2
	c0.3,0.4,0.7,0.6,1.2,0.8c-0.8,0.1-1.1-0.1-1.2-0.3C-44.5,319.5-46,318.4-47.6,318.1C-47.3,318-46,318.4-47.6,318.1z"/>
<g id="Confidence_Legend" transform="translate(200,50)">
	<g>
		<rect x="-226.7" y="411.9" class="st2" width="16.8" height="16.8"/>
		<path class="st3" d="M-210.4,412.3v15.9h-15.9v-15.9H-210.4 M-209.5,411.4h-0.9h-15.9h-0.9v0.9v15.9v0.9h0.9h15.9h0.9v-0.9v-15.9
			V411.4L-209.5,411.4z"/>
	</g>
	<g>
		<rect x="-206.2" y="411.9" class="st4" width="16.8" height="16.8"/>
		<path class="st3" d="M-189.9,412.3v15.9h-15.9v-15.9H-189.9 M-189,411.4h-0.9h-15.9h-0.9v0.9v15.9v0.9h0.9h15.9h0.9v-0.9v-15.9
			V411.4L-189,411.4z"/>
	</g>
	<g>
		<rect x="-185.8" y="411.9" class="st5" width="16.8" height="16.8"/>
		<path class="st3" d="M-169.5,412.3v15.9h-15.9v-15.9H-169.5 M-168.6,411.4h-0.9h-15.9h-0.9v0.9v15.9v0.9h0.9h15.9h0.9v-0.9v-15.9
			V411.4L-168.6,411.4z"/>
	</g>
	<g>
		<rect x="-165.3" y="411.9" class="st6" width="16.8" height="16.8"/>
		<path class="st3" d="M-149,412.3v15.9h-15.9v-15.9H-149 M-148.1,411.4h-0.9h-15.9h-0.9v0.9v15.9v0.9h0.9h15.9h0.9v-0.9v-15.9
			V411.4L-148.1,411.4z"/>
	</g>
	<g>
		<rect x="-144.9" y="411.9" class="st7" width="16.8" height="16.8"/>
		<path class="st3" d="M-128.6,412.3v15.9h-15.9v-15.9H-128.6 M-127.7,411.4h-0.9h-15.9h-0.9v0.9v15.9v0.9h0.9h15.9h0.9v-0.9v-15.9
			V411.4L-127.7,411.4z"/>
	</g>
	<g>
		<rect x="-124.6" y="411.9" class="st8" width="16.8" height="16.8"/>
		<path class="st3" d="M-108.3,412.3v15.9h-15.9v-15.9H-108.3 M-107.4,411.4h-0.9h-15.9h-0.9v0.9v15.9v0.9h0.9h15.9h0.9v-0.9v-15.9
			V411.4L-107.4,411.4z"/>
	</g>
	<text transform="matrix(1 0 0 1 -221.969 442.2892)" class="st9 st10">0</text>
	<text transform="matrix(1 0 0 1 -201.6087 442.2892)" class="st9 st10">1</text>
	<text transform="matrix(1 0 0 1 -181.2474 442.2892)" class="st9 st10">2</text>
	<text transform="matrix(1 0 0 1 -160.8866 442.2892)" class="st9 st10">3</text>
	<text transform="matrix(1 0 0 1 -140.5252 442.2892)" class="st9 st10">4</text>
	<text transform="matrix(1 0 0 1 -120.2449 442.2892)" class="st9 st10">5</text>
	<text transform="matrix(1 0 0 1 -225.9725 406.6252)" class="st9 st10">Confidence</text>
</g>
<g>
	<rect x="35.5" y="95.2" class="st2" width="15.9" height="15.9"/>
</g>
<g>
	<rect x="35.1" y="120.3" class="st2" width="15.9" height="15.9"/>
</g>
<g>
	<rect x="33.3" y="144.8" class="st2" width="15.9" height="15.9"/>
</g>
<g id="Level_Legend" transform="translate(200,50)">
	<g>
		<rect x="-395.9" y="411.9" class="st11" width="16.8" height="16.8"/>
		<path class="st3" d="M-379.6,412.3v15.9h-15.9v-15.9H-379.6 M-378.7,411.5h-0.9h-15.9h-0.9v0.9v15.9v0.9h0.9h15.9h0.9v-0.9v-15.9
			V411.5L-378.7,411.5z"/>
	</g>
	<g>
		<rect x="-350" y="411.9" class="st12" width="16.8" height="16.8"/>
		<path class="st3" d="M-333.7,412.3v15.9h-15.9v-15.9H-333.7 M-332.8,411.5h-0.9h-15.9h-0.9v0.9v15.9v0.9h0.9h15.9h0.9v-0.9v-15.9
			V411.5L-332.8,411.5z"/>
	</g>
	<g>
		<rect x="-303.1" y="411.9" class="st13" width="16.8" height="16.8"/>
		<path class="st3" d="M-286.8,412.3v15.9h-15.9v-15.9H-286.8 M-285.9,411.5h-0.9h-15.9h-0.9v0.9v15.9v0.9h0.9h15.9h0.9v-0.9v-15.9
			V411.5L-285.9,411.5z"/>
	</g>
	<text transform="matrix(1 0 0 1 -396.1583 442.2888)" class="st9 st10">Low</text>
	<text transform="matrix(1 0 0 1 -350.4367 442.2888)" class="st9 st10">Med</text>
	<text transform="matrix(1 0 0 1 -302.7145 442.2888)" class="st9 st10">High</text>
	<text transform="matrix(1 0 0 1 -395.1617 406.6248)" class="st9 st10">Level</text>
</g>
</svg>
